<svg class="img-fluid" id="outputsvg" xmlns="http://www.w3.org/2000/svg" style="transform: none; transform-origin: 50% 50%; cursor: move;" width="1309" height="1600" viewBox="0 0 13090 16000"><g id="l1sJi2Y56ffBrUwhccMxXAy" fill="rgb(0,0,0)" style="transform: none;"><g style="transform: none;"><path id="pvIpXHqLq" d="M56 15864 c-9 -24 -7 -15767 2 -15782 7 -10 1307 -12 6468 -10 l6459 3 3 7903 2 7902 -6464 0 c-5885 0 -6464 -1 -6470 -16z m12855 -60 c12 -7 12 -15651 0 -15659 -5 -3 -413 -6 -905 -8 l-896 -2 0 673 c0 438 -3 672 -10 672 -6 0 -11 -236 -12 -673 l-3 -672 -160 0 -160 0 -3 672 c-1 437 -6 673 -12 673 -7 0 -10 468 -10 1364 l0 1365 -56 16 c-74 21 -84 45 -84 203 l0 118 -92 -1 c-128 0 -158 16 -428 231 -124 99 -244 194 -268 213 -24 19 -40 37 -35 42 5 5 35 -2 68 -16 92 -38 191 -35 318 9 115 41 194 94 287 194 87 93 97 108 160 237 74 150 98 309 64 426 -16 56 -69 149 -85 149 -5 0 -9 7 -9 15 0 8 3 15 8 15 4 0 60 -42 124 -93 64 -52 129 -102 145 -112 64 -42 276 -220 301 -254 15 -20 31 -39 35 -42 5 -3 9 -12 10 -20 2 -8 6 -19 9 -25 11 -16 21 -65 23 -109 4 -64 10 -75 100 -164 115 -114 155 -191 155 -298 0 -93 -30 -173 -109 -292 l-56 -84 -5 -172 c-4 -124 -9 -177 -19 -188 -17 -21 -73 -37 -128 -37 l-43 0 0 -1340 0 -1340 435 0 435 0 0 5315 0 5315 -2712 0 c-1492 0 -2723 -3 -2735 -6 -20 -6 -18 -11 36 -97 32 -51 105 -164 163 -252 58 -88 162 -248 230 -355 183 -285 357 -553 372 -570 19 -22 296 -448 296 -455 0 -3 9 -15 20 -27 10 -12 17 -25 14 -30 -3 -4 2 -11 10 -14 9 -3 13 -10 10 -15 -3 -5 2 -12 10 -15 9 -3 14 -10 11 -14 -3 -5 3 -13 12 -19 10 -5 16 -12 13 -14 -3 -2 29 -55 70 -117 76 -115 203 -308 537 -820 103 -157 189 -287 192 -290 3 -3 15 -21 25 -40 29 -53 191 -303 461 -710 132 -201 296 -450 364 -555 462 -716 557 -861 672 -1032 71 -106 129 -197 129 -203 0 -5 5 -10 10 -10 6 0 10 -7 10 -15 0 -8 5 -15 10 -15 6 0 10 -7 10 -15 0 -8 4 -15 10 -15 5 0 12 -11 16 -25 3 -14 10 -25 15 -25 5 0 9 -7 9 -15 0 -8 5 -15 10 -15 6 0 10 -7 10 -15 0 -8 5 -15 12 -15 6 0 9 -3 5 -6 -3 -3 12 -33 34 -66 44 -69 48 -88 19 -88 -52 0 -182 -35 -246 -66 -108 -53 -240 -158 -307 -244 -92 -119 -143 -232 -174 -385 -15 -71 -28 -131 -29 -133 -2 -3 -523 411 -1179 936 -952 763 -1376 1105 -1495 1202 -74 61 -153 123 -175 137 -37 25 -183 141 -710 569 -126 103 -279 224 -340 270 -60 45 -145 111 -187 146 -231 190 -2404 1932 -2872 2303 -303 240 -660 526 -711 570 -77 67 -349 284 -395 315 -19 13 -113 87 -209 165 -230 186 -247 198 -260 191 -8 -5 -11 -1497 -11 -5312 l0 -5304 4820 0 4820 0 -2 -677 -3 -678 -5287 0 c-4260 0 -5289 2 -5300 13 -16 16 -22 7080 -11 12192 l8 3464 23 6 c31 7 12751 2 12763 -6z m-2431 -9785 c85 -39 122 -92 142 -207 40 -234 -162 -583 -407 -702 -74 -36 -212 -65 -272 -56 -108 14 -177 74 -208 179 -20 68 -19 136 5 235 41 170 125 306 252 409 143 114 251 162 373 162 50 0 83 -5 115 -20z"></path><path id="poXhbqT2p" d="M4106 15000 c-71 -28 -122 -66 -156 -118 -42 -63 -53 -113 -48 -213 6 -136 58 -221 171 -281 36 -20 57 -23 147 -23 86 0 113 4 151 21 45 21 120 80 117 92 -1 4 9 29 21 55 91 196 11 405 -178 472 -60 21 -165 19 -225 -5z m253 -66 c93 -50 134 -125 134 -244 1 -166 -90 -267 -250 -278 -187 -12 -302 105 -291 297 5 86 27 138 80 189 81 78 223 93 327 36z"></path><path id="pcizF9rjF" d="M5556 15008 c-53 -14 -118 -81 -139 -143 -14 -39 -17 -90 -17 -272 l0 -223 24 0 24 0 4 228 c4 259 12 291 77 336 77 54 199 42 255 -24 37 -44 46 -111 46 -335 l0 -205 25 0 25 0 0 215 c0 119 -5 237 -11 266 -27 127 -165 196 -313 157z"></path><path id="pPtepXSQs" d="M6263 15006 c-63 -20 -127 -61 -155 -98 -30 -40 -61 -98 -52 -98 4 0 2 -6 -3 -12 -11 -14 -15 -197 -5 -213 4 -5 8 -18 9 -28 4 -25 46 -87 79 -119 16 -15 55 -39 87 -54 94 -42 232 -33 309 20 20 14 9 15 -118 13 -126 -2 -143 0 -179 20 -47 25 -86 65 -111 113 -24 47 -25 53 -26 140 -2 122 44 200 152 256 45 23 169 24 221 2 49 -21 114 -81 129 -118 9 -21 19 -30 36 -30 28 0 29 8 10 53 -20 47 -80 102 -143 133 -66 33 -174 42 -240 20z"></path><path id="pLJIzUUVb" d="M7000 15005 c-78 -26 -134 -76 -171 -152 -30 -62 -33 -76 -33 -163 0 -78 4 -104 22 -145 13 -27 23 -52 23 -55 0 -3 16 -22 36 -42 109 -112 315 -122 433 -21 39 34 100 116 100 135 0 21 -49 6 -65 -19 -52 -82 -118 -123 -210 -130 -115 -10 -206 38 -260 137 -26 48 -30 65 -30 135 0 68 4 89 29 138 33 67 84 110 159 132 123 37 233 -3 307 -110 23 -33 38 -45 56 -45 l24 0 -24 48 c-32 61 -89 115 -151 143 -64 28 -181 35 -245 14z"></path><path id="pDMCMsCzH" d="M8023 15006 c-102 -33 -162 -86 -204 -180 -31 -71 -30 -206 4 -279 32 -71 74 -117 139 -152 45 -25 67 -30 143 -33 116 -5 187 19 255 88 85 84 115 232 73 360 -23 70 -96 150 -165 180 -65 29 -184 36 -245 16z m196 -52 c107 -31 171 -120 179 -245 8 -142 -53 -246 -168 -284 -68 -23 -178 -17 -235 12 -43 22 -118 97 -108 107 4 3 1 6 -5 6 -7 0 -11 3 -11 8 1 4 0 10 -1 15 -1 4 -3 10 -5 15 -1 4 -5 15 -9 24 -5 10 -7 54 -5 97 4 73 7 84 44 137 75 109 192 148 324 108z"></path><path id="p9CtvC3Tj" d="M9967 15005 c-59 -22 -93 -51 -116 -98 -27 -56 -27 -87 -1 -87 13 0 25 12 35 38 42 100 136 135 263 97 62 -19 92 -53 92 -105 0 -70 -35 -93 -240 -159 -84 -27 -125 -53 -145 -91 -31 -60 -17 -149 31 -191 78 -68 236 -72 323 -8 60 43 93 149 46 149 -9 0 -18 -8 -21 -17 -13 -44 -38 -81 -64 -96 -75 -45 -195 -38 -250 13 -25 23 -30 36 -30 72 0 69 34 93 208 147 159 49 220 119 192 220 -27 102 -195 162 -323 116z"></path><path id="pQEaFJ8SP" d="M2740 14690 l0 -322 148 4 c138 3 150 5 192 30 101 59 127 209 53 306 -41 55 -100 75 -230 80 l-112 4 -3 107 c-3 101 -4 106 -25 109 l-23 3 0 -321z m340 24 c50 -29 72 -76 67 -147 -4 -66 -26 -103 -78 -130 -28 -14 -55 -17 -154 -15 l-120 3 -3 135 c-4 198 -15 183 131 178 100 -3 130 -8 157 -24z"></path><path id="p1Ax3pII8V" d="M3337 15004 c-4 -4 -7 -148 -7 -321 l0 -313 143 0 c116 0 149 4 182 19 146 66 151 281 8 351 -29 14 -52 28 -52 31 -1 5 11 21 49 66 5 7 10 16 10 22 0 5 4 11 8 13 15 6 92 121 86 129 -18 30 -64 -5 -124 -96 -18 -27 -48 -69 -67 -92 l-34 -43 -79 0 -79 0 -3 117 c-2 97 -6 118 -18 121 -9 1 -19 0 -23 -4z m254 -294 c42 -8 61 -18 87 -45 28 -31 32 -41 32 -92 0 -41 -6 -68 -20 -91 -31 -50 -73 -63 -198 -60 l-107 3 -3 139 c-2 105 1 141 10 148 18 11 134 10 199 -2z"></path><path id="pO7GnFfA7" d="M4720 14690 l0 -322 153 4 c143 3 155 5 209 31 111 55 160 144 160 291 0 102 -24 164 -85 224 -72 71 -120 86 -289 90 l-148 4 0 -322z m338 237 c61 -32 106 -88 127 -160 17 -59 19 -113 5 -122 -6 -4 -8 -11 -4 -16 3 -6 2 -18 -2 -27 -4 -9 -8 -23 -10 -30 -1 -8 -10 -22 -18 -31 -9 -10 -14 -20 -12 -22 7 -8 -84 -71 -122 -85 -22 -8 -81 -13 -144 -14 l-108 0 0 271 0 271 118 -4 c104 -3 123 -7 170 -31z"></path><path id="pMXEyukoh" d="M7587 14978 c-7 -48 -9 -553 -1 -583 4 -16 13 -25 25 -25 18 0 19 13 19 320 0 307 -1 320 -19 320 -13 0 -20 -9 -24 -32z"></path><path id="p15772ykCH" d="M8620 14691 l0 -321 24 0 c16 0 35 13 56 40 17 22 28 40 23 40 -4 0 0 5 10 11 9 5 17 17 17 24 0 8 5 15 10 15 6 0 10 6 10 14 0 8 7 17 16 20 8 3 12 10 9 16 -3 5 -1 10 5 10 6 0 14 8 17 18 4 9 12 22 17 29 28 32 36 43 36 48 0 11 174 245 182 245 4 0 8 -119 8 -265 l0 -265 25 0 25 0 0 315 c0 265 -2 317 -14 321 -8 3 -22 2 -31 -3 -8 -5 -95 -121 -193 -258 -98 -136 -182 -248 -187 -249 -6 -1 -12 100 -15 254 l-5 255 -22 3 -23 3 0 -320z"></path><path id="pTbvaaCgO" d="M9326 14947 c-8 -77 -8 -525 0 -555 6 -22 7 -22 183 -20 174 3 176 3 179 26 l3 22 -155 0 -156 0 0 120 0 120 139 0 139 0 4 25 5 25 -143 0 -144 0 0 125 0 125 155 0 155 0 0 26 0 25 -179 -2 -178 -2 -7 -60z"></path><path id="pium9N6Nc" d="M1110 13886 c0 -6 85 -218 368 -916 l160 -395 139 -3 139 -3 69 173 c38 95 140 349 228 563 87 215 176 434 197 488 l39 98 -90 -3 -90 -3 -94 -230 c-268 -663 -385 -949 -390 -953 -12 -13 -33 32 -160 344 -73 181 -174 429 -224 551 -50 122 -91 227 -91 233 0 7 14 10 37 8 l37 -3 63 -155 c34 -85 64 -159 65 -163 2 -4 119 -9 260 -10 l257 -2 76 185 c41 102 75 189 75 194 0 4 -10 6 -22 4 -18 -2 -33 -30 -89 -168 l-66 -165 -229 0 -229 0 -66 165 -66 165 -86 3 c-48 1 -87 -1 -87 -6 0 -9 57 -149 332 -822 55 -135 101 -252 101 -260 1 -8 5 -17 9 -20 3 -3 8 -14 10 -25 1 -11 7 -23 11 -26 4 -3 9 -16 10 -27 1 -12 5 -22 10 -22 4 0 5 -4 2 -10 -4 -6 15 -10 49 -10 49 0 56 2 56 20 0 11 4 20 8 20 4 0 8 10 9 22 1 11 6 24 10 27 4 3 9 13 11 22 2 15 48 129 324 809 l104 255 37 3 c26 2 37 -1 37 -11 0 -7 -35 -99 -77 -203 -42 -104 -152 -373 -243 -599 l-165 -410 -106 -3 c-80 -2 -108 1 -112 10 -2 7 -75 186 -161 398 -363 898 -349 865 -373 868 -13 2 -23 1 -23 -2z"></path><path id="pchE9AvbP" d="M2550 13231 l0 -661 80 0 80 0 0 635 0 635 35 0 35 0 0 -175 0 -175 138 1 137 0 134 175 c133 172 135 174 173 174 42 0 47 -10 21 -38 -10 -10 -25 -29 -33 -42 -8 -12 -23 -32 -32 -44 -10 -11 -59 -75 -110 -141 -51 -66 -98 -126 -104 -132 -9 -9 -57 -13 -168 -13 l-156 0 0 -331 0 -332 158 5 c131 5 167 9 216 28 120 46 179 131 179 255 0 185 -129 284 -370 285 -71 0 -73 -1 -73 -25 0 -25 1 -25 83 -25 212 0 323 -84 315 -240 -5 -85 -31 -137 -89 -176 -59 -39 -134 -54 -271 -54 l-108 0 0 285 0 285 103 0 c139 0 264 -22 328 -57 58 -31 120 -102 140 -160 26 -73 9 -273 -23 -273 -4 0 -8 -7 -8 -15 0 -8 -4 -15 -10 -15 -5 0 -10 -5 -10 -10 0 -17 -50 -58 -104 -86 -73 -38 -164 -54 -318 -54 l-138 0 0 -76 0 -76 188 4 c172 4 194 7 266 32 139 47 224 114 280 216 35 64 41 99 40 235 0 126 -5 175 -18 175 -5 0 -7 3 -3 6 9 9 -37 93 -70 130 -15 17 -52 46 -80 63 -29 18 -53 35 -53 37 0 2 69 93 153 201 84 109 157 204 161 211 5 8 -1 12 -22 12 -26 0 -46 -23 -195 -215 -92 -119 -167 -219 -167 -223 0 -4 24 -20 53 -34 121 -60 178 -142 199 -286 30 -207 -53 -374 -227 -457 -95 -45 -165 -58 -325 -59 l-135 -1 -3 26 -3 26 143 6 c81 3 169 13 203 22 115 31 200 96 247 189 27 52 32 75 36 153 5 106 -11 169 -59 240 -39 56 -119 109 -186 124 -29 7 -53 15 -53 18 0 4 79 108 175 231 96 124 175 229 175 233 0 4 -44 6 -97 5 l-97 -3 -135 -172 -136 -173 -107 0 -108 0 0 175 0 176 -77 -3 -78 -3 -3 -637 -2 -638 -30 0 -30 0 -2 638 -3 637 -22 3 -23 3 0 -660z"></path><path id="pLNPcW25M" d="M4057 13883 c-4 -3 -7 -244 -7 -535 l0 -528 -190 0 -190 0 0 -125 0 -125 520 0 520 0 0 75 0 75 -245 0 -245 0 0 560 0 560 35 0 35 0 0 -535 0 -535 208 2 c206 3 207 3 210 26 l3 22 -190 0 -191 0 0 535 0 535 -80 0 -80 0 0 -585 0 -585 -190 0 -190 0 0 -25 0 -25 435 0 435 0 0 -30 0 -30 -467 2 -468 3 -3 78 c-2 58 0 77 10 77 7 1 93 0 191 0 l177 -1 0 561 c0 536 -1 560 -18 560 -10 0 -22 -3 -25 -7z"></path><path id="pJRWnHz7R" d="M4829 13886 c-2 -2 -3 -299 -1 -660 l2 -656 484 0 483 0 -1 73 -1 72 -402 3 -403 2 0 560 0 560 395 0 395 0 0 -30 0 -30 -360 0 -360 0 0 -25 0 -25 360 0 360 0 0 -25 0 -25 -360 0 -360 0 0 -185 0 -185 285 0 285 0 0 -30 0 -30 -285 0 c-278 0 -285 0 -285 -20 0 -20 7 -20 285 -20 l285 0 0 -30 0 -30 -285 0 -285 0 0 -190 0 -190 368 2 c359 3 367 3 367 23 0 20 -8 20 -343 25 l-343 5 -2 140 -1 140 285 2 284 2 0 123 0 123 -283 5 -284 5 -1 130 0 130 361 3 362 2 0 130 0 130 -445 0 -445 0 0 -610 0 -610 405 0 405 0 0 -30 0 -30 -440 0 -440 0 0 640 c0 614 -1 640 -18 640 -10 0 -21 -2 -23 -4z"></path><path id="pqjjBM52P" d="M6000 13231 l0 -661 485 0 485 0 0 75 0 75 -405 0 -405 0 0 560 0 560 35 0 35 0 0 -235 0 -235 290 0 290 0 0 -25 0 -25 -290 0 -290 0 0 -25 0 -25 290 0 290 0 0 -25 0 -25 -290 0 -290 0 0 -225 0 -225 370 0 370 0 0 25 0 25 -350 0 -350 0 0 175 0 175 290 0 290 0 0 120 0 120 -278 0 c-203 0 -281 3 -290 12 -9 9 -12 76 -12 240 l0 228 -80 0 -80 0 0 -610 0 -610 404 0 c262 0 407 -4 411 -10 3 -6 3 -19 0 -30 -6 -20 -16 -20 -441 -20 l-434 0 -2 638 -3 637 -22 3 -23 3 0 -660z"></path><path id="pgO0kHHvw" d="M6872 13873 c2 -10 6 -20 10 -23 4 -3 9 -18 12 -34 3 -15 10 -34 17 -42 6 -8 9 -14 6 -14 -3 0 37 -105 89 -232 52 -128 160 -396 240 -595 l146 -363 143 0 143 0 87 218 c48 119 89 225 90 235 2 9 7 23 12 30 4 6 8 17 9 22 1 6 72 185 158 398 86 213 159 394 163 402 4 13 -10 15 -84 15 l-89 0 -112 -277 c-62 -153 -113 -282 -114 -288 0 -5 -5 -19 -11 -30 -6 -11 -10 -23 -9 -27 1 -5 -2 -8 -8 -8 -5 0 -7 -7 -4 -15 4 -8 1 -15 -6 -15 -6 0 -8 -4 -5 -10 3 -5 2 -10 -2 -10 -5 0 -9 -10 -10 -22 -1 -11 -6 -24 -10 -27 -4 -3 -10 -15 -11 -26 -2 -11 -7 -22 -10 -25 -4 -3 -7 -9 -7 -15 0 -5 -34 -94 -75 -197 -69 -173 -91 -211 -111 -191 -4 4 -68 159 -142 343 -74 184 -176 433 -226 554 -50 120 -91 222 -91 227 0 5 17 9 38 9 l37 0 65 -161 c35 -88 68 -163 73 -166 6 -4 329 -6 502 -3 16 0 27 17 50 77 16 43 31 87 33 98 1 10 6 22 10 25 4 3 9 14 10 25 2 11 7 22 10 25 4 3 8 13 10 23 2 10 12 38 22 63 l20 45 -26 -3 c-22 -3 -31 -18 -79 -136 -30 -73 -54 -136 -55 -140 0 -4 -6 -19 -13 -35 l-12 -27 -228 2 -228 3 -67 165 -68 165 -88 3 c-80 3 -87 1 -82 -15 3 -10 55 -139 116 -288 61 -148 170 -417 243 -598 l132 -327 49 2 50 3 127 320 c70 176 174 439 232 585 l105 265 42 3 c50 4 56 31 -56 -243 -151 -372 -262 -650 -266 -664 -2 -8 -30 -82 -63 -165 l-61 -151 -109 0 c-107 0 -110 1 -121 25 -23 50 -425 1056 -429 1075 -6 23 -59 151 -68 163 -15 19 -48 15 -45 -5z"></path><path id="p1Bk8T8ozT" d="M8764 13879 c-150 -14 -281 -72 -389 -171 -142 -130 -214 -274 -223 -440 -6 -127 9 -201 64 -316 37 -77 59 -108 127 -175 66 -66 101 -91 177 -130 124 -62 210 -80 355 -74 169 7 287 55 426 173 l58 49 -56 57 -56 56 -61 -48 c-113 -88 -205 -120 -346 -120 -300 0 -537 238 -517 520 17 253 250 459 518 460 108 0 251 -50 339 -119 20 -16 23 -24 14 -37 -22 -37 -38 -37 -87 -4 -224 151 -558 72 -668 -158 -40 -84 -50 -190 -25 -277 58 -202 214 -310 441 -308 125 2 211 34 310 117 28 23 29 26 13 42 -16 16 -19 15 -58 -19 -207 -177 -560 -100 -650 140 -15 41 -21 80 -21 137 0 72 4 88 36 154 30 61 47 81 97 118 86 63 174 88 286 81 112 -6 148 -18 228 -73 l65 -45 27 20 c15 10 40 33 56 50 l30 31 -37 38 c-47 48 -129 98 -215 130 -55 21 -85 25 -172 26 -209 1 -362 -78 -481 -248 -153 -217 -116 -488 92 -680 188 -174 478 -193 703 -46 42 28 80 50 85 50 4 0 16 -9 27 -21 18 -20 18 -21 -21 -55 -69 -59 -209 -123 -310 -141 -339 -59 -673 164 -740 496 -72 355 210 693 598 717 170 11 338 -47 463 -160 56 -50 63 -54 75 -39 12 14 6 23 -51 75 -144 130 -322 187 -526 167z"></path><path id="pajf39vrr" d="M9847 13883 c-4 -3 -7 -244 -7 -535 l0 -528 -185 0 -185 0 0 -125 0 -125 513 0 512 0 -3 75 -4 75 -239 0 -239 0 0 560 0 560 29 0 c18 0 31 -6 35 -17 4 -9 6 -248 6 -532 l-1 -516 208 -3 208 -2 0 25 0 25 -187 0 -188 0 0 535 0 535 -80 0 -80 0 0 -585 0 -585 -190 0 -190 0 0 -25 0 -25 435 0 435 0 0 -30 0 -30 -467 2 -468 3 -3 78 -3 77 191 0 190 0 0 560 c0 536 -1 560 -18 560 -10 0 -22 -3 -25 -7z"></path><path id="pNXXGFnfm" d="M11119 13879 c-116 -12 -222 -55 -326 -134 -81 -60 -154 -154 -203 -257 -84 -180 -80 -358 11 -547 54 -112 176 -237 286 -294 379 -197 822 -7 953 408 33 104 32 252 -4 361 -58 181 -208 345 -382 417 -107 44 -210 58 -335 46z m241 -64 c222 -59 398 -243 444 -467 29 -142 13 -258 -54 -395 -67 -137 -188 -242 -346 -303 -81 -31 -261 -39 -354 -16 -223 56 -399 230 -455 451 -19 76 -19 214 0 288 60 230 269 420 505 457 69 11 188 4 260 -15z"></path><path id="pfd2qw05K" d="M11095 13753 c-52 -11 -145 -49 -191 -78 -293 -187 -338 -567 -96 -817 288 -298 789 -177 912 221 25 79 27 215 4 292 -52 179 -234 346 -413 379 -53 10 -177 12 -216 3z m240 -58 c180 -47 324 -203 356 -385 52 -301 -182 -570 -496 -570 -277 1 -495 213 -495 483 0 144 45 251 148 349 98 94 205 137 342 137 47 1 112 -6 145 -14z"></path><path id="pnrgJ3nfy" d="M11080 13624 c-111 -30 -222 -120 -270 -219 -12 -24 -26 -73 -32 -109 -47 -282 193 -516 486 -476 140 20 257 104 319 230 30 61 32 70 32 180 0 103 -3 121 -26 170 -34 71 -104 149 -166 183 -102 55 -232 71 -343 41z m293 -72 c82 -41 158 -121 184 -194 12 -36 18 -81 18 -138 -1 -72 -5 -95 -29 -147 -127 -278 -565 -281 -694 -5 -24 50 -27 69 -27 162 0 95 3 110 27 156 37 71 72 110 126 142 86 50 138 63 238 59 79 -2 100 -7 157 -35z"></path><path id="psfGPeAmF" d="M1550 13420 c10 -19 21 -20 195 -20 102 0 185 -3 185 -7 0 -21 -155 -392 -161 -386 -7 8 -109 267 -109 277 0 3 36 6 80 6 44 0 80 4 80 9 0 5 3 16 6 25 5 14 -9 16 -115 16 -67 0 -121 -4 -121 -8 0 -4 25 -67 55 -140 30 -73 55 -140 57 -149 2 -10 6 -20 10 -23 4 -3 9 -18 12 -33 2 -14 8 -32 13 -39 4 -7 8 -17 9 -23 1 -5 8 -23 14 -40 l12 -30 15 35 c9 19 16 40 17 45 1 6 8 20 14 33 7 12 10 22 7 22 -3 0 0 10 7 23 6 12 13 29 15 37 1 8 34 90 72 183 38 92 73 176 76 187 6 20 1 20 -225 20 -228 0 -231 0 -220 -20z"></path><path id="pUgTNfMir" d="M7304 13424 c3 -9 6 -18 6 -20 0 -2 83 -4 184 -4 105 0 187 -4 191 -9 6 -11 -143 -391 -154 -391 -4 0 -31 60 -60 133 -29 72 -55 138 -58 145 -4 9 15 12 76 12 69 0 82 3 91 19 5 11 10 22 10 25 0 3 -57 6 -126 6 -97 0 -125 -3 -121 -12 3 -7 40 -98 82 -203 42 -104 84 -206 92 -225 l14 -35 103 255 c56 140 108 265 114 277 7 12 12 26 12 32 0 8 -74 11 -231 11 -207 0 -230 -2 -225 -16z"></path><path id="ppJnGcEh4" d="M10704 5899 c28 -167 26 -242 -11 -354 -43 -135 -164 -320 -260 -401 -100 -85 -226 -153 -321 -175 -26 -6 -84 -10 -129 -10 l-82 0 32 -28 c18 -15 88 -72 155 -127 288 -231 293 -234 414 -234 258 0 617 350 698 680 30 122 6 263 -58 336 -24 29 -328 274 -411 333 l-34 25 7 -45z"></path><path id="p1HtN2Toj7" d="M11258 4508 c-2 -161 -2 -295 0 -297 1 -3 10 3 20 12 15 16 18 49 22 287 3 149 4 275 2 280 -2 6 -12 10 -22 10 -18 0 -19 -14 -22 -292z"></path><path id="pdaFbUMDv" d="M10650 4411 c0 -116 6 -141 37 -141 10 0 13 24 13 95 0 57 4 95 10 95 6 0 10 -30 10 -69 0 -81 14 -127 41 -134 11 -3 109 -15 219 -28 252 -29 240 -35 240 123 0 59 -2 108 -4 108 -2 0 -35 -15 -72 -32 -53 -25 -86 -33 -141 -36 -90 -5 -140 11 -262 83 l-91 54 0 -118z"></path><path id="pMGRDmlDo" d="M10790 2851 l0 -1361 150 0 150 0 0 1339 c0 737 -3 1342 -7 1344 -5 3 -60 10 -123 16 -63 7 -127 14 -142 17 l-28 6 0 -1361z"></path></g></g><g id="l1acehfOJWNL16QSFhq1J5o" fill="rgb(255,255,255)" style="transform: none;"><g style="transform: none;"><path id="p152J9Gajn" d="M12985 7980 c0 -4348 1 -6126 2 -3952 2 2173 2 5731 0 7905 -1 2173 -2 395 -2 -3953z"></path><path id="p1DeG961Ye" d="M55 7975 c0 -4340 1 -6113 2 -3942 2 2172 2 5722 0 7890 -1 2168 -2 392 -2 -3948z"></path><path id="p1EY30Zwnf" d="M5613 15013 c15 -2 39 -2 55 0 15 2 2 4 -28 4 -30 0 -43 -2 -27 -4z"></path><path id="pdffNpKwj" d="M6328 15013 c17 -2 47 -2 65 0 17 2 3 4 -33 4 -36 0 -50 -2 -32 -4z"></path><path id="p15gjmADTD" d="M8087 15013 c18 -2 50 -2 70 0 21 2 7 4 -32 4 -38 0 -55 -2 -38 -4z"></path><path id="pNleD3sIB" d="M2742 14688 l3 -323 2 317 c3 291 5 317 21 321 13 4 11 5 -5 6 l-23 1 2 -322z"></path><path id="p1DKgPfCIN" d="M4783 15003 c37 -2 97 -2 135 0 37 2 6 3 -68 3 -74 0 -105 -1 -67 -3z"></path><path id="pVwa37bF2" d="M9082 15004 c16 -5 18 -32 21 -322 l2 -317 0 320 c0 312 0 320 -20 322 -15 1 -16 1 -3 -3z"></path><path id="py8yTDNzt" d="M9448 15003 c45 -2 119 -2 165 0 45 1 8 3 -83 3 -91 0 -128 -2 -82 -3z"></path><path id="pbfMMJKkv" d="M9375 14828 l0 -123 148 0 147 -1 -145 3 -144 4 -4 119 -3 120 1 -122z"></path><path id="pICszZn3G" d="M3374 14845 l1 -80 78 -1 77 0 -75 3 -74 4 -4 77 -3 77 0 -80z"></path><path id="p11g6mwUuM" d="M2843 14783 c26 -2 68 -2 95 0 26 2 4 3 -48 3 -52 0 -74 -1 -47 -3z"></path><path id="p19VPyIGMG" d="M9374 14535 c0 -66 1 -92 3 -57 2 34 2 88 0 120 -2 31 -3 3 -3 -63z"></path><path id="p1GaCdQGgK" d="M3713 14565 c0 -22 2 -30 4 -17 2 12 2 30 0 40 -3 9 -5 -1 -4 -23z"></path><path id="pdwle8Kca" d="M5154 14458 l-29 -33 33 29 c30 28 37 36 29 36 -2 0 -16 -15 -33 -32z"></path><path id="p1HeHmEE4U" d="M4454 14448 l-29 -33 33 29 c30 28 37 36 29 36 -2 0 -16 -15 -33 -32z"></path><path id="pilNeo6IW" d="M8354 14448 l-29 -33 33 29 c30 28 37 36 29 36 -2 0 -16 -15 -33 -32z"></path><path id="pWebRMaWg" d="M9412 14373 c48 -2 129 -2 180 0 51 1 12 3 -87 3 -99 0 -141 -2 -93 -3z"></path><path id="pmF8V63SY" d="M1265 13884 c72 -8 153 -8 148 -1 -2 4 -43 6 -91 5 -48 0 -73 -3 -57 -4z"></path><path id="pUeuUCNVI" d="M2313 13883 c26 -2 68 -2 95 0 26 2 4 3 -48 3 -52 0 -74 -1 -47 -3z"></path><path id="p6M8zJhM6" d="M2567 13883 l23 -4 3 -627 2 -627 0 630 0 630 -25 2 c-22 1 -22 1 -3 -4z"></path><path id="pvWQrsJnR" d="M2708 13883 c23 -2 59 -2 80 0 20 2 1 4 -43 4 -44 0 -61 -2 -37 -4z"></path><path id="p10eM8uFKd" d="M3358 13883 c29 -2 74 -2 100 0 26 2 2 3 -53 3 -55 0 -76 -1 -47 -3z"></path><path id="pibQNLBoz" d="M3579 13873 c-12 -16 -12 -16 1 -6 8 6 29 13 45 16 l30 4 -31 2 c-20 0 -37 -6 -45 -16z"></path><path id="p18c4empL2" d="M4208 13883 c23 -2 61 -2 85 0 23 2 4 4 -43 4 -47 0 -66 -2 -42 -4z"></path><path id="p1ExiZpZEH" d="M5163 13883 c126 -2 328 -2 450 0 122 1 20 2 -228 2 -247 0 -347 -1 -222 -2z"></path><path id="pjg9In4sP" d="M6017 13883 l23 -4 3 -627 2 -627 0 630 0 630 -25 2 c-22 1 -22 1 -3 -4z"></path><path id="pIpRcYbyh" d="M6148 13883 c23 -2 61 -2 85 0 23 2 4 4 -43 4 -47 0 -66 -2 -42 -4z"></path><path id="pQVA9CZkm" d="M7033 13883 c26 -2 67 -2 90 0 23 2 2 3 -48 3 -49 0 -68 -1 -42 -3z"></path><path id="p1AMqeMcLH" d="M7886 13882 c-3 -5 8 -6 25 -4 16 2 29 6 29 8 0 8 -49 4 -54 -4z"></path><path id="pwJopgM7U" d="M8063 13883 c26 -2 68 -2 95 0 26 2 4 3 -48 3 -52 0 -74 -1 -47 -3z"></path><path id="pE6Wx6C5G" d="M9998 13883 c23 -2 61 -2 85 0 23 2 4 4 -43 4 -47 0 -66 -2 -42 -4z"></path><path id="p19kkjmNqR" d="M4055 13370 c0 -278 1 -391 2 -252 2 138 2 366 0 505 -1 138 -2 25 -2 -253z"></path><path id="p17TQ7K0hc" d="M9845 13350 c0 -289 1 -407 2 -262 2 144 2 380 0 525 -1 144 -2 26 -2 -263z"></path><path id="ptjq9kdLK" d="M4215 13280 c0 -305 1 -430 2 -277 2 152 2 402 0 555 -1 152 -2 27 -2 -278z"></path><path id="pz1eN7A4J" d="M4985 13275 c0 -308 1 -435 2 -283 2 152 2 404 0 560 -1 156 -2 31 -2 -277z"></path><path id="psVr52upS" d="M10005 13280 c0 -305 1 -430 2 -277 2 152 2 402 0 555 -1 152 -2 27 -2 -278z"></path><path id="pWrDDb64z" d="M8808 13763 c12 -2 30 -2 40 0 9 3 -1 5 -23 4 -22 0 -30 -2 -17 -4z"></path><path id="pJ3ZvN3tB" d="M5238 13733 c100 -2 264 -2 365 0 100 1 18 2 -183 2 -201 0 -283 -1 -182 -2z"></path><path id="pW8gtTs2r" d="M11173 13713 c15 -2 39 -2 55 0 15 2 2 4 -28 4 -30 0 -43 -2 -27 -4z"></path><path id="ph4XUwOB8" d="M5107 13633 c-5 -7 268 -7 598 0 72 1 -33 4 -232 5 -199 1 -364 -1 -366 -5z"></path><path id="p6bD1tkxg" d="M8823 13593 c15 -2 37 -2 50 0 12 2 0 4 -28 4 -27 0 -38 -2 -22 -4z"></path><path id="ppZlv0PFu" d="M10834 13568 l-29 -33 33 29 c30 28 37 36 29 36 -2 0 -16 -15 -33 -32z"></path><path id="p13PweZX51" d="M11178 13593 c12 -2 32 -2 45 0 12 2 2 4 -23 4 -25 0 -35 -2 -22 -4z"></path><path id="pqxaDqsxw" d="M5103 13505 c0 -44 2 -61 4 -37 2 23 2 59 0 80 -2 20 -4 1 -4 -43z"></path><path id="p118ZjGi2K" d="M9225 13528 l-40 -43 43 40 c39 36 47 45 39 45 -2 0 -21 -19 -42 -42z"></path><path id="p2qNCrh07" d="M11450 13507 c0 -2 15 -16 33 -33 l32 -29 -29 33 c-28 30 -36 37 -36 29z"></path><path id="p1FxTOnmcr" d="M5100 13358 c0 -5 129 -7 288 -6 287 2 254 6 -101 10 -103 2 -187 0 -187 -4z"></path><path id="p13sO5PZc8" d="M1648 13333 c34 -2 90 -2 125 0 34 2 6 3 -63 3 -69 0 -97 -1 -62 -3z"></path><path id="p1GHH0pEO6" d="M2891 13313 c1 -23 2 -24 6 -6 4 20 11 22 81 26 l77 3 -82 2 -83 2 1 -27z"></path><path id="pafQ6fT43" d="M5674 13230 c0 -63 1 -89 3 -57 2 31 2 83 0 115 -2 31 -3 5 -3 -58z"></path><path id="pEFLCLec3" d="M7403 13333 c37 -2 96 -2 130 0 34 2 4 3 -68 3 -71 0 -99 -1 -62 -3z"></path><path id="puvN1KCNR" d="M10533 13230 c0 -47 2 -66 4 -42 2 23 2 61 0 85 -2 23 -4 4 -4 -43z"></path><path id="pgyErpZyO" d="M10773 13230 c0 -30 2 -43 4 -27 2 15 2 39 0 55 -2 15 -4 2 -4 -28z"></path><path id="pH3U0gB0Y" d="M8273 13235 c0 -22 2 -30 4 -17 2 12 2 30 0 40 -3 9 -5 -1 -4 -23z"></path><path id="pJZ4fHX90" d="M11863 13230 c0 -25 2 -35 4 -22 2 12 2 32 0 45 -2 12 -4 2 -4 -23z"></path><path id="px3r3ryqB" d="M6373 13213 c82 -2 212 -2 290 0 78 1 12 3 -148 3 -159 0 -223 -2 -142 -3z"></path><path id="pzBUQ1PWf" d="M5104 12950 c0 -58 1 -81 3 -52 2 28 2 76 0 105 -2 28 -3 5 -3 -53z"></path><path id="pKWYmip7Z" d="M3349 12803 l-34 -38 38 34 c20 19 37 36 37 38 0 8 -8 0 -41 -34z"></path><path id="pW6BitSCi" d="M3674 12695 c0 -71 1 -99 3 -62 2 37 2 96 0 130 -2 34 -3 4 -3 -68z"></path><path id="p170kFC5Eq" d="M8828 12813 c12 -2 30 -2 40 0 9 3 -1 5 -23 4 -22 0 -30 -2 -17 -4z"></path><path id="p6Svw9e2u" d="M5790 12797 c0 -15 -33 -17 -367 -20 l-368 -2 368 -3 c324 -2 368 0 374 13 3 9 3 19 -1 22 -3 4 -6 -1 -6 -10z"></path><path id="p1FF43peD1" d="M10079 12777 c4 -4 102 -6 217 -5 l209 3 -217 5 c-119 3 -214 2 -209 -3z"></path><path id="pMS2YvNao" d="M2843 12773 c37 -2 97 -2 135 0 37 2 6 3 -68 3 -74 0 -105 -1 -67 -3z"></path><path id="pxZrThAos" d="M3832 12773 c48 -2 129 -2 180 0 51 1 12 3 -87 3 -99 0 -141 -2 -93 -3z"></path><path id="p15q1IHzzy" d="M4393 12773 c59 -2 154 -2 210 0 56 1 8 3 -108 3 -115 0 -161 -2 -102 -3z"></path><path id="p4GQHIV0L" d="M6413 12773 c103 -2 271 -2 375 0 103 1 18 2 -188 2 -206 0 -291 -1 -187 -2z"></path><path id="pim50o8QQ" d="M9603 12773 c53 -2 141 -2 195 0 53 1 9 3 -98 3 -107 0 -151 -2 -97 -3z"></path><path id="pM8b0nKC" d="M5793 12665 c0 -27 2 -38 4 -22 2 15 2 37 0 50 -2 12 -4 0 -4 -28z"></path><path id="p2E006J6Y" d="M8808 12693 c23 -2 59 -2 80 0 20 2 1 4 -43 4 -44 0 -61 -2 -37 -4z"></path><path id="pG6vT6cwS" d="M11163 12693 c20 -2 54 -2 75 0 20 2 3 4 -38 4 -41 0 -58 -2 -37 -4z"></path><path id="ph4qiG13T" d="M2958 12673 c18 -2 45 -2 60 0 15 2 0 4 -33 4 -33 0 -45 -2 -27 -4z"></path><path id="pmHoBVbX" d="M7918 12113 c750 -2 1974 -2 2720 0 746 1 133 2 -1363 2 -1496 0 -2107 -1 -1357 -2z"></path><path id="poTkuDSR8" d="M10343 6043 c9 -2 25 -2 35 0 9 3 1 5 -18 5 -19 0 -27 -2 -17 -5z"></path><path id="pwVtlvjjT" d="M9885 5888 l-40 -43 43 40 c39 36 47 45 39 45 -2 0 -21 -19 -42 -42z"></path><path id="pZsJUnKtO" d="M11493 4940 c0 -30 2 -43 4 -27 2 15 2 39 0 55 -2 15 -4 2 -4 -28z"></path><path id="phcQyWICx" d="M10013 4953 c9 -2 25 -2 35 0 9 3 1 5 -18 5 -19 0 -27 -2 -17 -5z"></path><path id="poYSU6HQY" d="M11264 4540 c0 -146 2 -205 3 -132 2 72 2 192 0 265 -1 72 -3 13 -3 -133z"></path><path id="p5WIU21xJ" d="M11324 4405 c0 -82 2 -115 3 -72 2 43 2 110 0 150 -1 40 -3 5 -3 -78z"></path><path id="pX4djKYB0" d="M10723 4375 c0 -38 2 -53 4 -32 2 20 2 52 0 70 -2 17 -4 1 -4 -38z"></path><path id="pGoEICbmC" d="M11062 4174 c17 -5 18 -80 21 -1345 l2 -1339 0 1342 c0 1335 0 1343 -20 1345 -15 1 -16 1 -3 -3z"></path><path id="p5WTtNgJP" d="M11105 810 c0 -371 1 -523 2 -338 2 186 2 490 0 675 -1 186 -2 34 -2 -337z"></path><path id="pua12vlkl" d="M10725 790 c0 -344 1 -484 2 -312 2 171 2 453 0 625 -1 171 -2 31 -2 -313z"></path></g></g></svg>