<svg class="img-fluid" id="outputsvg" xmlns="http://www.w3.org/2000/svg" style="transform: none; transform-origin: 50% 50%; cursor: move;" width="764" height="764" viewBox="0 0 7640 7640"><g id="l1OZT2tAv4YtVtXqFv9bmks" fill="rgb(255,255,255)" style="transform: none;"><g style="transform: none;"><path id="p1HExSMXIo" d="M3850 7415 c-89 -54 -120 -71 -335 -187 -71 -39 -134 -74 -140 -78 -9 -7 -226 -125 -432 -236 -35 -19 -93 -50 -130 -70 -38 -20 -98 -54 -135 -75 -36 -22 -68 -39 -71 -39 -2 0 -57 -30 -123 -66 -65 -36 -162 -89 -214 -117 -52 -28 -169 -91 -260 -140 -91 -50 -206 -112 -256 -139 l-92 -48 -671 0 c-369 0 -671 -4 -671 -8 0 -4 14 -30 31 -58 18 -27 78 -134 134 -239 56 -104 114 -210 127 -235 14 -25 55 -101 93 -170 37 -69 91 -168 120 -220 29 -52 100 -183 158 -290 148 -276 169 -314 177 -325 4 -5 92 -165 195 -355 103 -190 199 -365 213 -390 13 -25 39 -72 57 -105 18 -33 63 -116 100 -185 38 -69 83 -152 100 -185 57 -106 242 -448 267 -495 48 -85 205 -375 253 -465 26 -49 51 -94 55 -100 4 -5 31 -55 60 -110 29 -55 56 -104 60 -110 4 -5 31 -55 60 -110 29 -55 90 -167 135 -250 45 -82 102 -188 127 -235 116 -220 172 -320 177 -320 3 0 13 12 22 28 9 15 35 59 58 99 l42 71 -72 134 c-39 73 -111 205 -159 293 -48 88 -123 225 -165 305 -43 80 -81 150 -85 155 -4 6 -87 156 -183 335 -96 179 -213 395 -259 480 -169 309 -224 410 -383 705 -89 165 -185 342 -214 394 -28 52 -51 95 -51 97 0 2 -40 74 -88 161 -49 87 -124 223 -167 303 -178 329 -368 676 -375 685 -22 28 -121 227 -118 235 3 9 132 -62 435 -241 241 -143 209 -106 378 -435 81 -159 194 -379 250 -489 56 -110 158 -308 225 -440 68 -132 148 -289 180 -350 135 -259 235 -454 338 -655 60 -118 132 -258 159 -310 28 -52 109 -210 180 -350 72 -140 144 -280 160 -310 17 -30 74 -140 128 -245 54 -104 116 -224 138 -265 76 -142 140 -266 228 -442 l89 -177 0 -263 0 -263 43 -77 43 -78 64 113 c35 61 71 123 81 137 9 14 27 45 40 70 29 53 119 207 199 340 32 52 110 185 175 295 65 110 152 256 193 325 41 69 83 139 92 155 31 54 831 1389 855 1425 19 30 352 585 541 903 34 56 105 174 159 262 53 88 107 178 120 200 12 22 61 103 107 180 123 202 517 855 538 890 9 17 48 82 86 145 38 63 71 120 73 125 2 6 21 36 43 67 21 31 38 59 38 61 0 6 59 104 82 136 9 13 15 28 12 33 -3 4 -247 8 -542 8 l-537 0 -265 143 c-465 252 -930 506 -1100 602 -192 108 -324 180 -487 266 -110 58 -330 179 -398 219 l-30 17 -85 -52z m112 -175 c39 -22 72 -40 74 -40 2 0 21 -10 42 -23 20 -13 82 -48 137 -77 120 -63 161 -86 240 -132 33 -19 89 -51 125 -70 36 -19 81 -44 100 -55 19 -11 76 -41 125 -68 50 -26 116 -63 148 -81 32 -19 60 -34 62 -34 2 0 26 -13 52 -28 26 -16 98 -55 158 -87 61 -32 169 -90 240 -129 72 -40 153 -84 180 -99 28 -15 74 -40 103 -54 28 -15 52 -31 52 -35 0 -4 -176 -8 -391 -8 l-391 0 -181 97 c-192 101 -641 348 -839 461 l-118 67 0 218 c0 119 3 217 6 217 4 0 38 -18 76 -40z m-252 -824 l0 -694 -32 -20 c-34 -20 -143 -77 -383 -202 -77 -40 -197 -103 -266 -141 -70 -38 -129 -69 -132 -69 -3 0 -131 71 -284 158 -153 87 -317 180 -365 206 -49 26 -88 51 -88 55 0 5 28 23 63 41 34 19 132 72 217 120 175 98 179 100 575 315 160 87 318 175 352 196 34 22 67 39 73 39 6 0 10 40 10 105 l0 105 -27 -11 c-15 -6 -32 -14 -38 -18 -13 -11 -187 -108 -350 -196 -33 -18 -123 -67 -201 -108 l-140 -77 -285 -1 c-356 -1 -330 -3 -301 21 13 10 71 45 130 76 59 31 166 89 237 129 72 40 166 92 210 116 271 147 337 183 488 264 93 50 246 134 340 187 95 53 178 97 185 97 9 1 12 -144 12 -693z m310 142 c36 -19 88 -49 115 -65 53 -32 305 -172 415 -231 36 -19 91 -50 123 -68 32 -19 60 -34 62 -34 3 0 18 -8 35 -19 l31 -19 -108 -60 c-59 -33 -175 -95 -258 -138 -82 -43 -212 -113 -287 -155 l-137 -78 -58 35 c-31 18 -60 34 -65 34 -4 0 -8 198 -8 440 l0 440 38 -23 c20 -13 66 -39 102 -59z m-2878 -525 c23 -28 172 -332 166 -339 -4 -3 -51 20 -105 51 -54 32 -114 67 -133 78 -19 11 -96 54 -170 95 -74 41 -148 84 -165 96 l-30 21 205 5 c113 3 208 7 211 8 3 1 13 -6 21 -15z m5763 -1 c0 -7 -83 -56 -185 -110 -102 -54 -247 -132 -322 -173 l-138 -74 0 -107 c0 -103 4 -119 26 -99 5 5 36 23 69 41 135 74 164 89 260 140 55 29 109 59 120 67 57 38 46 5 -44 -143 -44 -71 -114 -187 -156 -259 -43 -71 -94 -157 -115 -190 -43 -68 -284 -464 -310 -510 -9 -16 -69 -115 -132 -220 -63 -104 -123 -206 -135 -225 -11 -19 -60 -100 -108 -180 -48 -80 -95 -158 -105 -175 -21 -38 -272 -456 -459 -764 -77 -128 -141 -235 -141 -237 0 -1 -27 -46 -60 -99 -33 -53 -60 -98 -60 -100 0 -2 -58 -101 -130 -220 -71 -119 -130 -219 -130 -222 0 -2 -13 -24 -30 -48 -16 -24 -30 -46 -30 -49 0 -2 -23 -42 -52 -88 -28 -46 -72 -119 -98 -163 -26 -44 -89 -150 -140 -235 -51 -85 -101 -168 -110 -185 -10 -16 -55 -93 -101 -170 -45 -77 -106 -180 -134 -230 -29 -49 -57 -91 -64 -93 -8 -3 -11 34 -11 126 0 71 -1 337 -1 590 l-1 461 -51 63 c-28 35 -66 82 -84 106 l-33 44 0 -296 c0 -168 -4 -297 -9 -300 -10 -7 -78 121 -541 1024 -111 217 -217 422 -235 455 -35 64 -442 852 -620 1200 -59 116 -143 279 -187 362 -44 84 -78 157 -76 163 3 9 70 -29 356 -199 106 -63 419 -248 582 -344 47 -27 105 -61 130 -75 25 -14 62 -36 82 -49 21 -12 40 -23 43 -23 3 0 45 -24 93 -54 48 -29 141 -84 207 -121 66 -38 132 -77 148 -87 l27 -19 0 -380 c0 -275 -3 -379 -11 -379 -12 0 -238 129 -467 266 -68 41 -126 74 -130 74 -4 0 -25 12 -46 26 l-39 26 40 -73 c22 -41 59 -110 83 -154 23 -44 69 -127 100 -185 32 -58 74 -136 94 -175 19 -38 48 -92 64 -120 27 -48 75 -137 204 -380 32 -60 62 -113 66 -117 4 -4 31 36 59 90 l52 97 -36 65 c-20 36 -75 135 -122 220 -92 165 -124 230 -118 237 2 2 71 -37 153 -87 82 -49 154 -90 161 -90 7 0 24 5 38 12 l25 11 1 466 1 466 556 278 c306 153 636 318 732 367 96 49 178 90 183 90 16 0 5 -30 -34 -91 -23 -35 -143 -233 -267 -439 -123 -206 -237 -393 -253 -416 -32 -47 -105 -90 -449 -263 -187 -95 -316 -161 -433 -223 -17 -9 -16 -11 9 -31 15 -12 53 -38 83 -58 l56 -36 246 123 c135 68 249 124 252 124 18 0 -2 -40 -103 -205 -61 -99 -115 -189 -122 -200 -94 -158 -341 -575 -373 -632 l-18 -31 47 -62 c25 -35 51 -70 57 -79 8 -12 11 -13 16 -3 3 8 48 84 101 170 99 164 203 336 232 387 9 17 31 53 47 80 17 28 83 140 148 250 65 110 156 262 202 338 46 75 83 140 83 143 0 3 13 24 29 47 24 36 159 253 210 339 9 15 66 110 126 210 61 100 115 192 121 203 6 11 61 102 123 203 61 101 111 185 111 187 0 4 126 209 187 303 31 48 55 89 87 147 6 11 29 47 50 80 84 130 96 163 96 268 l0 96 -62 34 c-93 51 -360 191 -379 199 -11 4 -105 -41 -275 -131 -143 -75 -311 -165 -374 -198 -63 -33 -135 -72 -160 -87 -25 -14 -50 -26 -56 -26 -16 0 -498 267 -502 278 -1 5 68 47 155 92 183 96 231 122 483 256 l185 99 925 5 c509 3 930 5 935 4 6 0 10 -6 10 -12z m-4555 -2 c0 -5 -24 -22 -52 -36 -29 -15 -115 -62 -192 -106 l-138 -79 -67 38 c-36 21 -70 40 -76 42 -28 11 -215 124 -225 136 -11 13 36 15 369 15 243 0 381 -4 381 -10z m-573 -316 c103 -58 199 -113 213 -122 14 -8 47 -28 75 -42 64 -34 125 -69 250 -140 55 -32 136 -78 180 -102 146 -82 180 -100 238 -134 32 -19 60 -34 63 -34 2 0 33 -17 67 -38 67 -42 113 -68 222 -127 39 -21 102 -57 140 -80 39 -23 111 -63 160 -90 50 -26 101 -56 115 -65 14 -9 50 -31 80 -47 30 -17 107 -60 171 -97 65 -36 120 -66 123 -66 3 0 6 232 6 515 0 283 2 515 4 515 2 0 37 -19 78 -43 40 -24 114 -65 163 -92 50 -26 95 -51 100 -55 6 -4 42 -24 80 -45 88 -47 146 -79 315 -173 74 -41 178 -98 230 -127 52 -28 160 -88 240 -133 80 -44 158 -88 174 -97 17 -9 25 -19 20 -25 -12 -11 -137 -76 -614 -318 -217 -110 -483 -245 -591 -300 l-196 -101 -259 151 c-143 83 -299 174 -349 203 -160 93 -507 295 -630 368 -66 38 -129 75 -140 81 -11 6 -108 63 -215 127 -107 64 -243 144 -302 178 -58 34 -114 74 -124 89 -34 52 -292 572 -284 572 5 0 93 -48 197 -106z m3829 -187 c12 -6 45 -25 73 -40 29 -15 51 -33 49 -39 -2 -5 -78 -48 -168 -95 -90 -46 -234 -120 -318 -165 l-154 -81 -77 40 c-42 22 -76 46 -76 53 0 14 33 33 255 148 91 47 210 110 265 139 107 56 118 59 151 40z m-1896 -363 l0 -335 -62 34 c-35 18 -126 69 -203 111 -77 43 -189 106 -248 139 -59 33 -106 65 -104 71 2 6 109 65 238 131 128 67 259 135 289 152 97 56 90 80 90 -303z m2050 70 c0 -11 -23 -50 -103 -174 -44 -69 -90 -140 -101 -158 -26 -41 -39 -38 -160 29 -49 27 -93 49 -97 49 -5 0 -9 6 -9 13 0 15 21 27 240 139 96 49 179 93 185 99 10 10 45 13 45 3z"></path><path id="pg6YflDY" d="M4620 4958 c-58 -33 -202 -111 -320 -173 l-215 -113 -3 -101 c-1 -55 0 -101 3 -101 10 0 553 280 630 325 30 17 31 21 33 94 1 42 5 88 8 104 8 40 -14 34 -136 -35z"></path></g></g></svg>