<svg class="img-fluid" id="outputsvg" xmlns="http://www.w3.org/2000/svg" style="transform: matrix(1, 0, 0, 1, 0, 0); transform-origin: 50% 50%; cursor: move; transition: transform 200ms ease-in-out 0s;" width="1424" height="1424" viewBox="0 0 14240 14240"><g id="l2skmi772WCQyXse2uX6jaT" fill="rgb(0,0,0)" style="transform: none;"><g style="transform: none;"><path id="p11Z97WYGV" d="M4267 13554 c-4 -4 -7 -103 -7 -220 0 -263 -5 -255 139 -237 43 5 60 13 87 40 29 29 34 40 34 82 0 43 -4 53 -40 89 -45 45 -121 72 -146 51 -19 -15 -8 -29 22 -29 48 0 104 -41 118 -87 8 -27 -18 -89 -41 -98 -9 -3 -42 -8 -74 -12 l-57 -6 -4 206 c-3 192 -10 242 -31 221z"></path><path id="pFGT33kll" d="M4730 13331 l0 -229 23 -6 c33 -9 113 -7 140 3 13 5 38 24 56 42 31 31 33 36 29 89 -3 42 -11 65 -32 92 -26 35 -27 38 -12 66 8 16 50 62 93 101 77 71 77 71 44 71 -44 0 -91 -34 -146 -108 -26 -34 -50 -64 -53 -66 -4 -2 -28 -7 -54 -11 l-48 -7 0 73 c0 87 -7 119 -26 119 -12 0 -14 -41 -14 -229z m156 -10 c68 -41 70 -137 4 -173 -22 -11 -50 -18 -75 -16 l-40 3 -3 88 c-2 57 1 94 9 103 16 20 68 17 105 -5z"></path><path id="p1HjTCf3i3" d="M5345 13541 c-56 -25 -101 -81 -121 -146 -43 -151 59 -304 205 -305 188 -1 293 180 206 355 -25 49 -39 65 -80 87 -61 34 -148 38 -210 9z m168 -35 c47 -19 84 -68 98 -130 17 -78 5 -139 -37 -186 -46 -50 -81 -63 -156 -58 -58 4 -64 7 -99 46 -114 130 -44 342 114 342 26 0 62 -6 80 -14z"></path><path id="pRBUve0lb" d="M5904 13547 c-2 -7 -3 -111 -2 -232 l3 -220 105 1 c120 1 164 17 217 78 46 52 66 165 43 247 -13 48 -72 104 -128 123 -58 20 -230 22 -238 3z m253 -55 c89 -63 107 -191 40 -286 -39 -56 -191 -103 -232 -72 -18 13 -20 28 -23 186 -2 95 -1 179 2 187 10 26 173 14 213 -15z"></path><path id="pKGc3F5fF" d="M6592 13543 c-51 -25 -71 -62 -83 -155 -11 -82 -7 -283 5 -296 17 -16 24 31 28 177 4 141 7 162 27 194 25 40 63 57 131 57 59 0 96 -27 109 -78 5 -20 12 -102 16 -181 7 -149 11 -175 26 -165 5 3 9 83 9 177 0 194 -8 223 -69 264 -42 29 -147 32 -199 6z"></path><path id="pmNbhYDZv" d="M7247 13550 c-78 -25 -145 -113 -154 -203 -11 -103 42 -197 132 -238 69 -32 230 -19 243 19 3 11 -9 12 -64 6 -98 -11 -132 -7 -181 22 -111 65 -112 254 -1 330 38 27 51 29 152 34 100 5 109 6 87 19 -29 16 -175 24 -214 11z"></path><path id="pYjzgPs13" d="M7777 13554 c-4 -4 -7 -101 -7 -216 l0 -208 -75 0 c-57 0 -75 -3 -75 -14 0 -23 45 -27 197 -20 98 5 143 10 140 18 -2 6 -32 14 -67 18 -34 4 -64 8 -65 10 -2 2 -7 95 -11 207 -8 191 -15 227 -37 205z"></path><path id="pxKj6fn4r" d="M8146 13544 c-3 -9 -6 -107 -6 -218 0 -159 3 -206 14 -222 8 -10 17 -16 20 -13 9 9 20 411 12 442 -7 30 -30 36 -40 11z"></path><path id="pugmxVopQ" d="M8533 13538 c-96 -53 -138 -178 -101 -301 17 -55 82 -122 133 -136 49 -13 125 -14 159 -1 33 12 104 77 120 109 36 70 26 208 -19 267 -42 55 -89 77 -174 81 -65 4 -82 1 -118 -19z m201 -41 c56 -31 86 -92 86 -173 0 -106 -46 -168 -144 -195 -46 -12 -107 6 -156 48 -32 27 -60 103 -60 162 0 42 29 108 56 133 60 53 151 64 218 25z"></path><path id="pfb7aGrHe" d="M9107 13554 c-10 -11 -8 -452 2 -458 5 -3 85 79 177 183 l169 189 3 -181 c2 -180 11 -227 32 -173 12 33 13 415 1 435 -11 18 -35 -6 -201 -197 -73 -84 -135 -150 -139 -147 -3 4 -8 81 -11 171 -5 149 -14 196 -33 178z"></path><path id="p4dIa3nG3" d="M9737 13548 c-53 -19 -25 -33 60 -29 72 3 83 1 102 -18 20 -20 25 -38 22 -71 -1 -8 -45 -56 -98 -107 l-96 -91 5 -47 c8 -68 32 -88 110 -93 68 -4 122 10 115 31 -2 7 -17 11 -33 9 -107 -10 -144 5 -144 57 0 37 23 65 93 116 76 56 97 87 97 146 0 41 -4 51 -35 78 -33 28 -41 31 -103 30 -37 0 -80 -5 -95 -11z"></path><path id="pBKcFWaSj" d="M8277 12696 c-130 -47 -201 -170 -168 -292 15 -54 71 -127 114 -148 42 -19 191 -22 234 -4 l28 11 -45 8 c-25 4 -80 8 -122 8 l-76 1 -37 42 c-48 56 -72 137 -56 189 18 58 70 120 116 137 26 9 73 14 134 13 80 -1 92 1 82 13 -13 16 -94 36 -139 36 -15 -1 -44 -7 -65 -14z"></path><path id="p2GZB002E" d="M4903 12688 c-4 -7 -10 -104 -11 -215 l-4 -203 -75 0 c-55 0 -74 -3 -71 -12 3 -9 37 -14 109 -16 116 -4 232 5 224 17 -2 5 -32 11 -66 14 -33 3 -63 7 -65 10 -3 2 -8 95 -11 206 -3 111 -10 204 -14 207 -4 2 -11 -1 -16 -8z"></path><path id="pXrdscxmC" d="M5270 12469 c0 -214 1 -230 18 -227 14 3 17 17 20 101 l3 97 149 0 149 0 3 -97 c3 -105 21 -137 32 -57 10 74 7 360 -4 389 -19 49 -30 15 -30 -89 l0 -103 -141 -8 c-77 -4 -143 -5 -145 -2 -3 3 -8 40 -10 84 -7 115 -13 143 -29 143 -13 0 -15 -35 -15 -231z"></path><path id="pL0kyE7zx" d="M5912 12473 l3 -228 94 -3 c103 -3 131 2 113 20 -6 6 -44 13 -85 16 l-75 4 -6 37 c-3 20 -6 53 -6 74 l0 37 58 0 c31 0 67 3 80 6 43 12 21 24 -42 24 -88 0 -96 9 -96 115 l0 83 89 4 c156 6 133 38 -27 38 l-102 0 2 -227z"></path><path id="pWd6sOdq2" d="M6284 12686 c-5 -14 119 -328 158 -399 13 -23 29 -42 36 -42 11 0 80 141 98 199 4 12 26 67 50 122 49 112 53 134 26 134 -13 0 -27 -20 -48 -72 -35 -84 -51 -93 -153 -82 -77 7 -91 12 -91 30 0 7 -11 38 -24 69 -25 54 -42 68 -52 41z m255 -208 c-12 -45 -61 -159 -66 -155 -2 2 -21 45 -42 95 l-39 92 78 0 79 0 -10 -32z"></path><path id="pnLrhzmFn" d="M6946 12688 c-3 -7 -7 -100 -10 -207 -3 -106 -7 -196 -10 -199 -3 -2 -37 -7 -76 -10 -68 -5 -87 -13 -54 -26 9 -3 82 -6 164 -6 82 0 155 3 164 6 33 13 14 21 -54 26 -39 3 -73 8 -76 11 -4 3 -8 75 -10 159 -6 187 -12 258 -25 258 -5 0 -11 -6 -13 -12z"></path><path id="pXSuvd9uZ" d="M7325 12678 c-3 -13 -4 -115 -3 -228 l3 -205 65 -3 c87 -4 138 14 168 58 30 45 26 105 -12 154 -14 19 -26 41 -26 49 0 24 88 134 125 157 39 24 45 40 15 40 -38 0 -77 -29 -130 -95 -60 -76 -74 -85 -129 -85 l-41 0 0 68 c0 73 -7 112 -21 112 -5 0 -11 -10 -14 -22z m181 -234 c29 -36 31 -87 5 -130 -16 -26 -27 -32 -72 -38 -72 -10 -79 1 -79 117 l0 89 62 -4 c53 -4 64 -8 84 -34z"></path><path id="pMYcy2d52" d="M7836 12685 c-10 -27 -7 -419 4 -435 6 -10 12 -12 20 -4 15 15 9 446 -6 451 -6 2 -14 -3 -18 -12z"></path><path id="pWZBA89XF" d="M8635 12673 c3 -16 44 -118 90 -228 64 -153 88 -200 101 -200 19 0 30 22 140 293 54 132 62 162 46 162 -16 0 -40 -35 -65 -95 l-25 -60 -73 -3 c-108 -4 -116 0 -146 66 -26 59 -49 92 -66 92 -5 0 -6 -12 -2 -27z m218 -169 c20 -4 37 -11 37 -16 0 -5 -14 -45 -31 -89 l-31 -80 -19 38 c-30 58 -59 140 -52 147 8 8 47 8 96 0z"></path><path id="p1DS6FSSX5" d="M9222 12475 c4 -289 20 -306 30 -31 4 110 10 202 13 204 3 3 43 8 89 11 150 10 126 41 -32 41 l-102 0 2 -225z"></path><path id="pEljsZwkC" d="M8811 10940 c-88 -25 -122 -41 -179 -87 -106 -86 -157 -273 -117 -428 19 -72 47 -130 83 -169 53 -56 140 -113 211 -136 63 -20 85 -22 203 -18 95 4 149 10 188 24 l55 19 3 80 3 79 -63 -61 c-75 -71 -126 -99 -202 -111 -74 -12 -146 2 -220 41 -111 59 -151 146 -151 332 0 115 1 123 33 189 40 85 128 175 195 201 36 14 68 16 149 13 98 -3 107 -5 146 -34 41 -30 79 -75 103 -121 22 -42 32 -26 25 39 -12 102 -27 119 -127 142 -116 27 -253 29 -338 6z"></path><path id="p3FzgICeM" d="M6525 10936 c-34 -15 -65 -66 -120 -201 -46 -112 -79 -171 -108 -190 -12 -8 -55 -18 -96 -23 l-74 -9 7 186 c5 138 10 191 21 208 8 12 15 25 15 28 0 3 -45 5 -100 5 -55 0 -100 -4 -100 -8 0 -5 9 -17 20 -27 19 -17 20 -31 20 -379 0 -318 -2 -364 -16 -385 -25 -35 -6 -41 146 -41 229 0 329 29 371 110 21 39 25 113 8 157 -15 42 -68 93 -122 118 l-48 23 34 20 c50 29 80 73 136 201 54 122 89 176 122 186 16 5 18 10 8 21 -14 18 -84 18 -124 0z m-223 -467 c109 -28 151 -149 85 -249 -35 -51 -103 -83 -189 -88 l-68 -4 0 182 0 182 68 -7 c37 -4 84 -11 104 -16z"></path><path id="p18noBKca0" d="M11688 10935 c-31 -17 -51 -53 -113 -200 -77 -184 -108 -215 -221 -215 l-56 0 4 173 c2 146 6 177 21 200 10 15 15 32 12 37 -7 12 -185 14 -185 3 0 -5 7 -17 15 -27 13 -17 15 -79 15 -383 0 -356 0 -363 -21 -384 -17 -17 -19 -23 -8 -31 19 -12 354 -3 400 11 51 16 99 51 127 91 20 29 23 44 20 93 -6 75 -44 131 -116 170 -29 16 -52 32 -52 35 0 4 13 16 30 25 45 27 73 70 128 199 52 122 94 188 119 188 8 0 13 6 11 13 -7 18 -98 20 -130 2z m-213 -460 c11 -2 40 -21 63 -40 42 -36 42 -37 42 -105 0 -99 -17 -132 -87 -166 -41 -20 -77 -30 -125 -32 l-68 -4 0 179 0 180 78 -4 c42 -2 86 -6 97 -8z"></path><path id="petQzLdTo" d="M405 10930 c-3 -5 3 -15 15 -22 20 -13 20 -21 20 -384 0 -357 -1 -372 -20 -389 -11 -10 -17 -22 -14 -26 8 -13 181 -11 189 2 4 5 -1 19 -12 31 -17 18 -18 46 -21 352 -2 182 1 349 5 371 l9 40 114 3 c142 4 176 -5 229 -63 23 -25 44 -45 46 -45 3 0 5 32 5 70 l0 70 -279 0 c-170 0 -282 -4 -286 -10z"></path><path id="pSYM75Q1c" d="M1520 10925 c0 -8 13 -24 30 -36 31 -23 62 -88 165 -344 31 -77 62 -153 70 -170 33 -77 48 -125 55 -184 8 -64 16 -76 58 -87 33 -9 47 8 87 109 20 51 58 142 85 202 26 61 77 182 113 270 43 105 78 174 101 201 43 51 38 54 -76 54 l-80 0 6 -32 c4 -25 -6 -61 -43 -153 l-49 -120 -83 -3 c-46 -1 -122 1 -168 5 l-85 8 -39 100 c-37 97 -42 133 -22 178 6 15 0 17 -59 17 -51 0 -66 -3 -66 -15z m490 -335 c11 -7 12 -13 3 -32 -19 -39 -53 -118 -93 -216 -27 -69 -40 -90 -47 -80 -19 23 -45 81 -94 203 -48 119 -48 120 -26 127 34 10 240 9 257 -2z"></path><path id="p2tiBXsI0" d="M3718 10917 c22 -23 22 -27 22 -383 0 -338 -1 -361 -19 -388 -11 -17 -18 -33 -15 -38 9 -14 336 -9 420 7 131 25 222 91 284 205 34 64 34 66 34 190 0 103 -4 134 -21 177 -39 99 -94 156 -202 212 l-79 41 -223 0 -222 0 21 -23z m423 -23 c65 -19 121 -71 155 -141 21 -44 27 -77 31 -154 9 -164 -13 -235 -111 -353 -59 -72 -171 -116 -293 -116 l-63 0 1 338 c1 399 4 433 39 444 36 10 181 0 241 -18z"></path><path id="pCYKxT3aq" d="M5135 10905 l26 -35 -3 -348 c-3 -305 -5 -351 -20 -378 -10 -17 -14 -34 -11 -38 9 -8 178 -8 186 1 4 3 -2 16 -13 28 -20 21 -21 38 -27 378 l-6 356 27 35 27 36 -107 0 -106 0 27 -35z"></path><path id="p4I2Vuf0R" d="M7271 10931 c-11 -7 -11 -13 3 -32 14 -21 16 -66 16 -379 0 -313 -2 -358 -16 -379 -14 -19 -14 -25 -3 -32 8 -5 133 -8 279 -6 l265 2 3 80 3 79 -64 -61 c-73 -71 -92 -76 -247 -71 l-95 3 -3 167 -2 166 74 7 c113 11 219 -16 244 -61 18 -33 32 -3 32 69 0 99 -10 111 -54 68 l-35 -33 -137 -6 -137 -5 6 182 c4 99 11 190 17 201 14 26 65 34 181 27 84 -5 104 -10 139 -33 23 -15 55 -48 72 -72 41 -59 53 -45 43 52 l-7 76 -281 0 c-155 0 -288 -4 -296 -9z"></path><path id="ptE8dYf8S" d="M10110 10935 c0 -3 9 -18 20 -33 18 -25 20 -50 25 -337 4 -170 3 -337 -2 -370 -7 -53 -11 -60 -32 -63 -52 -8 -112 9 -149 41 -76 67 -72 67 -72 -7 l0 -66 308 2 307 3 3 69 3 70 -49 -46 c-51 -48 -99 -68 -164 -68 -36 0 -37 1 -44 48 -4 26 -4 193 0 372 6 302 8 327 26 352 11 15 20 30 20 33 0 3 -45 5 -100 5 -55 0 -100 -2 -100 -5z"></path><path id="pH7MGAGLp" d="M12430 10933 c0 -5 7 -17 15 -27 13 -17 15 -79 15 -383 0 -355 0 -363 -21 -384 -11 -11 -18 -23 -15 -27 4 -3 45 -8 92 -10 98 -5 119 4 88 39 -18 20 -19 40 -19 378 0 323 2 358 18 382 9 14 14 29 10 32 -9 10 -183 9 -183 0z"></path><path id="p6sVXdkDh" d="M13261 10931 c-11 -7 14 -59 125 -253 217 -381 294 -521 294 -536 0 -11 -24 -13 -127 -11 -118 4 -132 6 -175 31 -33 20 -52 41 -68 73 -32 67 -44 58 -37 -29 10 -117 -19 -106 282 -106 153 0 266 4 270 9 5 9 -12 45 -57 121 -12 19 -47 80 -78 135 -32 55 -108 188 -170 295 -156 269 -145 243 -112 253 15 4 79 5 142 1 149 -8 189 -25 232 -100 40 -72 53 -70 44 7 -3 34 -6 75 -6 90 l0 29 -272 0 c-150 0 -279 -4 -287 -9z"></path><path id="p1727ptOeq" d="M3962 9088 c-35 -17 -38 -51 -8 -100 14 -24 91 -113 172 -198 201 -212 323 -377 429 -582 25 -48 49 -89 54 -92 5 -3 19 -33 31 -66 12 -33 26 -60 31 -60 5 0 -3 30 -17 68 -14 37 -29 76 -31 87 -16 58 -182 393 -257 517 -85 140 -217 331 -266 384 -47 50 -92 64 -138 42z"></path><path id="p17zxTpTaY" d="M10105 9047 c-55 -59 -155 -197 -242 -333 -108 -172 -282 -541 -338 -719 -7 -23 -5 -19 117 205 141 260 218 367 398 555 228 239 220 229 220 279 0 51 -16 66 -71 66 -27 0 -43 -10 -84 -53z"></path><path id="pnX1vfsb7" d="M2850 9051 c0 -6 15 -11 33 -11 71 -1 236 -46 415 -114 59 -22 239 -131 282 -170 19 -18 67 -57 105 -88 117 -94 312 -285 409 -402 140 -170 208 -254 237 -294 14 -21 73 -103 130 -183 57 -81 132 -186 167 -235 34 -49 83 -116 108 -148 l46 -59 -33 7 c-19 4 -59 10 -89 14 -54 6 -54 7 -17 12 l39 5 -64 43 c-35 24 -78 54 -96 67 -114 82 -417 127 -619 91 -231 -40 -426 -175 -516 -357 -52 -106 -61 -159 -54 -326 6 -154 16 -195 35 -146 6 15 20 67 31 115 28 122 74 234 124 305 74 107 102 142 110 143 5 0 32 20 60 46 68 59 193 121 287 140 146 30 415 14 514 -32 l51 -23 -66 0 c-63 -1 -71 -4 -126 -45 -32 -23 -69 -56 -81 -72 -13 -16 -41 -53 -63 -82 -40 -53 -64 -71 -76 -58 -4 4 1 20 11 36 28 48 -4 70 -44 30 -26 -26 -26 -81 -2 -103 33 -30 126 -14 174 30 26 23 31 12 13 -30 -19 -47 -19 -137 1 -185 17 -43 67 -97 106 -118 37 -19 116 -18 158 4 50 25 71 68 71 147 0 48 -5 74 -18 93 l-18 27 -5 -87 c-5 -74 -9 -91 -29 -112 -34 -36 -79 -42 -135 -18 -60 27 -86 70 -86 142 1 108 56 195 148 236 73 32 116 38 187 25 129 -24 172 -54 400 -280 208 -207 339 -317 425 -361 25 -12 59 -32 75 -45 42 -32 253 -136 355 -175 122 -48 119 -53 -12 -15 -267 77 -531 197 -728 334 -36 24 -84 58 -108 74 -24 16 -46 27 -49 24 -7 -8 85 -103 141 -147 25 -19 45 -37 46 -40 0 -3 -10 -10 -22 -15 -51 -24 -50 -89 2 -100 18 -4 36 -2 44 4 16 14 26 4 26 -25 0 -26 34 -54 67 -54 27 0 43 27 43 71 0 32 0 32 20 14 18 -16 19 -20 5 -35 -21 -23 -19 -83 3 -103 20 -19 67 -23 77 -7 10 17 25 11 25 -9 0 -32 49 -63 87 -56 20 4 33 2 33 -5 0 -21 41 -50 70 -50 42 0 84 44 76 82 -5 26 -4 26 25 16 l30 -10 -20 -22 c-28 -30 -27 -71 4 -102 43 -43 100 -11 100 56 0 36 2 40 25 40 39 0 54 -14 34 -30 -52 -44 -31 -110 34 -110 21 0 43 5 50 12 15 15 16 63 1 90 -9 17 -8 19 8 14 10 -3 30 -8 46 -12 31 -7 32 -10 12 -30 -33 -34 -5 -94 44 -94 45 0 61 17 61 67 l0 46 32 -7 c41 -8 41 -8 26 -41 -11 -25 -10 -29 15 -51 16 -13 32 -24 37 -24 16 0 51 54 47 72 -4 15 1 18 29 18 31 0 34 -2 29 -23 -4 -16 1 -29 20 -47 l27 -25 23 28 c14 15 22 34 19 41 -9 25 64 28 565 29 522 0 592 -4 584 -32 -2 -9 7 -27 21 -40 l26 -24 26 23 c17 17 23 31 20 46 -5 19 -1 22 30 26 31 4 35 2 30 -16 -6 -24 8 -52 33 -66 14 -7 25 -5 45 11 22 18 26 26 20 54 -5 30 -4 33 25 37 30 4 31 3 31 -32 0 -68 52 -99 95 -56 28 28 31 47 13 76 -11 17 -10 22 2 30 8 5 24 10 35 10 18 0 20 -5 17 -44 -3 -36 0 -46 19 -60 30 -21 62 -20 81 2 20 22 32 63 22 71 -5 3 -14 16 -21 27 -11 20 -9 22 19 28 46 9 54 8 40 -6 -19 -19 -14 -44 14 -77 30 -36 56 -39 84 -11 27 27 26 74 -2 99 l-21 21 34 14 c42 18 49 14 49 -29 0 -70 106 -93 131 -28 8 21 13 23 43 18 28 -6 39 -2 68 24 20 17 47 31 61 31 28 0 67 41 67 70 0 9 -9 25 -20 35 -23 21 -26 35 -7 35 7 0 18 -13 24 -30 16 -44 59 -51 90 -16 29 34 29 50 1 76 -23 21 -23 21 -3 36 19 14 20 13 23 -10 4 -28 36 -56 64 -56 10 0 25 12 35 26 16 24 16 28 -2 59 -16 32 -16 65 2 65 4 0 16 -14 25 -30 22 -39 61 -41 84 -5 16 25 16 27 -12 56 l-28 29 49 50 c27 27 46 52 43 56 -9 8 -41 -10 -133 -76 -67 -48 -159 -105 -288 -177 -121 -68 -591 -234 -571 -202 3 5 29 16 58 24 66 19 357 164 411 204 22 16 54 37 70 46 85 43 254 187 420 356 169 173 186 187 269 228 83 42 95 45 170 45 97 0 150 -20 213 -82 58 -57 74 -93 75 -167 1 -53 -3 -71 -25 -103 -49 -75 -150 -90 -203 -30 -16 17 -19 35 -18 104 1 90 -5 98 -40 51 -43 -58 -11 -186 57 -227 38 -23 112 -26 160 -7 45 19 105 89 113 131 3 20 5 71 3 114 l-4 79 40 -18 c101 -46 175 -6 140 77 -15 37 -35 50 -61 40 -15 -6 -15 -8 0 -31 9 -13 16 -32 16 -40 0 -33 -36 -8 -87 60 -93 125 -173 185 -247 185 -59 0 -48 16 27 40 53 16 107 23 204 27 219 9 348 -19 474 -103 91 -60 231 -202 259 -262 45 -94 83 -197 105 -286 27 -106 34 -126 45 -126 21 0 28 247 9 360 -27 167 -179 344 -368 427 -265 118 -668 85 -861 -70 -25 -20 -58 -47 -75 -60 -44 -35 -73 -49 -98 -45 -21 3 -21 4 11 38 18 19 67 85 109 145 42 61 112 162 156 225 44 63 119 165 167 225 48 61 100 128 116 150 121 168 521 559 669 653 22 14 45 31 50 36 23 24 174 104 257 136 75 29 285 80 331 80 23 0 36 4 32 10 -9 15 -186 12 -295 -5 -139 -21 -261 -59 -385 -121 -107 -53 -126 -65 -237 -150 -68 -53 -308 -301 -382 -396 -31 -40 -121 -163 -201 -273 -80 -110 -159 -217 -175 -237 -17 -20 -30 -41 -30 -47 0 -5 -6 -14 -14 -18 -7 -4 -50 -60 -96 -123 -45 -63 -92 -126 -104 -140 -12 -14 -35 -44 -50 -67 -87 -131 -270 -337 -419 -474 -66 -61 -89 -79 -56 -43 99 104 148 173 203 282 61 122 89 204 110 314 8 42 22 88 31 102 21 32 37 198 29 291 -14 156 -39 247 -109 389 -37 76 -73 140 -81 143 -8 3 -14 9 -14 14 0 20 -96 130 -153 176 -109 87 -158 107 -211 87 -32 -12 -18 -52 27 -81 127 -80 294 -244 375 -368 91 -139 133 -306 130 -514 -1 -64 -3 -96 -5 -71 -12 174 -46 323 -101 450 -38 88 -150 246 -200 283 -17 12 -51 37 -77 55 -25 18 -60 38 -78 44 -17 5 -48 17 -67 26 -46 22 -300 30 -380 12 -74 -17 -196 -64 -245 -96 -22 -14 -31 -23 -20 -19 138 44 216 57 340 58 154 0 223 -15 344 -74 157 -77 267 -220 334 -434 49 -156 60 -367 28 -520 -17 -79 -95 -275 -105 -264 -2 2 7 45 22 94 23 82 26 107 26 270 0 177 0 181 -32 278 -65 192 -172 328 -332 419 -108 61 -261 98 -411 98 -74 0 -78 -4 -55 -48 24 -46 77 -88 205 -163 215 -125 285 -174 363 -258 73 -77 117 -146 148 -226 34 -89 39 -265 11 -401 -35 -168 -48 -198 -117 -272 -36 -38 -63 -60 -64 -52 0 9 22 39 50 68 73 77 83 101 78 191 -6 94 -26 135 -112 229 -35 39 -69 80 -76 91 -15 30 -2 48 17 22 16 -24 48 -28 57 -6 9 24 -41 75 -74 75 -66 0 -90 -90 -46 -172 18 -33 20 -45 10 -45 -8 0 -14 4 -14 8 0 13 -100 39 -152 39 -62 0 -106 -19 -150 -64 -87 -90 -67 -232 38 -266 71 -24 177 -9 158 21 -3 5 -29 9 -58 9 -61 0 -113 28 -134 73 -18 38 -1 86 47 138 33 34 44 39 83 39 111 0 213 -71 242 -169 34 -115 8 -230 -79 -346 -25 -33 -45 -63 -45 -67 0 -5 -4 -8 -9 -8 -6 0 -29 -13 -53 -29 -24 -16 -111 -65 -195 -110 -276 -147 -455 -218 -708 -279 -286 -69 -505 -92 -690 -73 -423 45 -747 148 -1150 364 -200 107 -278 176 -330 288 -54 120 -53 222 5 313 53 83 166 132 244 106 42 -14 92 -67 100 -105 15 -83 -44 -135 -154 -135 l-65 -1 24 -19 c18 -15 38 -20 86 -20 72 0 116 23 148 78 51 87 -10 216 -119 252 -45 15 -156 8 -208 -14 l-36 -15 15 30 c11 20 15 51 13 97 l-3 67 -39 10 c-36 9 -40 7 -68 -24 -16 -18 -27 -38 -25 -44 6 -19 39 -21 49 -3 11 20 38 21 38 2 0 -7 -32 -49 -71 -92 -103 -115 -122 -151 -127 -244 -5 -90 6 -119 73 -186 47 -47 72 -84 56 -84 -11 0 -85 82 -116 130 -31 46 -73 218 -81 328 -13 180 26 312 135 453 50 65 141 145 216 189 22 14 46 30 53 37 8 8 28 21 45 29 82 42 206 122 245 158 38 36 72 83 72 101 0 3 -47 5 -105 5 -125 0 -219 -23 -345 -83 -71 -34 -101 -56 -183 -139 -85 -85 -104 -110 -142 -190 -60 -127 -79 -214 -79 -368 0 -139 15 -240 50 -342 12 -37 21 -68 18 -68 -12 0 -96 194 -113 263 -59 230 -25 496 92 722 88 169 192 254 382 311 77 23 108 27 220 27 114 0 144 -4 243 -30 61 -16 112 -27 112 -24 0 12 -67 44 -165 79 -94 33 -109 36 -255 40 -140 4 -161 2 -230 -19 -212 -66 -396 -271 -474 -531 -55 -182 -59 -454 -11 -608 57 -177 131 -311 239 -429 36 -39 66 -74 66 -77 0 -13 -205 183 -259 247 -125 148 -207 249 -231 284 -14 20 -51 70 -82 111 -32 40 -58 78 -58 82 0 5 -29 43 -65 85 -36 42 -65 79 -65 83 0 3 -55 81 -122 172 -68 91 -130 176 -138 188 -168 247 -437 536 -599 643 -232 154 -430 219 -688 228 -111 4 -153 3 -153 -6z m1605 -1720 c-22 -10 -56 -31 -75 -47 -19 -16 -28 -20 -20 -10 20 26 100 76 119 76 9 0 -2 -9 -24 -19z m950 -81 c-7 -25 -14 -38 -14 -29 -1 18 20 82 25 77 2 -2 -3 -24 -11 -48z m-85 -640 c0 -6 -9 -10 -20 -10 -11 0 -23 0 -27 -1 -3 0 -12 13 -19 30 l-13 31 40 -20 c21 -11 39 -25 39 -30z m201 -123 c-13 -13 -26 -3 -16 12 3 6 11 8 17 5 6 -4 6 -10 -1 -17z m3060 -40 c-13 -13 -26 -3 -16 12 3 6 11 8 17 5 6 -4 6 -10 -1 -17z"></path><path id="pr5nc1fkj" d="M5325 8709 c-178 -124 -324 -352 -387 -605 -34 -138 -29 -439 8 -451 5 -2 8 39 6 103 -6 189 38 392 112 522 66 116 313 359 410 403 30 14 37 63 10 73 -43 17 -90 3 -159 -45z"></path><path id="pbwOLXrhl" d="M4688 8673 c-26 -59 -35 -157 -18 -209 15 -46 53 -99 81 -115 52 -27 103 93 80 186 -20 78 -85 185 -112 185 -6 0 -19 -21 -31 -47z"></path><path id="p10MT2eu77" d="M9442 8685 c-54 -66 -76 -124 -77 -196 0 -68 24 -133 54 -144 19 -7 59 22 88 63 26 40 37 130 24 199 -11 57 -36 113 -51 113 -4 0 -22 -16 -38 -35z"></path><path id="pdmQ1EsD7" d="M9384 8299 c-15 -29 -19 -75 -25 -295 -5 -170 -13 -291 -24 -348 -9 -49 -14 -90 -11 -93 8 -9 35 54 61 144 33 112 55 255 55 359 0 91 -18 245 -30 258 -5 4 -16 -7 -26 -25z"></path><path id="p8kx9lOqv" d="M4776 8273 c-4 -27 -9 -104 -13 -173 -5 -105 -2 -144 16 -239 25 -128 63 -257 85 -286 19 -25 19 -17 0 80 -10 52 -18 174 -23 347 -6 225 -10 270 -25 292 -24 37 -32 32 -40 -21z"></path><path id="p13f6bAaMK" d="M3431 8180 c-25 -5 -52 -16 -60 -25 -14 -13 -10 -21 37 -68 29 -29 83 -69 120 -88 60 -31 75 -34 149 -34 67 0 86 4 110 21 15 12 29 30 31 40 5 31 -50 97 -107 127 -44 24 -66 29 -144 32 -51 2 -112 0 -136 -5z"></path><path id="p1EsysolGp" d="M10543 8176 c-61 -20 -107 -51 -137 -95 -33 -47 -31 -66 7 -95 24 -17 43 -21 110 -21 70 0 90 4 138 28 31 15 82 51 113 79 71 63 73 87 6 105 -60 15 -185 15 -237 -1z"></path><path id="ppG6YNFDF" d="M3870 7995 c0 -2 73 -40 163 -84 89 -44 213 -114 276 -155 63 -42 117 -76 120 -76 3 0 18 -13 33 -29 33 -33 75 -57 84 -48 10 9 -40 73 -116 147 -111 109 -271 192 -446 230 -98 21 -114 23 -114 15z"></path><path id="p2D6s7Gth" d="M10241 7989 c-135 -26 -300 -101 -420 -189 -41 -31 -171 -180 -171 -197 0 -22 17 -14 77 36 121 101 377 253 522 311 30 11 63 27 75 35 20 15 20 15 -9 14 -17 -1 -50 -5 -74 -10z"></path><path id="p1BXaNuETb" d="M7007 7700 c-3 -8 -8 -37 -11 -64 -3 -28 -27 -100 -52 -160 -72 -172 -83 -221 -83 -377 -1 -75 -4 -138 -7 -142 -3 -3 -29 3 -58 13 -116 43 -262 68 -506 87 l-75 5 63 -63 c79 -78 143 -175 232 -349 92 -182 155 -240 259 -240 82 0 246 73 246 109 0 9 -26 21 -67 32 -71 20 -127 52 -159 93 -28 36 -23 40 15 11 47 -35 125 -64 195 -71 54 -6 58 -5 74 20 26 40 47 133 47 211 -1 68 -14 197 -25 240 -5 15 -3 14 9 -5 8 -14 23 -58 32 -99 16 -70 16 -129 1 -326 -2 -30 -1 -30 54 -33 65 -3 155 26 196 64 42 39 40 28 -2 -16 -45 -46 -108 -80 -151 -80 -16 0 -36 -5 -44 -10 -25 -16 0 -42 81 -83 83 -43 164 -57 221 -38 71 23 151 130 227 301 41 94 121 201 200 270 34 29 61 59 61 66 0 18 -41 18 -128 -1 -39 -8 -124 -19 -189 -24 -133 -11 -214 -34 -310 -87 l-63 -35 0 114 c0 167 -36 267 -162 453 -42 62 -64 105 -105 204 -8 18 -12 21 -16 10z"></path><path id="pPn3UfEeQ" d="M5066 6731 c-22 -24 -15 -65 14 -81 15 -8 25 -5 47 14 27 24 27 26 13 53 -19 35 -50 40 -74 14z"></path><path id="p7ZX9QhRo" d="M5693 5633 c-75 -6 -68 -30 15 -53 84 -22 82 -14 82 -322 1 -960 6 -902 -71 -914 -41 -7 -89 -37 -77 -49 10 -11 378 -18 438 -8 72 11 73 32 3 53 -95 28 -88 -19 -91 568 -2 284 0 545 3 580 10 91 25 98 216 95 120 -2 157 -6 202 -23 93 -35 119 -76 159 -255 9 -40 18 -61 29 -63 9 -2 19 3 22 11 3 8 7 97 8 198 l3 184 -444 1 c-245 0 -469 -1 -497 -3z"></path><path id="pQftCwkwb" d="M7363 5633 c-55 -7 -38 -32 34 -54 76 -22 74 -15 85 -331 11 -302 4 -743 -12 -830 -12 -60 -24 -73 -79 -82 -39 -6 -70 -30 -57 -44 4 -4 159 -7 344 -7 320 1 341 2 417 23 220 63 351 194 412 412 22 80 25 332 4 425 -16 74 -77 203 -128 270 -22 27 -71 71 -110 97 -163 108 -267 129 -627 126 -138 0 -266 -3 -283 -5z m628 -59 c129 -39 215 -108 270 -220 44 -88 61 -200 61 -394 0 -270 -32 -389 -134 -496 -88 -93 -198 -133 -365 -134 -73 0 -85 3 -112 26 l-31 26 0 583 0 583 33 21 c27 17 48 21 128 21 59 0 116 -6 150 -16z"></path><path id="poLARUkmd" d="M6290 3553 c-13 -17 -19 -35 -16 -49 6 -23 -9 -34 -45 -34 -15 0 -17 5 -12 30 8 41 -19 70 -63 70 -54 0 -72 -55 -32 -97 20 -22 21 -23 2 -23 -10 0 -29 -3 -41 -6 -21 -6 -23 -3 -23 39 0 36 -5 49 -22 61 -63 45 -126 -24 -87 -96 13 -23 12 -24 -24 -33 -26 -7 -27 -6 -27 37 0 52 -13 68 -55 68 -60 0 -87 -70 -44 -116 l20 -22 -30 -10 c-31 -11 -31 -11 -31 24 0 61 -66 102 -115 70 -14 -9 -25 -25 -25 -36 0 -18 -5 -20 -40 -14 -48 8 -80 -14 -80 -54 0 -19 -4 -23 -17 -17 -66 28 -113 12 -113 -39 0 -34 -1 -34 -29 -23 -38 14 -81 -3 -81 -33 0 -30 18 -60 42 -69 19 -7 18 -9 -13 -29 l-34 -21 -3 35 c-2 26 -9 37 -28 44 -36 14 -74 -4 -74 -35 0 -25 31 -65 50 -65 19 0 10 -15 -17 -32 -28 -17 -28 -17 -43 15 -18 38 -49 46 -74 18 -25 -27 -14 -69 19 -77 14 -3 25 -9 25 -12 0 -4 -21 -28 -47 -54 -26 -26 -44 -50 -41 -53 3 -3 61 32 129 78 172 115 281 175 446 246 135 57 379 138 389 129 2 -3 -29 -17 -68 -33 -165 -63 -366 -177 -588 -332 -104 -72 -267 -229 -360 -346 -47 -59 -152 -134 -231 -164 -59 -22 -200 -21 -254 1 -62 26 -101 62 -129 118 -67 135 1 288 123 275 71 -8 93 -38 99 -136 2 -45 9 -81 14 -81 28 0 38 136 14 194 -28 68 -99 98 -184 76 -102 -25 -152 -99 -152 -222 1 -44 6 -83 15 -98 26 -45 16 -50 -31 -15 -39 30 -53 35 -99 35 -44 0 -57 -4 -69 -22 -23 -32 -20 -65 9 -94 41 -41 60 -21 39 45 -14 45 28 18 83 -54 105 -137 165 -182 256 -194 l52 -7 -80 -22 c-229 -63 -493 -39 -662 58 -51 29 -253 214 -253 231 0 5 -14 30 -30 56 -39 62 -83 176 -110 288 -34 140 -46 141 -61 7 -16 -142 1 -272 48 -369 51 -106 193 -248 299 -299 129 -62 207 -77 394 -78 246 0 371 34 499 137 112 90 182 129 195 108 5 -7 -48 -83 -194 -281 -38 -51 -89 -124 -172 -243 -94 -138 -362 -460 -478 -577 -226 -227 -414 -370 -605 -461 -125 -60 -209 -86 -360 -115 -49 -9 -94 -21 -100 -25 -16 -15 227 -10 321 6 178 31 349 103 507 212 111 76 325 289 456 453 59 74 116 149 127 165 10 17 43 62 74 102 30 40 82 110 115 155 32 46 103 142 157 215 54 72 98 136 98 141 0 5 12 19 26 33 14 13 42 49 63 79 20 30 46 66 58 80 11 14 58 70 103 125 93 112 245 271 275 287 19 10 19 10 6 -8 -8 -10 -27 -32 -41 -49 -68 -77 -137 -207 -187 -352 l-38 -108 1 -205 c0 -184 2 -212 22 -270 12 -36 22 -72 22 -82 0 -27 97 -213 139 -265 21 -27 40 -54 42 -60 9 -24 137 -117 205 -148 188 -87 439 -80 641 17 94 46 92 62 -4 32 -46 -15 -129 -30 -200 -36 -117 -11 -124 -11 -225 15 -145 36 -202 65 -288 142 -131 117 -182 206 -235 410 -21 83 -26 124 -28 259 -1 142 1 170 21 240 22 75 99 252 107 244 2 -2 -7 -38 -20 -81 -46 -143 -55 -397 -19 -534 7 -29 34 -96 60 -149 38 -80 60 -112 132 -186 90 -94 162 -142 268 -179 87 -30 196 -49 285 -49 71 0 79 2 79 19 0 21 -31 81 -42 81 -4 0 -13 6 -21 14 -18 18 -109 76 -178 114 -250 135 -420 300 -487 471 -23 60 -25 79 -25 206 0 231 40 370 135 469 71 76 76 62 6 -19 -64 -75 -78 -108 -78 -188 0 -82 27 -136 125 -247 68 -78 88 -110 67 -110 -5 0 -17 7 -28 15 -51 38 -75 -5 -28 -51 27 -28 63 -27 97 3 24 23 23 107 -3 158 -11 21 -18 40 -16 42 1 2 14 -6 28 -16 29 -23 95 -40 156 -41 87 0 160 51 192 137 20 53 20 58 5 97 -22 54 -41 75 -90 97 -49 23 -94 24 -143 4 -47 -20 -29 -35 46 -35 67 0 105 -19 126 -64 22 -46 9 -100 -34 -141 -58 -55 -188 -44 -262 23 -96 86 -112 236 -40 377 40 80 142 172 267 241 425 235 725 338 1137 389 164 20 296 19 455 -5 403 -60 656 -145 1027 -344 143 -77 179 -102 241 -164 82 -80 120 -146 137 -238 22 -118 -19 -225 -106 -279 -40 -24 -62 -30 -123 -34 l-74 -3 -39 41 c-33 35 -40 49 -40 82 0 46 22 94 49 109 11 5 47 10 80 10 33 0 62 4 65 9 20 32 -102 53 -156 27 -62 -30 -91 -69 -96 -130 -6 -78 23 -133 94 -176 51 -31 59 -32 124 -28 46 4 87 14 119 30 l49 24 -21 -40 c-25 -48 -29 -144 -8 -170 20 -24 65 -20 95 10 44 45 28 85 -20 49 -23 -17 -44 -19 -44 -4 0 6 26 38 59 72 117 124 160 216 148 318 -6 51 -47 122 -90 156 -24 19 -42 53 -28 53 16 0 102 -101 118 -138 55 -128 87 -376 64 -497 -6 -33 -30 -98 -52 -145 -35 -69 -59 -102 -133 -175 -79 -79 -264 -215 -315 -233 -30 -10 -191 -114 -191 -123 0 -5 -6 -9 -13 -9 -14 0 -47 -60 -47 -87 0 -25 222 -13 310 17 144 47 221 94 318 194 78 79 99 107 137 188 66 140 78 203 78 398 -1 167 -5 191 -58 355 -4 11 10 -7 29 -40 122 -203 137 -507 39 -795 -85 -253 -224 -379 -495 -450 -82 -21 -94 -22 -215 -12 -72 7 -156 20 -193 32 -99 32 -104 18 -10 -28 58 -28 121 -48 198 -63 104 -21 123 -22 215 -11 197 22 281 64 416 208 93 100 160 224 207 384 26 89 28 106 28 290 0 177 -2 202 -23 270 -60 192 -138 330 -265 470 l-41 45 45 -40 c134 -119 304 -299 374 -396 22 -31 174 -237 216 -294 14 -18 65 -89 115 -157 49 -67 99 -135 110 -150 11 -15 57 -78 101 -140 45 -62 91 -122 103 -132 11 -11 21 -23 21 -28 0 -5 33 -52 74 -106 95 -124 338 -366 443 -441 159 -114 347 -194 527 -226 92 -16 316 -21 316 -7 0 4 -51 18 -112 30 -163 31 -261 64 -363 123 -262 150 -490 350 -795 699 -30 35 -68 82 -85 105 -16 23 -57 75 -90 116 -62 78 -98 127 -267 369 -56 80 -113 159 -127 177 -14 18 -37 46 -50 63 l-23 31 28 -7 c36 -8 64 -27 214 -141 95 -73 239 -106 455 -106 178 0 261 16 379 73 128 61 256 181 310 292 51 104 71 239 56 368 -10 93 -21 123 -34 101 -4 -6 -23 -66 -42 -134 -60 -212 -137 -341 -276 -458 -84 -70 -161 -111 -263 -141 -70 -20 -101 -23 -250 -22 -156 0 -176 2 -245 26 -66 23 -71 26 -40 27 79 3 180 78 270 202 28 38 57 69 65 69 17 0 20 -25 5 -35 -5 -3 -10 -17 -10 -31 0 -31 33 -33 54 -2 21 30 21 104 0 112 -45 17 -125 1 -168 -33 -18 -15 -19 -15 -11 4 5 11 10 59 13 107 5 99 -7 127 -77 191 -142 128 -351 -50 -253 -215 20 -34 44 -37 38 -5 -21 101 -11 146 39 185 56 44 148 14 184 -61 59 -122 -22 -281 -166 -323 -111 -32 -251 -1 -361 81 -29 22 -88 81 -131 131 -71 83 -202 208 -270 258 -14 11 -43 35 -64 54 -35 30 -163 118 -242 165 -55 33 -259 129 -345 163 -115 45 -84 43 76 -6 188 -58 416 -154 501 -212 23 -15 44 -28 48 -28 5 0 88 -54 228 -149 27 -18 50 -31 53 -28 2 2 -16 27 -42 55 l-46 52 21 26 c26 33 26 46 1 69 -19 17 -70 15 -70 -3 -1 -18 -18 -32 -33 -26 -15 5 -15 9 -2 34 19 37 19 74 0 90 -21 17 -69 -3 -83 -36 -12 -26 -27 -31 -37 -13 -4 6 2 21 14 33 23 25 28 65 9 84 -15 15 -60 16 -75 1 -16 -16 -33 -2 -33 26 0 26 -33 55 -63 55 -11 0 -35 14 -55 31 -26 23 -42 30 -64 27 -23 -4 -36 2 -63 29 -56 56 -115 34 -115 -44 0 -36 -15 -42 -52 -22 -15 8 -17 13 -9 19 7 4 15 25 18 47 7 51 -14 73 -67 73 -45 0 -60 -18 -60 -73 0 -31 -2 -34 -26 -29 -21 4 -24 9 -19 26 24 75 8 116 -45 116 -38 0 -60 -29 -60 -78 0 -41 -1 -42 -27 -36 -37 9 -39 12 -25 34 28 45 0 90 -54 90 -40 0 -54 -16 -54 -63 0 -32 -3 -38 -16 -33 -9 3 -23 6 -31 6 -11 0 -14 7 -9 23 7 29 -18 67 -45 67 -40 0 -62 -20 -55 -51 6 -33 -5 -43 -40 -35 -19 5 -24 13 -24 36 0 18 -8 34 -21 43 -18 13 -24 13 -49 -1 -22 -13 -28 -22 -24 -38 5 -17 0 -22 -27 -28 -40 -8 -1066 -8 -1097 0 -15 5 -21 12 -17 23 3 11 -4 26 -19 40 -20 18 -28 21 -44 12 -26 -14 -37 -48 -22 -66 10 -13 8 -15 -13 -15 -14 0 -32 -3 -41 -6 -13 -5 -16 2 -16 35 0 30 -5 43 -19 51 -29 15 -37 13 -61 -17z m-768 -268 c0 -5 -5 -11 -11 -13 -6 -2 -11 4 -11 13 0 9 5 15 11 13 6 -2 11 -8 11 -13z m-118 -54 c3 -5 -1 -11 -9 -15 -15 -6 -29 7 -18 18 9 9 21 8 27 -3z m-944 -785 c30 -14 49 -26 42 -26 -21 0 -107 47 -122 67 -14 17 -14 17 5 1 11 -9 45 -28 75 -42z"></path><path id="pu3IXJ2z2" d="M6930 3003 c-33 -6 -138 -42 -170 -58 -79 -41 -200 -159 -226 -221 -7 -17 -20 -36 -28 -44 -9 -7 -16 -22 -16 -34 0 -11 -12 -55 -26 -96 -23 -70 -34 -91 -104 -195 -43 -66 -57 -173 -27 -218 17 -27 51 -42 210 -92 123 -39 248 -95 330 -147 29 -19 67 -33 99 -37 l52 -6 23 -60 c28 -72 43 -162 43 -267 0 -42 5 -80 10 -83 6 -3 10 -14 10 -24 0 -9 17 -37 37 -60 36 -43 37 -43 88 -37 28 3 82 17 120 30 85 30 242 60 392 76 62 7 121 18 130 25 28 21 25 195 -5 300 -13 44 -27 127 -32 185 -14 171 -46 237 -172 355 -57 54 -105 89 -153 111 -74 36 -159 56 -192 48 -18 -5 -21 1 -27 78 -17 204 -91 373 -195 447 -27 19 -124 33 -171 24z m0 -207 c30 -19 83 -45 118 -57 66 -22 102 -48 102 -73 0 -27 -81 -86 -119 -88 -129 -6 -196 29 -235 124 -17 39 -22 119 -8 132 16 17 89 -3 142 -38z m-250 -431 c9 -23 2 -72 -11 -80 -4 -3 -17 5 -29 17 -35 37 -110 139 -110 150 0 17 141 -65 150 -87z m313 -116 c32 -7 60 -16 63 -21 10 -16 -176 -82 -190 -67 -8 8 15 93 27 101 7 4 19 6 27 3 8 -2 41 -9 73 -16z m505 -20 c50 -25 68 -40 96 -86 20 -31 34 -58 32 -60 -1 -2 -23 5 -47 16 -61 27 -145 35 -211 22 -43 -9 -67 -23 -118 -68 -60 -52 -65 -55 -68 -33 -6 35 16 107 44 150 32 48 111 90 169 90 27 0 64 -11 103 -31z m272 -479 c0 -5 -14 -25 -31 -45 -24 -27 -39 -35 -64 -35 -35 0 -86 35 -106 72 -10 19 -8 20 53 14 35 -3 79 -2 98 2 37 9 50 7 50 -8z m-400 -62 c0 -30 -34 -80 -68 -100 -28 -17 -30 -16 -73 6 -53 29 -62 53 -22 62 55 12 88 24 117 43 34 22 46 19 46 -11z"></path><path id="psLvBw7WT" d="M4842 2154 c-71 -197 -94 -389 -72 -583 9 -79 16 -111 26 -111 31 0 37 46 45 305 5 165 13 295 24 357 9 54 15 103 13 110 -2 6 -19 -29 -36 -78z"></path><path id="pTDUtVJWI" d="M9321 2215 c0 -11 4 -42 9 -70 6 -27 16 -184 24 -347 8 -166 20 -306 26 -318 13 -24 26 -26 34 -4 15 39 28 217 22 308 -6 101 -49 313 -66 330 -6 6 -10 17 -10 26 -1 24 -38 98 -39 75z"></path><path id="pBzndHoiV" d="M4509 2170 c-75 -51 -143 -101 -169 -125 -23 -21 -69 -48 -190 -111 -25 -13 -50 -27 -55 -32 -6 -5 -55 -30 -110 -56 -110 -52 -120 -75 -20 -50 238 60 416 160 517 288 42 54 83 116 76 116 -2 0 -24 -13 -49 -30z"></path><path id="p496Y7gg9" d="M9650 2181 c0 -15 115 -157 145 -178 14 -10 42 -30 61 -45 109 -83 293 -157 409 -164 77 -5 79 -8 -40 47 -33 15 -82 40 -110 55 -27 15 -94 52 -149 82 -54 30 -106 62 -115 71 -15 15 -158 117 -188 135 -7 4 -13 3 -13 -3z"></path><path id="pJVGRabOV" d="M4941 2126 c-7 -8 -17 -59 -22 -113 -11 -102 -2 -230 26 -363 21 -105 141 -346 199 -401 14 -13 26 -29 26 -35 0 -17 97 -105 163 -149 67 -45 143 -59 166 -31 12 14 11 20 -10 42 -13 15 -42 38 -64 52 -64 40 -317 295 -354 356 -18 31 -44 86 -58 122 -50 141 -86 410 -65 488 13 45 11 53 -7 32z"></path><path id="pjnw7Lz29" d="M9248 2019 c5 -173 -34 -374 -96 -494 -54 -104 -247 -303 -391 -403 -66 -46 -80 -64 -62 -86 38 -45 165 9 271 114 96 97 140 162 220 328 67 137 110 388 91 526 -9 64 -25 126 -33 126 -2 0 -2 -50 0 -111z"></path><path id="p1031hXtwr" d="M3600 1811 c-79 -25 -141 -64 -195 -122 -44 -47 -46 -52 -31 -67 14 -14 42 -18 154 -20 l137 -3 47 30 c55 35 110 106 106 136 -7 48 -131 74 -218 46z"></path><path id="pu1Rp4cdV" d="M10437 1810 c-63 -20 -71 -48 -32 -110 36 -58 95 -91 182 -103 85 -12 217 3 241 26 13 14 9 21 -34 67 -26 28 -76 67 -111 87 -54 30 -75 35 -141 39 -42 2 -90 -1 -105 -6z"></path><path id="p1A02RY8mB" d="M4623 1700 c-152 -290 -252 -441 -399 -604 -49 -54 -102 -114 -119 -135 -16 -20 -34 -38 -40 -40 -18 -7 -106 -104 -122 -134 -17 -35 -10 -92 13 -101 9 -3 33 -6 54 -6 35 0 44 6 97 66 32 36 69 83 83 104 14 21 37 53 52 71 42 54 185 294 243 410 84 166 200 447 190 457 -2 2 -25 -37 -52 -88z"></path><path id="pL98GvAOb" d="M9535 1755 c20 -93 208 -502 276 -602 16 -23 33 -53 39 -67 5 -14 35 -62 67 -107 32 -44 67 -94 78 -109 42 -59 71 -95 117 -142 41 -41 54 -48 86 -48 48 0 62 14 62 64 0 48 -13 66 -152 206 -124 126 -225 245 -304 360 -73 105 -87 127 -191 320 -47 85 -82 142 -78 125z"></path><path id="p83Mdzy4B" d="M4739 1425 c-70 -52 -98 -183 -60 -289 28 -81 35 -86 71 -51 83 79 110 224 60 318 -14 26 -27 47 -31 47 -3 0 -21 -11 -40 -25z"></path><path id="poNVcJFeP" d="M9390 1408 c-21 -28 -25 -44 -25 -113 0 -66 4 -89 25 -128 26 -52 85 -111 100 -102 18 11 40 109 40 176 0 75 -19 130 -58 172 -34 35 -53 34 -82 -5z"></path></g></g><g id="l2AbAAV2ytVn0GlLi9CGXrq" fill="rgb(255,255,255)" style="transform: none;"><g style="transform: none;"><path id="p11pIZqOrZ" d="M5904 13546 c-3 -8 -4 -25 -1 -38 3 -18 5 -16 6 9 1 24 6 33 24 36 l22 4 -23 2 c-12 0 -25 -5 -28 -13z"></path><path id="p3HZ8GGtm" d="M7353 13553 c9 -2 25 -2 35 0 9 3 1 5 -18 5 -19 0 -27 -2 -17 -5z"></path><path id="p1CdknmQqN" d="M7774 13547 c-3 -9 -4 -26 -1 -39 3 -17 5 -15 6 10 1 31 14 43 24 22 3 -6 4 -5 3 2 -4 18 -25 22 -32 5z"></path><path id="p17RE2E9aT" d="M4262 13520 c0 -19 2 -27 5 -17 2 9 2 25 0 35 -3 9 -5 1 -5 -18z"></path><path id="pZ5SwMobl" d="M9102 13520 c0 -19 2 -27 5 -17 2 9 2 25 0 35 -3 9 -5 1 -5 -18z"></path><path id="pCCCOx4Ei" d="M8143 13470 c0 -41 2 -58 4 -37 2 20 2 54 0 75 -2 20 -4 3 -4 -38z"></path><path id="peawwYXuh" d="M4763 13480 c0 -30 2 -43 4 -27 2 15 2 39 0 55 -2 15 -4 2 -4 -28z"></path><path id="p1EYgzUdEQ" d="M5413 13523 c9 -2 25 -2 35 0 9 3 1 5 -18 5 -19 0 -27 -2 -17 -5z"></path><path id="pMqWDt1G2" d="M5946 13522 c-2 -4 12 -6 32 -4 62 6 69 10 20 11 -26 0 -49 -3 -52 -7z"></path><path id="p1AZAWYHIk" d="M5000 13475 c-24 -25 -42 -45 -39 -45 3 0 25 20 49 45 24 25 42 45 39 45 -3 0 -25 -20 -49 -45z"></path><path id="pGLxQbB9R" d="M4293 13425 c0 -44 2 -61 4 -37 2 23 2 59 0 80 -2 20 -4 1 -4 -43z"></path><path id="pDRYawnoH" d="M9133 13440 c0 -36 2 -50 4 -32 2 17 2 47 0 65 -2 17 -4 3 -4 -33z"></path><path id="p89ylioOB" d="M8184 13330 c0 -58 1 -81 3 -52 2 28 2 76 0 105 -2 28 -3 5 -3 -53z"></path><path id="p1Vgpq8xb" d="M9884 13378 l-29 -33 33 29 c30 28 37 36 29 36 -2 0 -16 -15 -33 -32z"></path><path id="poPV94b4u" d="M6273 13345 c0 -33 2 -45 4 -27 2 18 2 45 0 60 -2 15 -4 0 -4 -33z"></path><path id="pdbBCtpIk" d="M5212 13330 c0 -19 2 -27 5 -17 2 9 2 25 0 35 -3 9 -5 1 -5 -18z"></path><path id="p1E1N4DFta" d="M6504 13255 c0 -60 1 -84 3 -52 2 32 2 81 0 110 -2 29 -3 3 -3 -58z"></path><path id="pTchC6YYY" d="M6823 13300 c0 -36 2 -50 4 -32 2 17 2 47 0 65 -2 17 -4 3 -4 -33z"></path><path id="p1ByVGDZkD" d="M8823 13320 c0 -25 2 -35 4 -22 2 12 2 32 0 45 -2 12 -4 2 -4 -23z"></path><path id="pm0PgO2EA" d="M8863 13325 c0 -22 2 -30 4 -17 2 12 2 30 0 40 -3 9 -5 -1 -4 -23z"></path><path id="pz9FCVpTQ" d="M4329 13337 c5 -5 19 -7 32 -5 20 3 19 5 -9 9 -20 3 -29 2 -23 -4z"></path><path id="pnsn4iWpo" d="M7812 13233 l-2 -103 28 1 c23 2 23 2 5 6 -21 4 -22 10 -26 101 l-3 97 -2 -102z"></path><path id="pvqW4lf3d" d="M9775 13278 l-40 -43 43 40 c39 36 47 45 39 45 -2 0 -21 -19 -42 -42z"></path><path id="p1B4oAl8mx" d="M5904 13195 l1 -100 80 -1 80 0 -77 3 -77 4 -4 97 -3 97 0 -100z"></path><path id="p1BeeVWr6T" d="M4761 13208 c0 -37 2 -69 7 -71 4 -3 6 18 4 46 -5 86 -9 96 -11 25z"></path><path id="plvMCscGQ" d="M9141 13213 c0 -13 3 -23 7 -23 5 0 17 10 28 23 l19 22 -22 -18 c-21 -18 -21 -18 -26 0 -4 14 -5 14 -6 -4z"></path><path id="p513hncQz" d="M9102 13158 c-1 -31 2 -59 6 -62 5 -3 24 11 43 32 l34 37 -37 -34 -37 -34 -4 59 -3 59 -2 -57z"></path><path id="p8VPsggTr" d="M8795 13158 l-40 -43 43 40 c39 36 47 45 39 45 -2 0 -21 -19 -42 -42z"></path><path id="pSu6qiHOW" d="M9493 13165 c0 -22 2 -30 4 -17 2 12 2 30 0 40 -3 9 -5 -1 -4 -23z"></path><path id="pxa8PaNoD" d="M8143 13155 c0 -22 2 -30 4 -17 2 12 2 30 0 40 -3 9 -5 -1 -4 -23z"></path><path id="pauoaghJF" d="M4262 13150 c0 -19 2 -27 5 -17 2 9 2 25 0 35 -3 9 -5 1 -5 -18z"></path><path id="plTBMQk9L" d="M5941 13159 c-1 -19 26 -45 36 -35 3 3 1 6 -6 6 -6 0 -16 10 -21 23 -6 15 -9 17 -9 6z"></path><path id="pAjktenyI" d="M7423 13133 c9 -2 25 -2 35 0 9 3 1 5 -18 5 -19 0 -27 -2 -17 -5z"></path><path id="p1EtQhuKgA" d="M9461 13123 c-1 -25 14 -39 25 -22 4 7 3 9 -4 5 -6 -3 -12 3 -15 16 -4 23 -4 23 -6 1z"></path><path id="psEDxe1Sp" d="M9928 13133 c23 -5 29 -18 12 -26 -6 -3 -5 -4 2 -3 23 5 14 31 -12 33 -22 1 -22 1 -2 -4z"></path><path id="pEmPEgJgY" d="M5418 13123 c12 -2 32 -2 45 0 12 2 2 4 -23 4 -25 0 -35 -2 -22 -4z"></path><path id="p1456vEkxa" d="M4313 13093 c15 -2 37 -2 50 0 12 2 0 4 -28 4 -27 0 -38 -2 -22 -4z"></path><path id="pY255DF27" d="M4788 13093 c17 -2 47 -2 65 0 17 2 3 4 -33 4 -36 0 -50 -2 -32 -4z"></path><path id="pyDGFqU8s" d="M7273 13093 c9 -2 25 -2 35 0 9 3 1 5 -18 5 -19 0 -27 -2 -17 -5z"></path><path id="p1DtFCPdSW" d="M7353 13093 c9 -2 25 -2 35 0 9 3 1 5 -18 5 -19 0 -27 -2 -17 -5z"></path><path id="p13EcCsSZA" d="M7683 13093 c20 -2 54 -2 75 0 20 2 3 4 -38 4 -41 0 -58 -2 -37 -4z"></path><path id="pdTAc9fq4" d="M8328 12703 c12 -2 32 -2 45 0 12 2 2 4 -23 4 -25 0 -35 -2 -22 -4z"></path><path id="papAXWBUO" d="M5614 12685 c-3 -8 -4 -20 -1 -27 3 -7 6 -3 6 10 1 15 5 21 13 16 7 -4 8 -3 4 4 -10 16 -15 15 -22 -3z"></path><path id="pWi5YImzG" d="M6068 12693 c12 -2 30 -2 40 0 9 3 -1 5 -23 4 -22 0 -30 -2 -17 -4z"></path><path id="pMfJKgU50" d="M6944 12685 c-3 -8 -4 -20 -1 -27 3 -7 6 -3 6 9 1 12 7 24 14 26 9 4 9 6 -1 6 -7 1 -15 -6 -18 -14z"></path><path id="pDJz4U2PO" d="M9368 12693 c12 -2 32 -2 45 0 12 2 2 4 -23 4 -25 0 -35 -2 -22 -4z"></path><path id="pMLHDznza" d="M7323 12645 c0 -22 2 -30 4 -17 2 12 2 30 0 40 -3 9 -5 -1 -4 -23z"></path><path id="pN6M5gfmI" d="M6018 12663 c17 -2 47 -2 65 0 17 2 3 4 -33 4 -36 0 -50 -2 -32 -4z"></path><path id="pJYqYkyxP" d="M7352 12640 c0 -19 2 -27 5 -17 2 9 2 25 0 35 -3 9 -5 1 -5 -18z"></path><path id="pCm8s6h1o" d="M5644 12480 c0 -102 2 -143 3 -92 2 50 2 134 0 185 -1 50 -3 9 -3 -93z"></path><path id="pFHSVUxNK" d="M9252 12588 l2 -73 3 67 c3 53 7 68 21 71 12 3 11 5 -5 6 -22 1 -23 -2 -21 -71z"></path><path id="pyf3ueF3Y" d="M6973 12600 c0 -30 2 -43 4 -27 2 15 2 39 0 55 -2 15 -4 2 -4 -28z"></path><path id="pL27OPRKl" d="M4894 12510 c0 -74 1 -105 3 -67 2 37 2 97 0 135 -2 37 -3 6 -3 -68z"></path><path id="pm1OdhbZS" d="M8103 12465 c0 -27 2 -38 4 -22 2 15 2 37 0 50 -2 12 -4 0 -4 -28z"></path><path id="pX3c0H8rB" d="M5498 12473 c23 -2 59 -2 80 0 20 2 1 4 -43 4 -44 0 -61 -2 -37 -4z"></path><path id="p42lpMIMW" d="M7324 12343 l1 -98 30 -1 c28 -1 28 -1 3 3 -27 4 -27 5 -31 99 l-3 94 0 -97z"></path><path id="pn0zLJNtN" d="M4932 12343 l-2 -73 28 1 c22 1 23 2 5 6 -20 4 -22 12 -26 71 l-3 67 -2 -72z"></path><path id="p86YuwBuq" d="M6930 12341 c0 -54 -2 -60 -22 -64 -20 -4 -19 -4 5 -6 27 -1 27 -1 27 64 0 36 -2 65 -5 65 -3 0 -5 -27 -5 -59z"></path><path id="pkkncIYrl" d="M6982 12318 c-2 -46 -1 -48 26 -47 22 1 23 2 5 6 -18 3 -23 13 -26 46 l-4 42 -1 -47z"></path><path id="p1SN1ixCT" d="M5954 12300 c1 -24 4 -25 61 -26 l60 0 -57 3 c-49 3 -57 7 -61 26 -3 18 -4 18 -3 -3z"></path><path id="pxXeIixMe" d="M7833 12295 c0 -22 2 -30 4 -17 2 12 2 30 0 40 -3 9 -5 -1 -4 -23z"></path><path id="p185ebmfHC" d="M8288 12273 c23 -2 61 -2 85 0 23 2 4 4 -43 4 -47 0 -66 -2 -42 -4z"></path><path id="pyfIJQup7" d="M4742 12258 c3 -7 15 -13 29 -14 22 -1 22 -1 1 3 -12 2 -20 9 -17 14 4 5 1 9 -5 9 -7 0 -10 -6 -8 -12z"></path><path id="p12NPyTbTM" d="M4953 12243 c15 -2 37 -2 50 0 12 2 0 4 -28 4 -27 0 -38 -2 -22 -4z"></path><path id="pvs7npLVf" d="M7073 12243 c9 -2 25 -2 35 0 9 3 1 5 -18 5 -19 0 -27 -2 -17 -5z"></path><path id="psHlTUUY2" d="M8907 10953 c18 -2 50 -2 70 0 21 2 7 4 -32 4 -38 0 -55 -2 -38 -4z"></path><path id="p19MtSdotB" d="M406 10931 c-3 -5 2 -15 12 -22 15 -13 16 -12 4 3 -12 15 -9 17 30 21 l43 4 -42 1 c-23 1 -44 -2 -47 -7z"></path><path id="pOBjzzhHd" d="M3993 10933 c32 -2 81 -2 110 0 29 2 3 3 -58 3 -60 0 -84 -1 -52 -3z"></path><path id="pxJOYK0PZ" d="M5970 10931 c0 -5 8 -15 18 -22 15 -13 16 -12 4 3 -12 15 -9 17 30 21 l43 4 -47 1 c-27 1 -48 -2 -48 -7z"></path><path id="pn7ezS7Gm" d="M13293 10933 c15 -2 37 -2 50 0 12 2 0 4 -28 4 -27 0 -38 -2 -22 -4z"></path><path id="pKf3N0Sih" d="M643 10913 c26 -2 68 -2 95 0 26 2 4 3 -48 3 -52 0 -74 -1 -47 -3z"></path><path id="pTvG1IAw9" d="M1529 10906 c13 -16 51 -41 51 -33 0 2 -15 14 -32 27 -21 15 -28 17 -19 6z"></path><path id="pZveyVSnu" d="M8943 10913 c20 -2 54 -2 75 0 20 2 3 4 -38 4 -41 0 -58 -2 -37 -4z"></path><path id="p14WtHH5jR" d="M13558 10913 c18 -2 45 -2 60 0 15 2 0 4 -33 4 -33 0 -45 -2 -27 -4z"></path><path id="pQh0Zt5or" d="M445 10525 c0 -203 1 -285 2 -182 2 104 2 270 0 370 -1 100 -2 16 -2 -188z"></path><path id="p1CZmaHhnx" d="M3744 10555 c0 -187 2 -262 3 -167 2 95 2 248 0 340 -1 92 -3 14 -3 -173z"></path><path id="prE4RkVLL" d="M3863 10855 c0 -22 2 -30 4 -17 2 12 2 30 0 40 -3 9 -5 -1 -4 -23z"></path><path id="pa1YgOQxF" d="M6014 10545 c0 -187 2 -262 3 -167 2 95 2 248 0 340 -1 92 -3 14 -3 -173z"></path><path id="pRRi5CraH" d="M7852 10826 c-2 -45 -3 -47 -19 -35 -16 13 -17 12 -4 -4 21 -26 33 -7 28 44 l-4 44 -1 -49z"></path><path id="pGMaOd08x" d="M6133 10805 c0 -33 2 -45 4 -27 2 18 2 45 0 60 -2 15 -4 0 -4 -33z"></path><path id="pudsVYgyV" d="M8604 10828 l-29 -33 33 29 c30 28 37 36 29 36 -2 0 -16 -15 -33 -32z"></path><path id="pY9jkMxbU" d="M7403 10805 c0 -27 2 -38 4 -22 2 15 2 37 0 50 -2 12 -4 0 -4 -28z"></path><path id="pQfp2ndlK" d="M11184 10530 c0 -179 2 -252 3 -162 2 89 2 235 0 325 -1 89 -3 16 -3 -163z"></path><path id="pV7XrrIt6" d="M12464 10530 c0 -179 2 -252 3 -162 2 89 2 235 0 325 -1 89 -3 16 -3 -163z"></path><path id="pHdMby0aV" d="M10154 10730 c0 -63 1 -89 3 -57 2 31 2 83 0 115 -2 31 -3 5 -3 -58z"></path><path id="pWZay9SWn" d="M10264 10730 c0 -63 1 -89 3 -57 2 31 2 83 0 115 -2 31 -3 5 -3 -58z"></path><path id="pyVVCK4za" d="M7294 10515 c0 -170 2 -242 3 -158 2 83 2 223 0 310 -1 87 -3 19 -3 -152z"></path><path id="pprZGJkMS" d="M1709 10637 c4 -5 32 -7 62 -5 l54 3 -62 5 c-34 3 -58 1 -54 -3z"></path><path id="pFP7Iax4n" d="M4333 10550 c0 -30 2 -43 4 -27 2 15 2 39 0 55 -2 15 -4 2 -4 -28z"></path><path id="pxTOPelfY" d="M4442 10560 c0 -19 2 -27 5 -17 2 9 2 25 0 35 -3 9 -5 1 -5 -18z"></path><path id="pgyBFZFgU" d="M7704 10548 l-29 -33 35 30 c19 17 37 31 39 33 2 1 0 2 -5 2 -6 0 -23 -15 -40 -32z"></path><path id="panHGJ2Yj" d="M8613 10510 c0 -36 2 -50 4 -32 2 17 2 47 0 65 -2 17 -4 3 -4 -33z"></path><path id="pVqkwV46v" d="M4443 10480 c0 -25 2 -35 4 -22 2 12 2 32 0 45 -2 12 -4 2 -4 -23z"></path><path id="pWgaIHFXq" d="M11318 10513 c12 -2 30 -2 40 0 9 3 -1 5 -23 4 -22 0 -30 -2 -17 -4z"></path><path id="pwh8zhEst" d="M7458 10503 c18 -2 45 -2 60 0 15 2 0 4 -33 4 -33 0 -45 -2 -27 -4z"></path><path id="pvvHItccd" d="M7402 10328 l2 -153 3 147 4 147 37 4 37 4 -42 1 -43 2 2 -152z"></path><path id="p1EzqL7cj6" d="M11583 10335 c0 -33 2 -45 4 -27 2 18 2 45 0 60 -2 15 -4 0 -4 -33z"></path><path id="ptaYbT7r" d="M5272 10269 c-2 -101 0 -118 16 -130 15 -12 16 -12 5 2 -8 9 -14 60 -16 130 l-3 114 -2 -116z"></path><path id="pOGYcbh9C" d="M8610 10248 c41 -45 50 -53 50 -45 0 2 -21 23 -47 47 l-48 45 45 -47z"></path><path id="pbflRhh3y" d="M7765 10208 l-50 -53 53 50 c48 46 57 55 49 55 -1 0 -25 -24 -52 -52z"></path><path id="pf2ixk6hI" d="M13272 10210 c0 -19 2 -27 5 -17 2 9 2 25 0 35 -3 9 -5 1 -5 -18z"></path><path id="pppP3LTfJ" d="M9250 10183 c-3 -23 -2 -39 3 -34 5 5 7 24 5 42 -3 33 -4 33 -8 -8z"></path><path id="pQhwVLhGZ" d="M10153 10185 c0 -22 2 -30 4 -17 2 12 2 30 0 40 -3 9 -5 -1 -4 -23z"></path><path id="pRODfE7pt" d="M1842 10180 c0 -19 2 -27 5 -17 2 9 2 25 0 35 -3 9 -5 1 -5 -18z"></path><path id="p1DVuoBYS" d="M7811 10148 l-1 -37 -122 -4 -123 -3 123 -2 c134 -2 138 -1 129 55 -3 24 -4 22 -6 -9z"></path><path id="pnphrbNn6" d="M10110 10130 l-35 -7 32 -2 c17 0 35 4 38 9 3 6 5 9 3 9 -2 -1 -19 -5 -38 -9z"></path><path id="pujckL2UG" d="M3928 10123 c12 -2 30 -2 40 0 9 3 -1 5 -23 4 -22 0 -30 -2 -17 -4z"></path><path id="pY5FoGLll" d="M6168 10123 c12 -2 32 -2 45 0 12 2 2 4 -23 4 -25 0 -35 -2 -22 -4z"></path><path id="pzysZIrn0" d="M7478 10123 c23 -2 59 -2 80 0 20 2 1 4 -43 4 -44 0 -61 -2 -37 -4z"></path><path id="p53ExXXw4" d="M10283 10123 c9 -2 25 -2 35 0 9 3 1 5 -18 5 -19 0 -27 -2 -17 -5z"></path><path id="p12djzKydE" d="M10510 10122 c0 -7 -19 -13 -47 -14 l-48 -1 44 -4 c41 -4 73 9 58 24 -4 3 -7 1 -7 -5z"></path><path id="p12CD5dF3s" d="M11338 10123 c12 -2 30 -2 40 0 9 3 -1 5 -23 4 -22 0 -30 -2 -17 -4z"></path><path id="p5xgH3Saj" d="M13820 10122 c0 -7 -12 -13 -27 -13 -26 -2 -26 -2 -4 -6 24 -5 50 11 38 24 -4 3 -7 1 -7 -5z"></path><path id="p1CIPOC49J" d="M3709 10107 c5 -5 24 -7 42 -5 33 3 33 4 -8 8 -23 3 -39 2 -34 -3z"></path><path id="pc7cLZubh" d="M4018 10103 c12 -2 30 -2 40 0 9 3 -1 5 -23 4 -22 0 -30 -2 -17 -4z"></path><path id="pTUnigz28" d="M6253 10103 c9 -2 25 -2 35 0 9 3 1 5 -18 5 -19 0 -27 -2 -17 -5z"></path><path id="pHHhbIjej" d="M7308 10103 c18 -2 45 -2 60 0 15 2 0 4 -33 4 -33 0 -45 -2 -27 -4z"></path><path id="pjkiQXMJF" d="M11408 10103 c12 -2 30 -2 40 0 9 3 -1 5 -23 4 -22 0 -30 -2 -17 -4z"></path><path id="p8MHhMmc0" d="M13303 10103 c9 -2 25 -2 35 0 9 3 1 5 -18 5 -19 0 -27 -2 -17 -5z"></path><path id="p13FXMM2BD" d="M2850 9050 c0 -5 9 -10 21 -10 11 0 17 5 14 10 -3 6 -13 10 -21 10 -8 0 -14 -4 -14 -10z"></path><path id="psjOfCtUj" d="M3023 9053 c15 -2 39 -2 55 0 15 2 2 4 -28 4 -30 0 -43 -2 -27 -4z"></path><path id="p1CPoHK6td" d="M11148 9053 c12 -2 32 -2 45 0 12 2 2 4 -23 4 -25 0 -35 -2 -22 -4z"></path><path id="pnUWBGvtF" d="M10075 8798 l-70 -73 73 70 c67 64 77 75 69 75 -1 0 -34 -33 -72 -72z"></path><path id="pfEjaVtUd" d="M4125 8790 c33 -33 62 -60 64 -60 3 0 -21 27 -54 60 -33 33 -62 60 -64 60 -3 0 21 -27 54 -60z"></path><path id="p3sQL3hlc" d="M3810 8737 c0 -2 15 -16 33 -33 l32 -29 -29 33 c-28 30 -36 37 -36 29z"></path><path id="pXct3HGmC" d="M3760 8607 c0 -2 15 -16 33 -33 l32 -29 -29 33 c-28 30 -36 37 -36 29z"></path><path id="pLZk0Rjry" d="M10215 8558 l-50 -53 53 50 c48 46 57 55 49 55 -1 0 -25 -24 -52 -52z"></path><path id="p4RM4nlt8" d="M10395 8548 l-60 -63 63 60 c58 55 67 65 59 65 -1 0 -29 -28 -62 -62z"></path><path id="p1qHbFLDn" d="M3990 8555 c19 -19 36 -35 39 -35 3 0 -10 16 -29 35 -19 19 -36 35 -39 35 -3 0 10 -16 29 -35z"></path><path id="p1HS4LyKqT" d="M9533 8540 c0 -25 2 -35 4 -22 2 12 2 32 0 45 -2 12 -4 2 -4 -23z"></path><path id="pOHBfgzUM" d="M8313 8533 c9 -2 25 -2 35 0 9 3 1 5 -18 5 -19 0 -27 -2 -17 -5z"></path><path id="pX4NKR5vM" d="M8473 8533 c9 -2 25 -2 35 0 9 3 1 5 -18 5 -19 0 -27 -2 -17 -5z"></path><path id="p172MDz1fX" d="M9363 8485 c0 -27 2 -38 4 -22 2 15 2 37 0 50 -2 12 -4 0 -4 -28z"></path><path id="p8L7ju7mV" d="M4833 8485 c0 -22 2 -30 4 -17 2 12 2 30 0 40 -3 9 -5 -1 -4 -23z"></path><path id="p8mFSLj1L" d="M3945 8430 c21 -22 41 -40 44 -40 3 0 -13 18 -34 40 -21 22 -41 40 -44 40 -3 0 13 -18 34 -40z"></path><path id="pUTT1nKak" d="M5160 8415 c-24 -25 -42 -45 -39 -45 3 0 25 20 49 45 24 25 42 45 39 45 -3 0 -25 -20 -49 -45z"></path><path id="pqd0ecVWk" d="M8338 8393 c12 -2 30 -2 40 0 9 3 -1 5 -23 4 -22 0 -30 -2 -17 -4z"></path><path id="pnMOul4P1" d="M10154 8308 l-29 -33 33 29 c30 28 37 36 29 36 -2 0 -16 -15 -33 -32z"></path><path id="pKHBRD8LG" d="M9362 8190 c0 -19 2 -27 5 -17 2 9 2 25 0 35 -3 9 -5 1 -5 -18z"></path><path id="p6pCUz5ri" d="M4834 8100 c0 -63 1 -89 3 -57 2 31 2 83 0 115 -2 31 -3 5 -3 -58z"></path><path id="p1ByE8y4O2" d="M3503 8183 c20 -2 54 -2 75 0 20 2 3 4 -38 4 -41 0 -58 -2 -37 -4z"></path><path id="pOPm6225g" d="M10693 8183 c9 -2 25 -2 35 0 9 3 1 5 -18 5 -19 0 -27 -2 -17 -5z"></path><path id="pp8EaDWlu" d="M9433 8145 c0 -22 2 -30 4 -17 2 12 2 30 0 40 -3 9 -5 -1 -4 -23z"></path><path id="pnAh2Pvbf" d="M4763 8090 c0 -36 2 -50 4 -32 2 17 2 47 0 65 -2 17 -4 3 -4 -33z"></path><path id="pm6V61vgd" d="M9433 7995 c0 -22 2 -30 4 -17 2 12 2 30 0 40 -3 9 -5 -1 -4 -23z"></path><path id="pGgqSaV0n" d="M4763 7975 c0 -22 2 -30 4 -17 2 12 2 30 0 40 -3 9 -5 -1 -4 -23z"></path><path id="pamLGJZ7V" d="M4914 7870 c0 -58 1 -81 3 -52 2 28 2 76 0 105 -2 28 -3 5 -3 -53z"></path><path id="pHVcN1dNt" d="M9283 7880 c0 -30 2 -43 4 -27 2 15 2 39 0 55 -2 15 -4 2 -4 -28z"></path><path id="p1DXfTqacc" d="M9254 7775 c0 -49 1 -71 3 -48 2 23 2 64 0 90 -2 26 -3 8 -3 -42z"></path><path id="p116GhseRh" d="M4942 7768 c-1 -42 -5 -85 -8 -95 -5 -17 -5 -17 6 -1 6 11 9 49 7 95 l-3 78 -2 -77z"></path><path id="pZXI9xomi" d="M9353 7800 c0 -25 2 -35 4 -22 2 12 2 32 0 45 -2 12 -4 2 -4 -23z"></path><path id="p1HDx5SXPF" d="M4842 7790 c0 -19 2 -27 5 -17 2 9 2 25 0 35 -3 9 -5 1 -5 -18z"></path><path id="p17UAGE3zW" d="M4974 7690 c0 -63 1 -89 3 -57 2 31 2 83 0 115 -2 31 -3 5 -3 -58z"></path><path id="p14PO0ABxV" d="M4430 7748 c41 -45 50 -53 50 -45 0 2 -21 23 -47 47 l-48 45 45 -47z"></path><path id="p1GKakOq8S" d="M9769 7753 l-34 -38 38 34 c34 33 42 41 34 41 -2 0 -19 -17 -38 -37z"></path><path id="pgQb0qbTT" d="M5133 7620 c0 -36 2 -50 4 -32 2 17 2 47 0 65 -2 17 -4 3 -4 -33z"></path><path id="pa3KKfud9" d="M8703 7643 c9 -2 25 -2 35 0 9 3 1 5 -18 5 -19 0 -27 -2 -17 -5z"></path><path id="pckj30aGd" d="M4013 7593 c32 -2 81 -2 110 0 29 2 3 3 -58 3 -60 0 -84 -1 -52 -3z"></path><path id="pTEfw8LTy" d="M10048 7593 c12 -2 30 -2 40 0 9 3 -1 5 -23 4 -22 0 -30 -2 -17 -4z"></path><path id="pQ2WsgHyF" d="M10193 7593 c9 -2 25 -2 35 0 9 3 1 5 -18 5 -19 0 -27 -2 -17 -5z"></path><path id="pKAsFurmu" d="M8983 7500 c0 -41 2 -58 4 -37 2 20 2 54 0 75 -2 20 -4 3 -4 -38z"></path><path id="p15rszeJ6I" d="M4088 7523 c12 -2 32 -2 45 0 12 2 2 4 -23 4 -25 0 -35 -2 -22 -4z"></path><path id="pytQ29ZJI" d="M4193 7523 c15 -2 37 -2 50 0 12 2 0 4 -28 4 -27 0 -38 -2 -22 -4z"></path><path id="phEkjR1Om" d="M9634 7458 c-12 -13 -13 -18 -4 -13 8 5 28 8 44 6 19 -2 26 1 21 9 -4 6 -16 8 -27 4 -14 -4 -18 -2 -14 5 12 18 0 12 -20 -11z"></path><path id="pO17LjmdP" d="M10685 7390 c27 -27 51 -50 54 -50 3 0 -17 23 -44 50 -27 28 -51 50 -54 50 -3 0 17 -22 44 -50z"></path><path id="pER6ymBqh" d="M9900 7358 c24 -27 45 -48 47 -48 8 0 0 9 -44 50 l-48 45 45 -47z"></path><path id="p174O9JKnz" d="M4575 7370 c3 -5 31 -10 62 -10 70 0 66 5 -10 14 -39 4 -56 3 -52 -4z"></path><path id="pf6KC5uhj" d="M8313 7285 c0 -22 2 -30 4 -17 2 12 2 30 0 40 -3 9 -5 -1 -4 -23z"></path><path id="pJdw0wZwu" d="M4355 7280 c-8 -9 -15 -21 -15 -26 0 -4 7 2 16 14 8 12 19 20 24 17 5 -3 11 -2 14 3 10 16 -24 9 -39 -8z"></path><path id="p187kwbR3U" d="M9179 7213 l-34 -38 38 34 c34 33 42 41 34 41 -2 0 -19 -17 -38 -37z"></path><path id="pfq74LAYu" d="M5381 7180 l1 -45 8 35 c5 20 5 39 -1 45 -5 5 -9 -8 -8 -35z"></path><path id="p1BFP6b1h" d="M4975 7120 c44 -44 82 -80 85 -80 2 0 -31 36 -75 80 -44 44 -82 80 -85 80 -2 0 31 -36 75 -80z"></path><path id="p8huEC8sK" d="M5668 7173 c12 -2 30 -2 40 0 9 3 -1 5 -23 4 -22 0 -30 -2 -17 -4z"></path><path id="pL2BoeFeF" d="M8763 7145 c0 -22 2 -30 4 -17 2 12 2 30 0 40 -3 9 -5 -1 -4 -23z"></path><path id="pQmQDBvO4" d="M9638 7095 c2 -14 6 -25 8 -25 2 0 4 11 4 25 0 14 -4 25 -9 25 -4 0 -6 -11 -3 -25z"></path><path id="p19eaYM0F3" d="M3334 6960 c0 -69 1 -97 3 -62 2 34 2 90 0 125 -2 34 -3 6 -3 -63z"></path><path id="pkEE8alib" d="M8824 7048 l-29 -33 33 29 c30 28 37 36 29 36 -2 0 -16 -15 -33 -32z"></path><path id="pNq0cJVEb" d="M4583 7025 c0 -22 2 -30 4 -17 2 12 2 30 0 40 -3 9 -5 -1 -4 -23z"></path><path id="pVA8sqx47" d="M5230 7025 c19 -19 36 -35 39 -35 3 0 -10 16 -29 35 -19 19 -36 35 -39 35 -3 0 10 -16 29 -35z"></path><path id="p1C2jalb7w" d="M10863 7000 c0 -36 2 -50 4 -32 2 17 2 47 0 65 -2 17 -4 3 -4 -33z"></path><path id="p35T5IOdO" d="M8814 6998 l-29 -33 33 29 c30 28 37 36 29 36 -2 0 -16 -15 -33 -32z"></path><path id="p7xag2t33" d="M5245 6980 c21 -22 41 -40 44 -40 3 0 -13 18 -34 40 -21 22 -41 40 -44 40 -3 0 13 -18 34 -40z"></path><path id="p12IQALRef" d="M8932 6987 c-18 -18 -30 -36 -27 -39 3 -3 -11 -20 -32 -38 -21 -18 -29 -27 -18 -22 28 15 108 99 111 117 3 20 3 20 -34 -18z"></path><path id="pnFVjfRsR" d="M7282 6953 c-2 -41 9 -56 24 -31 4 6 3 8 -4 4 -7 -4 -12 7 -15 31 l-4 38 -1 -42z"></path><path id="p1DTjcpTOi" d="M7112 6880 c0 -19 2 -27 5 -17 2 9 2 25 0 35 -3 9 -5 1 -5 -18z"></path><path id="p11CB6Fn9q" d="M8984 6868 l-29 -33 33 29 c30 28 37 36 29 36 -2 0 -16 -15 -33 -32z"></path><path id="pnYzSXp4N" d="M5220 6877 c0 -2 15 -16 33 -33 l32 -29 -29 33 c-28 30 -36 37 -36 29z"></path><path id="paKKXl7Vm" d="M7153 6810 c0 -41 2 -58 4 -37 2 20 2 54 0 75 -2 20 -4 3 -4 -38z"></path><path id="p1CiVmMJ54" d="M10863 6825 c0 -22 2 -30 4 -17 2 12 2 30 0 40 -3 9 -5 -1 -4 -23z"></path><path id="pFnGILFbT" d="M5073 6804 c26 -27 45 -53 42 -56 -3 -3 1 -10 8 -16 10 -9 14 -8 14 3 0 8 -25 38 -56 67 l-56 53 48 -51z"></path><path id="p1HA7D1OBR" d="M7113 6765 c0 -22 2 -30 4 -17 2 12 2 30 0 40 -3 9 -5 -1 -4 -23z"></path><path id="pTqznog8r" d="M7409 6685 c-1 -3 -2 -11 -3 -17 0 -7 -7 -13 -13 -13 -7 0 -12 -3 -10 -6 1 -4 -7 -17 -18 -30 -11 -13 0 -6 23 16 23 21 42 43 42 47 0 9 -19 11 -21 3z"></path><path id="pNVxbcJPB" d="M7133 6621 c1 -14 9 -26 17 -28 10 -3 11 -2 4 4 -7 4 -14 17 -17 28 -5 16 -5 15 -4 -4z"></path><path id="paCUOCTro" d="M9025 6581 c-6 -5 -19 -11 -30 -14 -19 -4 -19 -5 1 -6 12 0 27 6 34 14 14 16 10 20 -5 6z"></path><path id="pzoZCxBjh" d="M8806 6562 c6 -4 14 -14 17 -22 4 -10 6 -8 6 8 1 15 -5 22 -16 22 -11 0 -14 -3 -7 -8z"></path><path id="pi21M5Ixn" d="M5640 6461 c13 -10 13 -12 0 -22 -13 -9 -13 -10 0 -6 8 2 15 10 15 17 0 7 -7 15 -15 17 -13 4 -13 3 0 -6z"></path><path id="p19Pk4Vfwp" d="M7403 6423 c15 -2 39 -2 55 0 15 2 2 4 -28 4 -30 0 -43 -2 -27 -4z"></path><path id="pq1C6WrMU" d="M8726 6422 c-2 -4 11 -6 30 -4 19 2 34 6 34 8 0 8 -59 4 -64 -4z"></path><path id="p78Dh33Sq" d="M5808 6402 c9 -7 8 -13 -8 -27 -11 -10 -20 -22 -20 -27 0 -5 11 3 24 19 24 28 25 43 3 43 -9 0 -8 -3 1 -8z"></path><path id="puYbDcYew" d="M6963 6343 c9 -2 25 -2 35 0 9 3 1 5 -18 5 -19 0 -27 -2 -17 -5z"></path><path id="p11hCjEIIe" d="M7203 6343 c9 -2 25 -2 35 0 9 3 1 5 -18 5 -19 0 -27 -2 -17 -5z"></path><path id="p131cPpcz1" d="M7983 6280 c0 -25 2 -35 4 -22 2 12 2 32 0 45 -2 12 -4 2 -4 -23z"></path><path id="pEtHt9NQv" d="M7067 6303 c18 -2 50 -2 70 0 21 2 7 4 -32 4 -38 0 -55 -2 -38 -4z"></path><path id="p1BvuN7PDZ" d="M6388 6293 c12 -2 30 -2 40 0 9 3 -1 5 -23 4 -22 0 -30 -2 -17 -4z"></path><path id="p1FZfBS6FD" d="M6903 6293 c15 -2 39 -2 55 0 15 2 2 4 -28 4 -30 0 -43 -2 -27 -4z"></path><path id="p1BhF3iF1z" d="M7273 6293 c15 -2 39 -2 55 0 15 2 2 4 -28 4 -30 0 -43 -2 -27 -4z"></path><path id="pAD0eSuH9" d="M6184 5633 l445 -3 4 -23 c5 -19 5 -19 4 3 l-2 25 -448 0 -447 0 444 -2z"></path><path id="pf44x0E8x" d="M7443 5633 c31 -2 83 -2 115 0 31 2 5 3 -58 3 -63 0 -89 -1 -57 -3z"></path><path id="pSsmMtMFq" d="M7838 5633 c18 -2 45 -2 60 0 15 2 0 4 -33 4 -33 0 -45 -2 -27 -4z"></path><path id="pPxj9xQCw" d="M7788 5593 c23 -2 61 -2 85 0 23 2 4 4 -43 4 -47 0 -66 -2 -42 -4z"></path><path id="p1HFOEjH9s" d="M6253 5583 c15 -2 37 -2 50 0 12 2 0 4 -28 4 -27 0 -38 -2 -22 -4z"></path><path id="povltZSrX" d="M7675 4965 c0 -319 1 -451 2 -293 2 158 2 419 0 580 -1 161 -2 32 -2 -287z"></path><path id="pcgxWvWVF" d="M7472 5490 c0 -19 2 -27 5 -17 2 9 2 25 0 35 -3 9 -5 1 -5 -18z"></path><path id="p15vkcZkEo" d="M5794 5195 c0 -115 2 -161 3 -102 2 59 2 154 0 210 -1 56 -3 8 -3 -108z"></path><path id="p8AJUMSlP" d="M6623 5320 c0 -36 2 -50 4 -32 2 17 2 47 0 65 -2 17 -4 3 -4 -33z"></path><path id="pLLtzk5Td" d="M7484 5225 c0 -60 1 -84 3 -52 2 32 2 81 0 110 -2 29 -3 3 -3 -58z"></path><path id="pf1jw7ibQ" d="M8323 5060 c0 -25 2 -35 4 -22 2 12 2 32 0 45 -2 12 -4 2 -4 -23z"></path><path id="pSY10FQTL" d="M8523 5005 c0 -22 2 -30 4 -17 2 12 2 30 0 40 -3 9 -5 -1 -4 -23z"></path><path id="p1DMt2FjbB" d="M5794 4710 c0 -151 2 -213 3 -137 2 75 2 199 0 275 -1 75 -3 13 -3 -138z"></path><path id="p1HbUr8j7j" d="M8323 4865 c0 -27 2 -38 4 -22 2 15 2 37 0 50 -2 12 -4 0 -4 -28z"></path><path id="pffQeFqQq" d="M8522 4850 c0 -19 2 -27 5 -17 2 9 2 25 0 35 -3 9 -5 1 -5 -18z"></path><path id="pirgT8Q4U" d="M7483 4585 c0 -38 2 -53 4 -32 2 20 2 52 0 70 -2 17 -4 1 -4 -38z"></path><path id="pLeHNb3Pv" d="M8175 4448 l-40 -43 43 40 c39 36 47 45 39 45 -2 0 -21 -19 -42 -42z"></path><path id="pXT8LErBO" d="M7793 4323 c15 -2 39 -2 55 0 15 2 2 4 -28 4 -30 0 -43 -2 -27 -4z"></path><path id="p1DkFOv215" d="M5828 4283 c46 -2 118 -2 160 0 42 1 5 3 -83 3 -88 0 -123 -2 -77 -3z"></path><path id="pyLRtBdUp" d="M7562 4283 c59 -2 158 -2 220 0 62 1 14 3 -107 3 -121 0 -172 -2 -113 -3z"></path><path id="pa9QhgSsH" d="M8252 3500 c0 -19 2 -27 5 -17 2 9 2 25 0 35 -3 9 -5 1 -5 -18z"></path><path id="px3KDXVkk" d="M7670 3512 c0 -7 -10 -13 -22 -13 -19 -1 -20 -2 -4 -6 20 -5 44 12 33 24 -4 3 -7 1 -7 -5z"></path><path id="peDX84MWp" d="M7083 3443 c20 -2 54 -2 75 0 20 2 3 4 -38 4 -41 0 -58 -2 -37 -4z"></path><path id="p18EUdTGlo" d="M5515 3400 c-26 -28 -15 -31 12 -3 12 13 19 23 14 23 -4 0 -16 -9 -26 -20z"></path><path id="pStDh75C0" d="M6963 3003 c9 -2 25 -2 35 0 9 3 1 5 -18 5 -19 0 -27 -2 -17 -5z"></path><path id="pRhLwKAqC" d="M4458 2943 c12 -2 30 -2 40 0 9 3 -1 5 -23 4 -22 0 -30 -2 -17 -4z"></path><path id="ph7psprmI" d="M3323 2840 c0 -30 2 -43 4 -27 2 15 2 39 0 55 -2 15 -4 2 -4 -28z"></path><path id="pxae2kAvW" d="M5095 2798 l-80 -83 83 80 c76 74 87 85 79 85 -1 0 -38 -37 -82 -82z"></path><path id="p13531Np7e" d="M10873 2835 c0 -27 2 -38 4 -22 2 15 2 37 0 50 -2 12 -4 0 -4 -28z"></path><path id="pxGKnXOwj" d="M8913 2826 c0 -9 15 -29 32 -46 21 -21 32 -26 32 -16 0 9 -15 29 -32 46 -21 21 -32 26 -32 16z"></path><path id="pw5FM38Ur" d="M6773 2785 c0 -22 2 -30 4 -17 2 12 2 30 0 40 -3 9 -5 -1 -4 -23z"></path><path id="p2I6C4CUK" d="M5374 2778 l-29 -33 33 29 c17 17 32 31 32 33 0 8 -8 1 -36 -29z"></path><path id="pgLGANFAa" d="M8781 2808 c2 -2 24 -21 49 -43 l45 -40 -40 43 c-21 23 -43 42 -49 42 -5 0 -7 -1 -5 -2z"></path><path id="pwhqr2Lyq" d="M9582 2780 c0 -19 2 -27 5 -17 2 9 2 25 0 35 -3 9 -5 1 -5 -18z"></path><path id="pCD35aQ0p" d="M4323 2720 c0 -25 2 -35 4 -22 2 12 2 32 0 45 -2 12 -4 2 -4 -23z"></path><path id="pGlmbQLwt" d="M8448 2643 c12 -2 32 -2 45 0 12 2 2 4 -23 4 -25 0 -35 -2 -22 -4z"></path><path id="pm1MhzG5o" d="M5381 2588 c-1 -16 4 -28 9 -28 12 0 12 8 0 35 -8 18 -9 17 -9 -7z"></path><path id="p18yROm4ds" d="M8483 2603 c15 -2 39 -2 55 0 15 2 2 4 -28 4 -30 0 -43 -2 -27 -4z"></path><path id="pVXVwVkBZ" d="M3595 2500 c27 -27 51 -50 54 -50 3 0 -17 23 -44 50 -27 28 -51 50 -54 50 -3 0 17 -22 44 -50z"></path><path id="pm7AoAKXX" d="M7293 2500 c0 -30 2 -43 4 -27 2 15 2 39 0 55 -2 15 -4 2 -4 -28z"></path><path id="pckEnHAmv" d="M8312 2510 c0 -19 2 -27 5 -17 2 9 2 25 0 35 -3 9 -5 1 -5 -18z"></path><path id="p1CiKaX3DX" d="M8362 2480 c0 -19 2 -27 5 -17 2 9 2 25 0 35 -3 9 -5 1 -5 -18z"></path><path id="prx2czajX" d="M3480 2418 c41 -45 50 -53 50 -45 0 2 -21 23 -47 47 l-48 45 45 -47z"></path><path id="p6GX5pGIU" d="M4300 2418 c41 -45 50 -53 50 -45 0 2 -21 23 -47 47 l-48 45 45 -47z"></path><path id="pvG3bezkd" d="M9650 2420 c-24 -8 -24 -8 7 -9 17 -1 35 4 38 9 7 11 -9 11 -45 0z"></path><path id="p1EiakL2hn" d="M7685 2270 c38 -38 72 -70 74 -70 3 0 -26 32 -64 70 -38 39 -72 70 -74 70 -3 0 26 -31 64 -70z"></path><path id="pV9E9fd0K" d="M8760 2283 l-55 -58 58 55 c31 30 57 56 57 57 0 8 -10 -1 -60 -54z"></path><path id="p1DgDkwqUK" d="M7373 2263 c9 -2 25 -2 35 0 9 3 1 5 -18 5 -19 0 -27 -2 -17 -5z"></path><path id="pi3u9zlKW" d="M4098 2253 c12 -2 30 -2 40 0 9 3 -1 5 -23 4 -22 0 -30 -2 -17 -4z"></path><path id="pNcSpwFlg" d="M4228 2253 c12 -2 30 -2 40 0 9 3 -1 5 -23 4 -22 0 -30 -2 -17 -4z"></path><path id="pp1WAoySU" d="M9963 2253 c26 -2 68 -2 95 0 26 2 4 3 -48 3 -52 0 -74 -1 -47 -3z"></path><path id="p1GRyBqJaD" d="M8652 2220 c0 -19 2 -27 5 -17 2 9 2 25 0 35 -3 9 -5 1 -5 -18z"></path><path id="poWjDKtrt" d="M9063 2175 c0 -38 2 -53 4 -32 2 20 2 52 0 70 -2 17 -4 1 -4 -38z"></path><path id="p10MJBGfqv" d="M5133 2160 c0 -41 2 -58 4 -37 2 20 2 54 0 75 -2 20 -4 3 -4 -38z"></path><path id="pa8TADols" d="M9320 2203 c0 -21 3 -24 9 -14 5 8 7 20 4 28 -8 21 -13 15 -13 -14z"></path><path id="p5PgIw8hP" d="M4860 2213 c0 -5 5 -15 10 -23 8 -12 10 -11 10 8 0 12 -4 22 -10 22 -5 0 -10 -3 -10 -7z"></path><path id="p15xVumPNI" d="M4972 2180 c0 -19 2 -27 5 -17 2 9 2 25 0 35 -3 9 -5 1 -5 -18z"></path><path id="pnEiqLsxe" d="M3978 2183 c12 -2 30 -2 40 0 9 3 -1 5 -23 4 -22 0 -30 -2 -17 -4z"></path><path id="pMzBCm29e" d="M4128 2183 c12 -2 30 -2 40 0 9 3 -1 5 -23 4 -22 0 -30 -2 -17 -4z"></path><path id="pjXlm281l" d="M10073 2183 c26 -2 68 -2 95 0 26 2 4 3 -48 3 -52 0 -74 -1 -47 -3z"></path><path id="pzQiQDKPz" d="M9224 2065 c0 -60 1 -84 3 -52 2 32 2 81 0 110 -2 29 -3 3 -3 -58z"></path><path id="pCJjsQY01" d="M7413 2123 c15 -2 37 -2 50 0 12 2 0 4 -28 4 -27 0 -38 -2 -22 -4z"></path><path id="prT346U3U" d="M4430 2035 c-24 -25 -42 -45 -39 -45 3 0 25 20 49 45 24 25 42 45 39 45 -3 0 -25 -20 -49 -45z"></path><path id="pmjKR0iws" d="M5063 2010 c0 -36 2 -50 4 -32 2 17 2 47 0 65 -2 17 -4 3 -4 -33z"></path><path id="p9uIk9OKO" d="M9765 2030 c21 -22 41 -40 44 -40 3 0 -13 18 -34 40 -21 22 -41 40 -44 40 -3 0 13 -18 34 -40z"></path><path id="pBLIgv7MJ" d="M4843 1975 c0 -22 2 -30 4 -17 2 12 2 30 0 40 -3 9 -5 -1 -4 -23z"></path><path id="p1ApDtqu1c" d="M7833 1960 c0 -30 2 -43 4 -27 2 15 2 39 0 55 -2 15 -4 2 -4 -28z"></path><path id="p11Y4BDGxc" d="M4973 1945 c0 -22 2 -30 4 -17 2 12 2 30 0 40 -3 9 -5 -1 -4 -23z"></path><path id="piTEkOzDq" d="M4913 1915 c0 -33 2 -45 4 -27 2 18 2 45 0 60 -2 15 -4 0 -4 -33z"></path><path id="p9K5ovjHE" d="M9283 1925 c0 -27 2 -38 4 -22 2 15 2 37 0 50 -2 12 -4 0 -4 -28z"></path><path id="pU4tY1YUo" d="M4942 1910 c0 -19 2 -27 5 -17 2 9 2 25 0 35 -3 9 -5 1 -5 -18z"></path><path id="pOCOfSsaf" d="M9353 1870 c0 -36 2 -50 4 -32 2 17 2 47 0 65 -2 17 -4 3 -4 -33z"></path><path id="pYI0aiD09" d="M5395 1850 c27 -27 51 -50 54 -50 3 0 -17 23 -44 50 -27 28 -51 50 -54 50 -3 0 17 -22 44 -50z"></path><path id="pVvj9SjqQ" d="M8800 1855 c-24 -25 -42 -45 -39 -45 3 0 25 20 49 45 24 25 42 45 39 45 -3 0 -25 -20 -49 -45z"></path><path id="p33XbI0WP" d="M6958 1863 c12 -2 30 -2 40 0 9 3 -1 5 -23 4 -22 0 -30 -2 -17 -4z"></path><path id="piZdSULlP" d="M4764 1720 c0 -63 1 -89 3 -57 2 31 2 83 0 115 -2 31 -3 5 -3 -58z"></path><path id="pkJAscl4A" d="M10488 1813 c17 -2 47 -2 65 0 17 2 3 4 -33 4 -36 0 -50 -2 -32 -4z"></path><path id="pxFVPwsMu" d="M9434 1720 c0 -52 1 -74 3 -47 2 26 2 68 0 95 -2 26 -3 4 -3 -48z"></path><path id="p2zqDyP5p" d="M7638 1753 c12 -2 32 -2 45 0 12 2 2 4 -23 4 -25 0 -35 -2 -22 -4z"></path><path id="pVAftio8c" d="M3754 1668 l-29 -33 33 29 c17 17 32 31 32 33 0 8 -8 1 -36 -29z"></path><path id="pIgHesY5U" d="M4833 1630 c0 -41 2 -58 4 -37 2 20 2 54 0 75 -2 20 -4 3 -4 -38z"></path><path id="p142KHtEDn" d="M9363 1615 c0 -27 2 -38 4 -22 2 15 2 37 0 50 -2 12 -4 0 -4 -28z"></path><path id="phVNndRHa" d="M10628 1593 c17 -2 47 -2 65 0 17 2 3 4 -33 4 -36 0 -50 -2 -32 -4z"></path><path id="pXh34hdPy" d="M10175 1450 c27 -27 51 -50 54 -50 3 0 -17 23 -44 50 -27 28 -51 50 -54 50 -3 0 17 -22 44 -50z"></path><path id="pu9mfn13E" d="M4004 1418 l-29 -33 33 29 c30 28 37 36 29 36 -2 0 -16 -15 -33 -32z"></path><path id="ppd9dl6Es" d="M5310 1415 c19 -19 36 -35 39 -35 3 0 -10 16 -29 35 -19 19 -36 35 -39 35 -3 0 10 -16 29 -35z"></path><path id="p11UfH8InR" d="M8950 1355 c-41 -41 -72 -75 -69 -75 2 0 38 34 79 75 41 41 72 75 69 75 -2 0 -38 -34 -79 -75z"></path><path id="pDYm4Cdpr" d="M5225 1300 c21 -22 41 -40 44 -40 3 0 -13 18 -34 40 -21 22 -41 40 -44 40 -3 0 13 -18 34 -40z"></path><path id="pn3rQCApv" d="M9363 1290 c0 -30 2 -43 4 -27 2 15 2 39 0 55 -2 15 -4 2 -4 -28z"></path><path id="phNa88mUs" d="M4833 1295 c0 -22 2 -30 4 -17 2 12 2 30 0 40 -3 9 -5 -1 -4 -23z"></path><path id="phMF9vatl" d="M7198 1323 c12 -2 30 -2 40 0 9 3 -1 5 -23 4 -22 0 -30 -2 -17 -4z"></path><path id="p62dDjrBz" d="M4015 1258 l-40 -43 43 40 c23 21 42 40 42 42 0 8 -9 0 -45 -39z"></path><path id="p4JCR3LO9" d="M4663 1235 c0 -33 2 -45 4 -27 2 18 2 45 0 60 -2 15 -4 0 -4 -33z"></path><path id="pQT6wFzMG" d="M10340 1287 c0 -1 35 -36 78 -77 l77 -75 -75 78 c-69 71 -80 82 -80 74z"></path><path id="pDcWZJNiE" d="M3814 1228 l-29 -33 33 29 c30 28 37 36 29 36 -2 0 -16 -15 -33 -32z"></path><path id="pMylMy2zI" d="M5843 1243 c9 -2 25 -2 35 0 9 3 1 5 -18 5 -19 0 -27 -2 -17 -5z"></path><path id="p1B4xA5oKV" d="M8338 1243 c12 -2 32 -2 45 0 12 2 2 4 -23 4 -25 0 -35 -2 -22 -4z"></path><path id="pMJmxvGYq" d="M8975 1158 l-50 -53 53 50 c48 46 57 55 49 55 -1 0 -25 -24 -52 -52z"></path><path id="pmgFZrOm4" d="M5663 1173 c15 -2 39 -2 55 0 15 2 2 4 -28 4 -30 0 -43 -2 -27 -4z"></path><path id="ppwrvagJP" d="M8457 1173 c18 -2 50 -2 70 0 21 2 7 4 -32 4 -38 0 -55 -2 -38 -4z"></path><path id="p0HGTPTgp" d="M3784 1028 l-29 -33 33 29 c17 17 32 31 32 33 0 8 -8 1 -36 -29z"></path><path id="pMdD9yb34" d="M4134 998 l-29 -33 33 29 c17 17 32 31 32 33 0 8 -8 1 -36 -29z"></path><path id="p14JLsNPnh" d="M10095 950 c21 -22 41 -40 44 -40 3 0 -13 18 -34 40 -21 22 -41 40 -44 40 -3 0 13 -18 34 -40z"></path><path id="p1G10J4u7t" d="M4014 878 l-29 -33 33 29 c17 17 32 31 32 33 0 8 -8 1 -36 -29z"></path><path id="p3jIJLE09" d="M2855 730 c-3 -5 3 -10 15 -10 12 0 18 5 15 10 -3 6 -10 10 -15 10 -5 0 -12 -4 -15 -10z"></path><path id="p16R4aN7FB" d="M11310 730 c-12 -8 -11 -10 8 -10 12 0 22 5 22 10 0 13 -11 13 -30 0z"></path><path id="pMLtuTvcn" d="M3063 723 c9 -2 25 -2 35 0 9 3 1 5 -18 5 -19 0 -27 -2 -17 -5z"></path><path id="pvfXoRFqk" d="M11108 723 c12 -2 30 -2 40 0 9 3 -1 5 -23 4 -22 0 -30 -2 -17 -4z"></path></g></g></svg>