<?xml version="1.0" encoding="UTF-8"?>
<!DOCTYPE svg PUBLIC "-//W3C//DTD SVG 1.1//EN" "http://www.w3.org/Graphics/SVG/1.1/DTD/svg11.dtd">
<svg xmlns="http://www.w3.org/2000/svg" version="1.1" width="800px" height="428px" style="shape-rendering:geometricPrecision; text-rendering:geometricPrecision; image-rendering:optimizeQuality; fill-rule:evenodd; clip-rule:evenodd" xmlns:xlink="http://www.w3.org/1999/xlink">
<g><path style="opacity:0.992" fill="#ebc07e" d="M 649.5,-0.5 C 650.167,-0.5 650.833,-0.5 651.5,-0.5C 651.5,-0.166667 651.5,0.166667 651.5,0.5C 650.5,2.5 649.5,4.5 648.5,6.5C 648.674,4.13895 649.007,1.80562 649.5,-0.5 Z"/></g>
<g><path style="opacity:0.663" fill="#e9c48d" d="M 141.5,5.5 C 141.573,7.02694 140.906,8.02694 139.5,8.5C 139.427,6.97306 140.094,5.97306 141.5,5.5 Z"/></g>
<g><path style="opacity:1" fill="#df9c2b" d="M 156.5,46.5 C 155.448,46.6495 154.448,46.4828 153.5,46C 154.252,45.3292 154.586,44.4959 154.5,43.5C 160.837,33.6524 168.504,24.8191 177.5,17C 180.727,14.8882 184.06,13.0549 187.5,11.5C 191.162,11.2766 194.495,10.2766 197.5,8.5C 204.792,7.13758 211.792,7.97092 218.5,11C 209.338,27.8338 195.671,39.1672 177.5,45C 170.341,46.2813 163.341,46.7813 156.5,46.5 Z"/></g>
<g><path style="opacity:1" fill="#df9c2a" d="M 636.5,32.5 C 636.427,34.0269 637.094,35.0269 638.5,35.5C 640.984,37.8003 642.984,40.4669 644.5,43.5C 644.5,44.8333 643.833,45.5 642.5,45.5C 629.917,47.4144 618.25,45.0811 607.5,38.5C 607.027,37.0937 606.027,36.427 604.5,36.5C 599.313,33.827 594.813,30.1603 591,25.5C 587.5,20.6667 584,15.8333 580.5,11C 594.01,6.02017 607.01,7.35351 619.5,15C 626.041,20.0403 631.708,25.8736 636.5,32.5 Z"/></g>
<g><path style="opacity:0.996" fill="#ebbc74" d="M 197.5,8.5 C 194.495,10.2766 191.162,11.2766 187.5,11.5C 190.505,9.7234 193.838,8.7234 197.5,8.5 Z"/></g>
<g><path style="opacity:0.729" fill="#eec688" d="M 133.5,20.5 C 133.59,23.1522 132.924,25.4855 131.5,27.5C 131.41,24.8478 132.076,22.5145 133.5,20.5 Z"/></g>
<g><path style="opacity:0.114" fill="#ecd6b6" d="M 684.5,32.5 C 683.833,32.8333 683.167,33.1667 682.5,33.5C 682.711,31.5759 683.377,31.2426 684.5,32.5 Z"/></g>
<g><path style="opacity:0.949" fill="#eac48a" d="M 116.5,33.5 C 115.5,33.5 114.5,33.5 113.5,33.5C 114.74,31.0155 115.74,31.0155 116.5,33.5 Z"/></g>
<g><path style="opacity:1" fill="#df9d2b" d="M 684.5,32.5 C 691.256,36.6511 695.589,42.6511 697.5,50.5C 697.294,53.4951 697.96,56.1617 699.5,58.5C 702.499,72.8422 700.165,86.3422 692.5,99C 694.879,101.599 696.879,104.433 698.5,107.5C 698.427,109.027 699.094,110.027 700.5,110.5C 703.135,113.079 705.301,116.079 707,119.5C 705.757,103.704 709.09,89.0375 717,75.5C 719.703,72.462 722.703,69.7954 726,67.5C 726.717,68.0442 727.217,68.7109 727.5,69.5C 727.427,71.0269 728.094,72.0269 729.5,72.5C 733.482,77.7075 735.648,83.7075 736,90.5C 736.801,102.63 734.135,113.963 728,124.5C 724.977,129.023 721.144,132.69 716.5,135.5C 720.393,142.617 723.727,149.95 726.5,157.5C 726.264,160.226 727.097,162.559 729,164.5C 729.789,162.288 729.622,160.288 728.5,158.5C 727.917,147.249 730.083,136.582 735,126.5C 735.949,124.907 737.115,123.574 738.5,122.5C 740.5,121.167 742.167,119.5 743.5,117.5C 745.992,114.325 749.326,112.659 753.5,112.5C 753.565,115.428 754.232,118.095 755.5,120.5C 758.807,138.906 754.973,155.573 744,170.5C 741,172.833 738,175.167 735,177.5C 734.517,178.448 734.351,179.448 734.5,180.5C 734.41,183.152 735.076,185.485 736.5,187.5C 736.41,190.152 737.076,192.485 738.5,194.5C 739.301,196.042 739.634,197.708 739.5,199.5C 739.148,202.073 739.648,204.406 741,206.5C 741.49,205.207 741.657,203.873 741.5,202.5C 741.848,192.097 744.515,182.43 749.5,173.5C 750.906,173.027 751.573,172.027 751.5,170.5C 752.906,170.027 753.573,169.027 753.5,167.5C 758.708,160.296 765.708,155.962 774.5,154.5C 775.49,160.31 775.823,166.31 775.5,172.5C 773.72,194.073 763.053,209.406 743.5,218.5C 742.614,219.325 742.281,220.325 742.5,221.5C 742.334,231.839 742.5,242.172 743,252.5C 744.009,250.975 744.509,249.308 744.5,247.5C 747.078,237.011 751.744,227.678 758.5,219.5C 761.167,217.5 763.5,215.167 765.5,212.5C 768.161,209.498 771.495,207.498 775.5,206.5C 778.152,206.59 780.485,205.924 782.5,204.5C 783.5,204.5 784.5,204.5 785.5,204.5C 787.833,204.5 790.167,204.5 792.5,204.5C 792.5,205.833 792.5,207.167 792.5,208.5C 789.173,226.681 780.173,241.181 765.5,252C 758.662,255.876 751.329,258.21 743.5,259C 741.566,265.441 739.899,271.941 738.5,278.5C 737.766,279.878 737.099,281.378 736.5,283C 738.154,283.196 739.154,282.363 739.5,280.5C 747.566,269.418 757.899,261.418 770.5,256.5C 773.152,256.59 775.485,255.924 777.5,254.5C 784.924,252.889 792.258,253.556 799.5,256.5C 799.5,257.167 799.5,257.833 799.5,258.5C 791.475,271.352 780.475,280.852 766.5,287C 756.735,289.592 746.901,290.092 737,288.5C 732.311,296.545 728.144,304.879 724.5,313.5C 723.094,313.973 722.427,314.973 722.5,316.5C 721.833,316.5 721.5,316.833 721.5,317.5C 720.833,317.5 720.5,317.833 720.5,318.5C 714.923,328.651 708.59,338.318 701.5,347.5C 700.833,347.5 700.5,347.833 700.5,348.5C 698.683,349.219 698.016,350.219 698.5,351.5C 700.419,350.388 702.086,349.054 703.5,347.5C 716.701,336.373 731.701,332.54 748.5,336C 753.581,338.201 757.915,341.368 761.5,345.5C 747.101,359.58 729.768,366.08 709.5,365C 703.17,364.25 697.67,361.75 693,357.5C 684.938,365.73 676.772,373.73 668.5,381.5C 659.99,387.836 651.324,394.002 642.5,400C 649.081,399.108 655.748,398.608 662.5,398.5C 674.748,397.51 685.248,401.177 694,409.5C 700.039,417.044 698.205,420.878 688.5,421C 678.167,423 667.833,423 657.5,421C 654.198,420.339 651.198,419.172 648.5,417.5C 648.027,416.094 647.027,415.427 645.5,415.5C 641.21,413.045 637.71,409.712 635,405.5C 618.709,414.403 601.876,421.736 584.5,427.5C 582.833,427.5 581.167,427.5 579.5,427.5C 578.84,425.184 578.173,422.851 577.5,420.5C 577.608,419.558 577.941,418.725 578.5,418C 594.185,412.986 609.519,407.153 624.5,400.5C 626.027,400.573 627.027,399.906 627.5,398.5C 628.765,397.521 630.099,396.521 631.5,395.5C 623.208,387.465 619.542,377.632 620.5,366C 620.58,362.45 620.914,358.95 621.5,355.5C 622.924,353.485 623.59,351.152 623.5,348.5C 624.086,339.188 627.752,337.521 634.5,343.5C 640.336,350.006 643.003,357.673 642.5,366.5C 642.198,374.838 640.698,382.838 638,390.5C 646.532,385.328 654.366,379.328 661.5,372.5C 662.167,372.5 662.5,372.167 662.5,371.5C 663.167,371.5 663.5,371.167 663.5,370.5C 664.167,370.5 664.5,370.167 664.5,369.5C 667.112,368.221 669.445,366.555 671.5,364.5C 674.5,363.5 676.5,361.5 677.5,358.5C 680.167,357.833 681.833,356.167 682.5,353.5C 690.083,344.644 697.417,335.644 704.5,326.5C 705.906,326.027 706.573,325.027 706.5,323.5C 706.427,321.973 707.094,320.973 708.5,320.5C 709.89,319.101 710.89,317.434 711.5,315.5C 711.66,313.847 712.326,312.514 713.5,311.5C 714.906,311.027 715.573,310.027 715.5,308.5C 718.026,302.613 720.693,296.78 723.5,291C 699.272,285.94 683.939,271.44 677.5,247.5C 679.988,245.612 682.988,244.945 686.5,245.5C 695.87,246.88 703.536,251.214 709.5,258.5C 709.427,260.027 710.094,261.027 711.5,261.5C 717.223,268.946 721.39,277.279 724,286.5C 725.795,283.901 727.295,281.234 728.5,278.5C 730.04,276.162 730.706,273.495 730.5,270.5C 730.5,270.167 730.5,269.833 730.5,269.5C 731.924,267.485 732.59,265.152 732.5,262.5C 730.844,260.94 728.844,259.94 726.5,259.5C 724.485,258.076 722.152,257.41 719.5,257.5C 716.496,257.278 713.829,256.278 711.5,254.5C 711.027,253.094 710.027,252.427 708.5,252.5C 701.439,249.035 695.606,244.035 691,237.5C 688.319,232.801 685.653,228.135 683,223.5C 681.972,221.156 681.306,218.823 681,216.5C 698.605,214.052 712.105,220.385 721.5,235.5C 721.427,237.027 722.094,238.027 723.5,238.5C 723.427,240.027 724.094,241.027 725.5,241.5C 728.008,245.182 730.008,249.182 731.5,253.5C 732.596,257.289 733.263,257.289 733.5,253.5C 733.325,251.379 733.659,249.379 734.5,247.5C 735.482,244.038 735.815,240.371 735.5,236.5C 735.5,232.833 735.5,229.167 735.5,225.5C 735.817,221.298 735.483,217.298 734.5,213.5C 733.125,201.996 730.792,190.663 727.5,179.5C 712.997,182.449 699.33,180.283 686.5,173C 684.382,171.951 682.716,170.451 681.5,168.5C 681.027,167.094 680.027,166.427 678.5,166.5C 673.682,162.348 670.015,157.348 667.5,151.5C 667.833,150.833 668.167,150.167 668.5,149.5C 674.681,147.748 681.014,147.081 687.5,147.5C 688.919,148.451 690.585,148.784 692.5,148.5C 705.268,151.61 715.268,158.61 722.5,169.5C 723.031,171.544 724.198,173.211 726,174.5C 726.74,173.251 726.573,172.251 725.5,171.5C 725.5,170.833 725.167,170.5 724.5,170.5C 721.903,162.38 718.903,154.38 715.5,146.5C 712.627,146.124 709.627,146.124 706.5,146.5C 701.5,146.5 696.5,146.5 691.5,146.5C 683.285,145.986 675.951,143.32 669.5,138.5C 669.027,137.094 668.027,136.427 666.5,136.5C 666.027,135.094 665.027,134.427 663.5,134.5C 658.219,130.72 654.219,125.886 651.5,120C 652.682,118.265 654.349,117.265 656.5,117C 676.77,112.889 693.937,118.389 708,133.5C 704.306,123.624 699.14,114.458 692.5,106C 687.97,107.165 683.304,108.165 678.5,109C 673.463,109.663 668.463,109.496 663.5,108.5C 661.485,107.076 659.152,106.41 656.5,106.5C 648.193,105.181 641.193,101.515 635.5,95.5C 634.89,94.609 634.557,93.609 634.5,92.5C 636.34,90.3311 638.674,88.9977 641.5,88.5C 644.428,88.4349 647.095,87.7682 649.5,86.5C 663.096,85.6049 675.263,89.2716 686,97.5C 684.901,93.8658 683.067,90.5324 680.5,87.5C 680.369,86.6236 680.702,85.9569 681.5,85.5C 684.864,87.9861 685.197,87.6528 682.5,84.5C 682.5,83.8333 682.167,83.5 681.5,83.5C 675.924,66.5913 676.257,49.9246 682.5,33.5C 683.167,33.1667 683.833,32.8333 684.5,32.5 Z"/></g>
<g><path style="opacity:1" fill="#df9c2b" d="M 113.5,33.5 C 114.5,33.5 115.5,33.5 116.5,33.5C 118.262,36.5035 119.428,39.8368 120,43.5C 121.965,54.1711 121.965,64.8377 120,75.5C 119.61,78.1042 118.776,80.4375 117.5,82.5C 116.662,82.8417 116.328,83.5084 116.5,84.5C 116.5,84.8333 116.5,85.1667 116.5,85.5C 113.958,87.4133 114.292,87.7466 117.5,86.5C 118.298,86.9569 118.631,87.6236 118.5,88.5C 116.853,91.4735 114.853,94.1401 112.5,96.5C 110.93,97.8748 110.097,99.5415 110,101.5C 111.376,100.295 112.542,98.9616 113.5,97.5C 125.692,88.5348 139.359,85.0348 154.5,87C 159.058,87.9457 163.058,89.9457 166.5,93C 149.583,109.184 130.083,113.35 108,105.5C 100.972,113.555 95.4717,122.555 91.5,132.5C 90.8333,132.5 90.5,132.833 90.5,133.5C 88.9153,134.002 88.4153,135.002 89,136.5C 90.045,135.627 90.8783,134.627 91.5,133.5C 93.7488,132.92 95.4154,131.587 96.5,129.5C 111.854,115.329 129.188,112.162 148.5,120C 139.569,134.8 126.569,143.634 109.5,146.5C 103.833,146.5 98.1667,146.5 92.5,146.5C 89.5182,146.173 86.6849,146.173 84,146.5C 80.0744,153.778 77.241,161.445 75.5,169.5C 75.1667,169.5 74.8333,169.5 74.5,169.5C 73.4017,170.601 73.235,171.934 74,173.5C 75.0848,172.264 75.9181,170.931 76.5,169.5C 78.8333,166.5 81.5,163.833 84.5,161.5C 86.7488,160.92 88.4154,159.587 89.5,157.5C 94.6346,152.933 100.635,149.933 107.5,148.5C 109.415,148.784 111.081,148.451 112.5,147.5C 118.689,147.035 124.689,147.702 130.5,149.5C 131.11,150.391 131.443,151.391 131.5,152.5C 123.82,167.189 111.82,176.355 95.5,180C 87.4793,180.168 79.4793,180.668 71.5,181.5C 67.4608,192.811 65.4608,204.478 65.5,216.5C 64.8333,216.5 64.5,216.833 64.5,217.5C 63.1667,226.833 63.1667,236.167 64.5,245.5C 65.2515,248.747 65.7515,252.081 66,255.5C 68.0217,250.777 70.5217,246.443 73.5,242.5C 74.9063,242.027 75.573,241.027 75.5,239.5C 75.427,237.973 76.0937,236.973 77.5,236.5C 78.9063,236.027 79.573,235.027 79.5,233.5C 79.8333,232.5 80.5,231.833 81.5,231.5C 82.9063,231.027 83.573,230.027 83.5,228.5C 85.0905,226.367 87.0905,224.701 89.5,223.5C 91.0269,223.573 92.0269,222.906 92.5,221.5C 95.3968,219.222 98.7301,217.722 102.5,217C 107.78,215.905 113.113,215.405 118.5,215.5C 113.07,236.099 100.403,250.266 80.5,258C 77.2072,258.826 73.8738,259.326 70.5,259.5C 69.1667,259.5 67.8333,259.5 66.5,259.5C 66.2322,261.099 66.5655,262.432 67.5,263.5C 68.3414,265.379 68.6747,267.379 68.5,269.5C 68.4095,272.152 69.0762,274.485 70.5,276.5C 71.6838,279.572 73.0171,282.572 74.5,285.5C 78.0972,277.293 82.4306,269.627 87.5,262.5C 88.9063,262.027 89.573,261.027 89.5,259.5C 98.1936,247.975 109.527,243.475 123.5,246C 119.76,256.316 114.593,265.816 108,274.5C 101.053,282.724 92.2199,287.39 81.5,288.5C 79.5,288.5 77.5,288.5 75.5,288.5C 75.2627,289.791 75.596,290.791 76.5,291.5C 79.8309,298.829 83.1642,306.162 86.5,313.5C 86.427,315.027 87.0937,316.027 88.5,316.5C 88.9321,317.71 89.5987,318.71 90.5,319.5C 91.3382,319.842 91.6716,320.508 91.5,321.5C 91.427,323.027 92.0937,324.027 93.5,324.5C 93.427,326.027 94.0937,327.027 95.5,327.5C 95.427,329.027 96.0937,330.027 97.5,330.5C 99.0627,331.945 100.396,333.611 101.5,335.5C 101.427,337.027 102.094,338.027 103.5,338.5C 105.395,339.973 107.061,341.64 108.5,343.5C 109.167,344.5 109.833,345.5 110.5,346.5C 110.427,348.027 111.094,349.027 112.5,349.5C 119.201,356.203 126.201,362.536 133.5,368.5C 133.5,368.833 133.5,369.167 133.5,369.5C 134.5,371.167 135.833,372.5 137.5,373.5C 145.47,379.491 153.47,385.491 161.5,391.5C 162.002,393.085 163.002,393.585 164.5,393C 163.934,392.005 163.267,391.172 162.5,390.5C 156.729,378.919 155.396,366.752 158.5,354C 159.186,350.505 160.852,347.672 163.5,345.5C 165.749,344.92 167.415,343.587 168.5,341.5C 169.721,340.972 170.887,340.305 172,339.5C 173.993,341.818 175.159,344.484 175.5,347.5C 175.41,350.152 176.076,352.485 177.5,354.5C 180.606,366.218 179.439,377.551 174,388.5C 171.833,390.667 169.667,392.833 167.5,395C 172.003,398.755 177.003,401.755 182.5,404C 195.013,409.06 207.679,413.727 220.5,418C 221.683,421.274 221.35,424.441 219.5,427.5C 217.833,427.5 216.167,427.5 214.5,427.5C 197.382,422.111 181.049,414.778 165.5,405.5C 164.377,404.243 163.711,404.576 163.5,406.5C 159.253,413.145 153.253,417.645 145.5,420C 135.119,422.562 124.786,423.062 114.5,421.5C 111.781,420.087 108.781,419.42 105.5,419.5C 105.167,419.5 104.833,419.5 104.5,419.5C 103.659,417.621 103.325,415.621 103.5,413.5C 106.674,407.337 111.674,403.337 118.5,401.5C 121.428,401.435 124.095,400.768 126.5,399.5C 135.753,398.094 145.087,398.427 154.5,400.5C 155.943,401.703 157.609,402.203 159.5,402C 158.307,400.905 156.973,400.072 155.5,399.5C 150.587,396.882 146.254,393.548 142.5,389.5C 142.027,388.094 141.027,387.427 139.5,387.5C 137.091,386.299 135.091,384.633 133.5,382.5C 132.055,380.937 130.389,379.604 128.5,378.5C 128.167,378.5 127.833,378.5 127.5,378.5C 120.518,371.687 113.352,365.02 106,358.5C 88.6142,369.097 71.4475,368.764 54.5,357.5C 54.0269,356.094 53.0269,355.427 51.5,355.5C 49.1475,354.66 47.1475,353.326 45.5,351.5C 45.0269,350.094 44.0269,349.427 42.5,349.5C 39.259,348.963 38.259,347.296 39.5,344.5C 43.0664,339.882 47.733,337.049 53.5,336C 69.1917,334.066 83.525,337.566 96.5,346.5C 96.5,346.833 96.5,347.167 96.5,347.5C 97.6883,348.364 98.8549,349.364 100,350.5C 100.167,350.167 100.333,349.833 100.5,349.5C 99.5905,347.625 98.2572,346.292 96.5,345.5C 89.7155,337.044 83.7155,328.044 78.5,318.5C 77.8897,316.566 76.8897,314.899 75.5,313.5C 75.1667,313.5 74.8333,313.5 74.5,313.5C 74.5,312.833 74.5,312.167 74.5,311.5C 74.7148,309.821 74.0481,308.821 72.5,308.5C 69.0022,302.506 66.3356,296.173 64.5,289.5C 51.595,291.656 39.2616,289.989 27.5,284.5C 27.0269,283.094 26.0269,282.427 24.5,282.5C 21.6298,281.567 19.2964,279.9 17.5,277.5C 17.0269,276.094 16.0269,275.427 14.5,275.5C 8.79427,270.396 3.79427,264.73 -0.5,258.5C -0.5,257.833 -0.5,257.167 -0.5,256.5C 15.1439,251.387 29.8106,253.887 43.5,264C 49.3753,268.374 54.3753,273.541 58.5,279.5C 58.427,281.027 59.0937,282.027 60.5,282.5C 60.7828,283.289 61.2828,283.956 62,284.5C 62.7401,283.251 62.5735,282.251 61.5,281.5C 61.5,280.833 61.1667,280.5 60.5,280.5C 59.5013,274.504 58.5013,268.504 57.5,262.5C 57.5,261.5 57.5,260.5 57.5,259.5C 56.5,259.5 55.5,259.5 54.5,259.5C 52.4855,258.076 50.1522,257.41 47.5,257.5C 43.7029,257.128 40.3695,255.794 37.5,253.5C 37.0269,252.094 36.0269,251.427 34.5,251.5C 32.9731,251.573 31.9731,250.906 31.5,249.5C 31.0269,248.094 30.0269,247.427 28.5,247.5C 16.1792,236.203 8.51254,222.203 5.5,205.5C 19.4571,202.827 31.1238,207.16 40.5,218.5C 40.427,220.027 41.0937,221.027 42.5,221.5C 43.9063,221.973 44.573,222.973 44.5,224.5C 44.427,226.027 45.0937,227.027 46.5,227.5C 50.3295,233.979 52.9962,240.979 54.5,248.5C 54.4914,250.308 54.9914,251.975 56,253.5C 56.4998,243.839 56.6665,234.172 56.5,224.5C 56.6602,222.801 56.4935,221.134 56,219.5C 54.3484,218.601 52.8484,217.601 51.5,216.5C 51.0269,215.094 50.0269,214.427 48.5,214.5C 32.9629,204.11 24.6296,189.443 23.5,170.5C 23.1786,164.974 23.5119,159.64 24.5,154.5C 39.44,157.892 49.2733,166.892 54,181.5C 56.4526,188.64 57.6192,195.973 57.5,203.5C 57.848,208.375 58.5146,208.041 59.5,202.5C 60.2269,194.928 61.8935,187.595 64.5,180.5C 65.8211,177.765 64.8211,176.098 61.5,175.5C 60.8333,175.5 60.5,175.167 60.5,174.5C 59.7377,172.738 58.4044,171.738 56.5,171.5C 43.2236,153.905 39.557,134.405 45.5,113C 50.0705,113.45 54.0705,115.283 57.5,118.5C 58.0798,120.749 59.4131,122.415 61.5,123.5C 65.7472,128.696 68.5806,134.696 70,141.5C 70.4996,148.158 70.6663,154.825 70.5,161.5C 69.4707,165.364 69.804,165.364 71.5,161.5C 74.33,152.836 77.9967,144.503 82.5,136.5C 64.2454,120.041 59.0787,100.041 67,76.5C 68.4669,73.7336 70.3002,71.2336 72.5,69C 77.4307,70.4118 81.0973,73.5785 83.5,78.5C 83.427,80.0269 84.0937,81.0269 85.5,81.5C 91.8677,94.5023 93.5344,107.836 90.5,121.5C 89.4265,122.251 89.2599,123.251 90,124.5C 90.7172,123.956 91.2172,123.289 91.5,122.5C 92.0787,119.669 93.412,117.336 95.5,115.5C 96.9063,115.027 97.573,114.027 97.5,112.5C 98.9063,112.027 99.573,111.027 99.5,109.5C 100.906,109.027 101.573,108.027 101.5,106.5C 102.754,103.907 104.42,101.573 106.5,99.5C 98.8497,85.599 96.8497,70.9323 100.5,55.5C 101.924,53.4855 102.59,51.1522 102.5,48.5C 104.333,42.0221 107.999,37.0221 113.5,33.5 Z"/></g>
<g><path style="opacity:0.863" fill="#e9c48c" d="M 636.5,32.5 C 637.906,32.9731 638.573,33.9731 638.5,35.5C 637.094,35.0269 636.427,34.0269 636.5,32.5 Z"/></g>
<g><path style="opacity:0.557" fill="#e9c691" d="M 604.5,36.5 C 606.027,36.427 607.027,37.0937 607.5,38.5C 605.973,38.573 604.973,37.9063 604.5,36.5 Z"/></g>
<g><path style="opacity:0.969" fill="#e9be7f" d="M 648.5,36.5 C 650.163,38.4385 650.829,40.7718 650.5,43.5C 649.388,41.4006 648.721,39.0673 648.5,36.5 Z"/></g>
<g><path style="opacity:0.973" fill="#ebbe7b" d="M 644.5,43.5 C 646.816,46.0946 649.149,48.7613 651.5,51.5C 650.998,52.521 650.332,52.6877 649.5,52C 647.271,49.5997 644.937,47.433 642.5,45.5C 643.833,45.5 644.5,44.8333 644.5,43.5 Z"/></g>
<g><path style="opacity:1" fill="#edc284" d="M 154.5,43.5 C 154.586,44.4959 154.252,45.3292 153.5,46C 154.448,46.4828 155.448,46.6495 156.5,46.5C 151.206,50.1266 146.539,54.46 142.5,59.5C 142.586,58.5041 142.252,57.6708 141.5,57C 143.07,55.6032 144.404,54.1032 145.5,52.5C 146.167,52.5 146.5,52.1667 146.5,51.5C 147.167,51.5 147.5,51.1667 147.5,50.5C 150.194,48.4728 152.527,46.1395 154.5,43.5 Z"/></g>
<g><path style="opacity:0.996" fill="#e9bd7d" d="M 102.5,48.5 C 102.59,51.1522 101.924,53.4855 100.5,55.5C 100.41,52.8478 101.076,50.5145 102.5,48.5 Z"/></g>
<g><path style="opacity:1" fill="#df9d2d" d="M 147.5,-0.5 C 147.833,-0.5 148.167,-0.5 148.5,-0.5C 153.953,16.5762 153.62,33.5762 147.5,50.5C 146.833,50.5 146.5,50.8333 146.5,51.5C 145.833,51.5 145.5,51.8333 145.5,52.5C 144.404,54.1032 143.07,55.6032 141.5,57C 142.252,57.6708 142.586,58.5041 142.5,59.5C 141.5,60.8333 140.5,62.1667 139.5,63.5C 138.373,64.1217 137.373,64.955 136.5,66C 137.998,66.5847 138.998,66.0847 139.5,64.5C 144.154,61.6746 149.154,59.6746 154.5,58.5C 157.152,58.5905 159.485,57.9238 161.5,56.5C 168.117,55.411 174.783,55.2443 181.5,56C 185.619,56.6441 189.285,58.1441 192.5,60.5C 192.833,61.1667 193.167,61.8333 193.5,62.5C 185.908,71.2996 176.241,76.4663 164.5,78C 152.466,80.3516 140.799,79.185 129.5,74.5C 128.662,74.1583 128.328,73.4916 128.5,72.5C 130.534,70.2721 132.2,67.7721 133.5,65C 129.219,52.6286 128.552,40.1286 131.5,27.5C 132.924,25.4855 133.59,23.1522 133.5,20.5C 134.46,15.9136 136.46,11.9136 139.5,8.5C 140.906,8.02694 141.573,7.02694 141.5,5.5C 143.194,3.13942 145.194,1.13942 147.5,-0.5 Z"/></g>
<g><path style="opacity:1" fill="#df9d2b" d="M 651.5,0.5 C 659.492,5.68727 664.659,13.0206 667,22.5C 670.691,36.6728 670.191,50.6728 665.5,64.5C 667.157,67.1603 668.824,69.8269 670.5,72.5C 670.167,73.1667 669.833,73.8333 669.5,74.5C 658.149,78.503 646.483,79.503 634.5,77.5C 632.485,76.0762 630.152,75.4095 627.5,75.5C 621.301,74.4006 615.968,71.7339 611.5,67.5C 609.42,65.4268 607.754,63.0934 606.5,60.5C 613.021,56.6251 620.188,54.9584 628,55.5C 632.889,55.5114 637.723,56.0114 642.5,57C 648.048,58.5191 653.381,60.1857 658.5,62C 654.58,56.4184 651.914,50.2517 650.5,43.5C 650.829,40.7718 650.163,38.4385 648.5,36.5C 645.967,26.3651 645.967,16.3651 648.5,6.5C 649.5,4.5 650.5,2.5 651.5,0.5 Z"/></g>
<g><path style="opacity:0.98" fill="#edc07c" d="M 161.5,56.5 C 159.485,57.9238 157.152,58.5905 154.5,58.5C 156.515,57.0762 158.848,56.4095 161.5,56.5 Z"/></g>
<g><path style="opacity:0.863" fill="#e6b76e" d="M 697.5,50.5 C 698.768,52.9052 699.435,55.5718 699.5,58.5C 697.96,56.1617 697.294,53.4951 697.5,50.5 Z"/></g>
<g><path style="opacity:0.004" fill="#eedfcb" d="M 192.5,60.5 C 194.424,60.7107 194.757,61.3774 193.5,62.5C 193.167,61.8333 192.833,61.1667 192.5,60.5 Z"/></g>
<g><path style="opacity:0.773" fill="#ecca98" d="M 606.5,60.5 C 607.754,63.0934 609.42,65.4268 611.5,67.5C 607.587,66.3228 605.921,63.9895 606.5,60.5 Z"/></g>
<g><path style="opacity:0.883" fill="#c78f2b" d="M 216.5,62.5 C 223.436,61.8779 230.102,62.8779 236.5,65.5C 237.695,63.703 239.362,62.703 241.5,62.5C 241.5,68.1667 241.5,73.8333 241.5,79.5C 240.5,79.5 239.5,79.5 238.5,79.5C 235.636,67.739 228.636,63.9056 217.5,68C 215.383,69.7309 213.883,71.8976 213,74.5C 209.498,84.9697 209.831,95.3031 214,105.5C 218.267,111.371 223.6,112.704 230,109.5C 230.746,104.958 230.579,100.458 229.5,96C 228.318,94.2649 226.651,93.2649 224.5,93C 231.833,92.3333 239.167,92.3333 246.5,93C 244.919,93.7065 243.419,94.5399 242,95.5C 241.829,100.533 241.329,105.533 240.5,110.5C 228.743,116.331 217.409,115.831 206.5,109C 196.833,97.1496 196,84.6496 204,71.5C 207.299,67.1179 211.466,64.1179 216.5,62.5 Z"/></g>
<g><path style="opacity:0.883" fill="#c78f2b" d="M 267.5,62.5 C 268.5,62.5 269.5,62.5 270.5,62.5C 275.634,78.7327 281.467,94.7327 288,110.5C 289.255,111.211 290.421,112.044 291.5,113C 284.5,113.667 277.5,113.667 270.5,113C 272.618,112.74 274.284,111.74 275.5,110C 274.142,106.927 272.975,103.76 272,100.5C 267.218,99.1977 262.385,99.1977 257.5,100.5C 256.5,103.167 255.5,105.833 254.5,108.5C 255.741,110.941 257.741,112.441 260.5,113C 255.5,113.667 250.5,113.667 245.5,113C 249.079,110.369 251.579,106.869 253,102.5C 257.939,89.1813 262.772,75.848 267.5,62.5 Z M 264.5,81.5 C 266.771,86.1287 268.771,90.9621 270.5,96C 266.5,96.6667 262.5,96.6667 258.5,96C 260.601,91.1951 262.601,86.3618 264.5,81.5 Z"/></g>
<g><path style="opacity:0.903" fill="#c78f2b" d="M 358.5,62.5 C 359.5,62.5 360.5,62.5 361.5,62.5C 366.36,77.2447 371.527,91.9114 377,106.5C 379.145,112.416 382.811,113.749 388,110.5C 388.667,95.8333 388.667,81.1667 388,66.5C 386.509,64.9963 384.676,64.1629 382.5,64C 391.833,63.3333 401.167,63.3333 410.5,64C 421.566,68.2631 426.899,76.4298 426.5,88.5C 427.02,100.655 421.687,108.821 410.5,113C 394.167,113.667 377.833,113.667 361.5,113C 363.618,112.74 365.284,111.74 366.5,110C 365.142,106.927 363.975,103.76 363,100.5C 358.218,99.1977 353.385,99.1977 348.5,100.5C 347.5,103.167 346.5,105.833 345.5,108.5C 346.741,110.941 348.741,112.441 351.5,113C 346.5,113.667 341.5,113.667 336.5,113C 340.079,110.369 342.579,106.869 344,102.5C 348.939,89.1813 353.772,75.848 358.5,62.5 Z M 399.5,66.5 C 407.141,66.3074 411.641,69.9741 413,77.5C 415.342,87.0667 414.675,96.4 411,105.5C 409.1,108.401 406.434,110.068 403,110.5C 401.347,110.18 400.347,109.18 400,107.5C 399.5,93.8374 399.333,80.1707 399.5,66.5 Z M 355.5,81.5 C 357.771,86.1287 359.771,90.9621 361.5,96C 357.5,96.6667 353.5,96.6667 349.5,96C 351.601,91.1951 353.601,86.3618 355.5,81.5 Z"/></g>
<g><path style="opacity:0.902" fill="#c78f2b" d="M 445.5,62.5 C 464.429,60.7576 474.429,69.4243 475.5,88.5C 473.072,111.541 461.072,119.041 439.5,111C 429.35,100.886 426.85,89.0531 432,75.5C 435.101,69.5629 439.601,65.2296 445.5,62.5 Z M 450.5,65.5 C 456.615,66.1102 460.449,69.4435 462,75.5C 464.16,85.2509 463.826,94.9176 461,104.5C 456.503,112.798 451.17,113.465 445,106.5C 440.842,95.6082 440.509,84.6082 444,73.5C 445.305,70.0386 447.471,67.372 450.5,65.5 Z"/></g>
<g><path style="opacity:0.868" fill="#c78f2b" d="M 576.5,62.5 C 581.734,61.8346 586.568,62.8346 591,65.5C 591.908,63.5614 593.408,62.5614 595.5,62.5C 595.829,68.2055 595.495,73.8722 594.5,79.5C 592.84,75.3626 590.506,71.5292 587.5,68C 579.023,63.6475 575.19,66.1475 576,75.5C 580.893,79.3913 586.06,82.8913 591.5,86C 597.167,91.3189 599.001,97.8189 597,105.5C 594.165,111.333 589.498,114.333 583,114.5C 579,114.663 575.333,113.663 572,111.5C 570.981,112.687 569.814,113.687 568.5,114.5C 567.167,108.167 567.167,101.833 568.5,95.5C 570.016,103.677 574.683,109.011 582.5,111.5C 588.643,110.189 590.809,106.523 589,100.5C 585.113,96.4723 580.613,93.3057 575.5,91C 568.081,85.4096 565.914,78.243 569,69.5C 570.742,66.2543 573.242,63.921 576.5,62.5 Z"/></g>
<g><path style="opacity:0.837" fill="#c78f2b" d="M 291.5,64.5 C 296.985,63.3483 302.651,63.1816 308.5,64C 314.543,73.2529 320.709,82.4196 327,91.5C 327.667,83.5 327.667,75.5 327,67.5C 325.764,65.4616 323.931,64.2949 321.5,64C 326.5,63.3333 331.5,63.3333 336.5,64C 334.718,64.8141 333.218,65.9808 332,67.5C 331.5,83.1631 331.333,98.8298 331.5,114.5C 330.178,114.67 329.011,114.337 328,113.5C 319.333,100.833 310.667,88.1667 302,75.5C 301.333,86.5 301.333,97.5 302,108.5C 303.109,110.815 304.943,112.315 307.5,113C 302.5,113.667 297.5,113.667 292.5,113C 295.612,112.375 297.445,110.542 298,107.5C 298.667,94.8333 298.667,82.1667 298,69.5C 296.841,66.5066 294.675,64.8399 291.5,64.5 Z"/></g>
<g><path style="opacity:0.921" fill="#c78f2b" d="M 478.5,64.5 C 488.325,63.3417 498.325,63.1751 508.5,64C 514.831,66.1205 518.164,70.6205 518.5,77.5C 517.825,80.6913 516.658,83.6913 515,86.5C 512.863,87.4786 511.029,88.8119 509.5,90.5C 512.748,96.6641 516.248,102.664 520,108.5C 521.745,109.956 523.578,111.289 525.5,112.5C 527.134,112.032 528.3,111.032 529,109.5C 529.667,95.5 529.667,81.5 529,67.5C 527.764,65.4616 525.931,64.2949 523.5,64C 535.495,63.5001 547.495,63.3335 559.5,63.5C 559.827,68.544 559.494,73.544 558.5,78.5C 556.266,69.0393 550.266,65.0393 540.5,66.5C 540.17,73.1998 540.503,79.8665 541.5,86.5C 543.258,85.8721 544.758,84.8721 546,83.5C 547.266,80.5338 548.433,77.5338 549.5,74.5C 550.833,83.5 550.833,92.5 549.5,101.5C 548.433,98.4662 547.266,95.4662 546,92.5C 544.758,91.1279 543.258,90.1279 541.5,89.5C 540.336,95.8072 540.169,102.141 541,108.5C 545.453,111.02 549.953,110.854 554.5,108C 557.714,105.068 560.047,101.568 561.5,97.5C 561.833,98.5 562.167,99.5 562.5,100.5C 562.012,104.742 561.346,108.908 560.5,113C 543.833,113.667 527.167,113.667 510.5,113C 505.968,105.965 501.635,98.7981 497.5,91.5C 496.675,90.6143 495.675,90.281 494.5,90.5C 494.123,97.2569 494.623,103.924 496,110.5C 497.419,111.46 498.919,112.293 500.5,113C 493.167,113.667 485.833,113.667 478.5,113C 481.232,112.602 483.065,111.102 484,108.5C 484.667,95.1667 484.667,81.8333 484,68.5C 483.125,65.7854 481.292,64.4521 478.5,64.5 Z M 494.5,66.5 C 502.565,65.3995 506.898,68.8995 507.5,77C 506.907,85.0909 502.573,88.5909 494.5,87.5C 494.5,80.5 494.5,73.5 494.5,66.5 Z"/></g>
<g><path style="opacity:0.004" fill="#f5dcb6" d="M 659.5,63.5 C 659.5,63.1667 659.5,62.8333 659.5,62.5C 661.257,63.292 662.591,64.6253 663.5,66.5C 663.333,66.8333 663.167,67.1667 663,67.5C 661.855,66.3636 660.688,65.3636 659.5,64.5C 660.833,64.1667 660.833,63.8333 659.5,63.5 Z"/></g>
<g><path style="opacity:0.71" fill="#f3d5a8" d="M 139.5,63.5 C 139.5,63.8333 139.5,64.1667 139.5,64.5C 138.998,66.0847 137.998,66.5847 136.5,66C 137.373,64.955 138.373,64.1217 139.5,63.5 Z"/></g>
<g><path style="opacity:0.812" fill="#eac998" d="M 727.5,69.5 C 728.906,69.9731 729.573,70.9731 729.5,72.5C 728.094,72.0269 727.427,71.0269 727.5,69.5 Z"/></g>
<g><path style="opacity:0.753" fill="#e9c081" d="M 627.5,75.5 C 630.152,75.4095 632.485,76.0762 634.5,77.5C 631.848,77.5905 629.515,76.9238 627.5,75.5 Z"/></g>
<g><path style="opacity:0.929" fill="#e9b971" d="M 670.5,72.5 C 674.527,75.8604 678.194,79.5271 681.5,83.5C 682.167,83.5 682.5,83.8333 682.5,84.5C 685.197,87.6528 684.864,87.9861 681.5,85.5C 680.702,85.9569 680.369,86.6236 680.5,87.5C 676.596,83.3522 672.929,79.0189 669.5,74.5C 669.833,73.8333 670.167,73.1667 670.5,72.5 Z"/></g>
<g><path style="opacity:0.357" fill="#f2d4a6" d="M 83.5,78.5 C 84.9063,78.9731 85.573,79.9731 85.5,81.5C 84.0937,81.0269 83.427,80.0269 83.5,78.5 Z"/></g>
<g><path style="opacity:0.686" fill="#ebbb74" d="M 128.5,72.5 C 128.328,73.4916 128.662,74.1583 129.5,74.5C 125.822,79.2056 122.156,83.8723 118.5,88.5C 118.631,87.6236 118.298,86.9569 117.5,86.5C 114.292,87.7466 113.958,87.4133 116.5,85.5C 116.833,85.5 117.167,85.5 117.5,85.5C 118.338,85.1583 118.672,84.4916 118.5,83.5C 121.833,79.8333 125.167,76.1667 128.5,72.5 Z"/></g>
<g><path style="opacity:0.239" fill="#f6debd" d="M 117.5,82.5 C 117.5,83.1667 117.833,83.5 118.5,83.5C 118.672,84.4916 118.338,85.1583 117.5,85.5C 117.5,84.8333 117.167,84.5 116.5,84.5C 116.328,83.5084 116.662,82.8417 117.5,82.5 Z"/></g>
<g><path style="opacity:0.98" fill="#eec382" d="M 649.5,86.5 C 647.095,87.7682 644.428,88.4349 641.5,88.5C 643.838,86.9605 646.505,86.2938 649.5,86.5 Z"/></g>
<g><path style="opacity:0.792" fill="#f2cd97" d="M 634.5,92.5 C 634.557,93.609 634.89,94.609 635.5,95.5C 632.318,94.8597 631.985,93.8597 634.5,92.5 Z"/></g>
<g><path style="opacity:0.043" fill="#f5e0c0" d="M 112.5,96.5 C 112.5,97.1667 112.833,97.5 113.5,97.5C 112.542,98.9616 111.376,100.295 110,101.5C 110.097,99.5415 110.93,97.8748 112.5,96.5 Z"/></g>
<g><path style="opacity:0.075" fill="#efd4ac" d="M 687.5,97.5 C 689.07,98.8748 689.903,100.541 690,102.5C 688.624,101.295 687.458,99.9616 686.5,98.5C 687.167,98.5 687.5,98.1667 687.5,97.5 Z"/></g>
<g><path style="opacity:0.89" fill="#f0cb92" d="M 101.5,106.5 C 101.573,108.027 100.906,109.027 99.5,109.5C 99.427,107.973 100.094,106.973 101.5,106.5 Z"/></g>
<g><path style="opacity:0.529" fill="#f1ce99" d="M 656.5,106.5 C 659.152,106.41 661.485,107.076 663.5,108.5C 660.848,108.59 658.515,107.924 656.5,106.5 Z"/></g>
<g><path style="opacity:0.584" fill="#f1cc96" d="M 698.5,107.5 C 699.906,107.973 700.573,108.973 700.5,110.5C 699.094,110.027 698.427,109.027 698.5,107.5 Z"/></g>
<g><path style="opacity:0.663" fill="#f0c98e" d="M 99.5,109.5 C 99.573,111.027 98.9063,112.027 97.5,112.5C 97.427,110.973 98.0937,109.973 99.5,109.5 Z"/></g>
<g><path style="opacity:0.384" fill="#f2d2a1" d="M 97.5,112.5 C 97.573,114.027 96.9063,115.027 95.5,115.5C 95.427,113.973 96.0937,112.973 97.5,112.5 Z"/></g>
<g><path style="opacity:0.753" fill="#eecfa2" d="M 57.5,118.5 C 59.5869,119.585 60.9202,121.251 61.5,123.5C 59.4131,122.415 58.0798,120.749 57.5,118.5 Z"/></g>
<g><path style="opacity:0.847" fill="#e8be7c" d="M 753.5,112.5 C 755.04,114.838 755.706,117.505 755.5,120.5C 754.232,118.095 753.565,115.428 753.5,112.5 Z"/></g>
<g><path style="opacity:0.729" fill="#eecb99" d="M 743.5,117.5 C 742.167,119.5 740.5,121.167 738.5,122.5C 739.167,119.833 740.833,118.167 743.5,117.5 Z"/></g>
<g><path style="opacity:0.333" fill="#e9cca0" d="M 707.5,121.5 C 709.225,121.843 709.725,122.843 709,124.5C 708.487,123.473 707.987,122.473 707.5,121.5 Z"/></g>
<g><path style="opacity:0.008" fill="#eddabe" d="M 90.5,121.5 C 90.5,122.167 90.8333,122.5 91.5,122.5C 91.2172,123.289 90.7172,123.956 90,124.5C 89.2599,123.251 89.4265,122.251 90.5,121.5 Z"/></g>
<g><path style="opacity:0.847" fill="#e9c084" d="M 96.5,129.5 C 95.4154,131.587 93.7488,132.92 91.5,133.5C 91.5,133.167 91.5,132.833 91.5,132.5C 92.922,131.075 94.5887,130.075 96.5,129.5 Z"/></g>
<g><path style="opacity:0.22" fill="#efd7b2" d="M 90.5,133.5 C 90.8333,133.5 91.1667,133.5 91.5,133.5C 90.8783,134.627 90.045,135.627 89,136.5C 88.4153,135.002 88.9153,134.002 90.5,133.5 Z"/></g>
<g><path style="opacity:0.612" fill="#e9c690" d="M 663.5,134.5 C 665.027,134.427 666.027,135.094 666.5,136.5C 664.973,136.573 663.973,135.906 663.5,134.5 Z"/></g>
<g><path style="opacity:0.467" fill="#f0d09f" d="M 708.5,134.5 C 710.686,134.511 711.519,135.511 711,137.5C 709.955,136.627 709.122,135.627 708.5,134.5 Z"/></g>
<g><path style="opacity:0.612" fill="#e9c58e" d="M 666.5,136.5 C 668.027,136.427 669.027,137.094 669.5,138.5C 667.973,138.573 666.973,137.906 666.5,136.5 Z"/></g>
<g><path style="opacity:0.18" fill="#f1d2a3" d="M 92.5,146.5 C 98.1667,146.5 103.833,146.5 109.5,146.5C 110.209,147.404 111.209,147.737 112.5,147.5C 111.081,148.451 109.415,148.784 107.5,148.5C 102.5,147.833 97.5,147.167 92.5,146.5 Z"/></g>
<g><path style="opacity:0.176" fill="#f3dab2" d="M 691.5,146.5 C 696.5,146.5 701.5,146.5 706.5,146.5C 701.833,147.167 697.167,147.833 692.5,148.5C 690.585,148.784 688.919,148.451 687.5,147.5C 689.099,147.768 690.432,147.434 691.5,146.5 Z"/></g>
<g><path style="opacity:0.86" fill="#c78f2b" d="M 354.5,149.5 C 364.654,147.496 369.154,151.496 368,161.5C 367.215,163.286 366.049,164.786 364.5,166C 368.89,168.78 370.89,172.78 370.5,178C 369.071,192.441 361.405,197.774 347.5,194C 345.522,191.503 345.022,188.669 346,185.5C 346.893,184.919 347.893,184.585 349,184.5C 352.261,186.243 355.428,188.243 358.5,190.5C 362.958,188.58 364.458,185.246 363,180.5C 360.833,175.667 357.333,172.167 352.5,170C 358.603,167.625 360.769,163.459 359,157.5C 357.758,156.128 356.258,155.128 354.5,154.5C 351.6,155.443 349.267,157.11 347.5,159.5C 347.167,159 346.833,158.5 346.5,158C 348.007,153.995 350.674,151.161 354.5,149.5 Z"/></g>
<g><path style="opacity:0.883" fill="#c78f2b" d="M 382.5,149.5 C 391.851,149.344 397.018,154.011 398,163.5C 399.066,171.994 398.399,180.328 396,188.5C 390.402,196.909 384.068,197.576 377,190.5C 372.333,178.5 372.333,166.5 377,154.5C 378.73,152.598 380.563,150.931 382.5,149.5 Z M 385.5,151.5 C 387.61,152.453 388.777,154.119 389,156.5C 389.667,167.167 389.667,177.833 389,188.5C 386.946,195.104 384.946,195.104 383,188.5C 382.333,177.5 382.333,166.5 383,155.5C 383.662,154.016 384.496,152.683 385.5,151.5 Z"/></g>
<g><path style="opacity:0.871" fill="#c78f2b" d="M 515.5,149.5 C 517.411,149.574 518.578,150.574 519,152.5C 523.608,165.657 528.608,178.657 534,191.5C 536.587,194.034 539.253,194.034 542,191.5C 542.667,178.833 542.667,166.167 542,153.5C 540.829,152.107 539.329,151.273 537.5,151C 542.864,150.171 548.198,150.337 553.5,151.5C 557.098,160.461 560.598,169.461 564,178.5C 567.53,169.577 570.863,160.577 574,151.5C 579.416,150.361 584.916,150.194 590.5,151C 588.671,151.273 587.171,152.107 586,153.5C 585.333,166.167 585.333,178.833 586,191.5C 587.171,192.893 588.671,193.727 590.5,194C 583.5,194.667 576.5,194.667 569.5,194C 571.676,193.837 573.509,193.004 575,191.5C 575.667,180.5 575.667,169.5 575,158.5C 570.823,170.885 565.99,182.885 560.5,194.5C 555.011,183.559 550.177,172.226 546,160.5C 545.333,170.833 545.333,181.167 546,191.5C 547.419,192.46 548.919,193.293 550.5,194C 539.5,194.667 528.5,194.667 517.5,194C 519.861,193.803 521.528,192.636 522.5,190.5C 521.199,187.573 520.199,184.573 519.5,181.5C 515.116,181.174 510.783,181.508 506.5,182.5C 504.816,185.612 504.15,188.946 504.5,192.5C 506.308,192.491 507.975,192.991 509.5,194C 504.833,194.667 500.167,194.667 495.5,194C 498.381,192.749 500.214,190.583 501,187.5C 505.938,174.849 510.772,162.182 515.5,149.5 Z M 512.5,165.5 C 514.578,169.874 516.578,174.374 518.5,179C 514.833,179.667 511.167,179.667 507.5,179C 509.31,174.548 510.976,170.048 512.5,165.5 Z"/></g>
<g><path style="opacity:0.884" fill="#c78f2b" d="M 208.5,151.5 C 219.321,150.505 230.321,150.172 241.5,150.5C 241.824,154.555 241.491,158.555 240.5,162.5C 239.715,157.216 236.715,154.049 231.5,153C 228.854,152.503 226.187,152.336 223.5,152.5C 223.5,158.833 223.5,165.167 223.5,171.5C 229.118,170.549 232.452,167.215 233.5,161.5C 234.833,168.833 234.833,176.167 233.5,183.5C 232.452,177.785 229.118,174.451 223.5,173.5C 223.334,179.176 223.501,184.843 224,190.5C 225.236,192.538 227.069,193.705 229.5,194C 222.5,194.667 215.5,194.667 208.5,194C 210.329,193.727 211.829,192.893 213,191.5C 213.667,178.833 213.667,166.167 213,153.5C 211.89,151.963 210.39,151.297 208.5,151.5 Z"/></g>
<g><path style="opacity:0.914" fill="#c78f2b" d="M 244.5,151.5 C 251.321,150.345 258.321,150.179 265.5,151C 263.069,151.295 261.236,152.462 260,154.5C 259.333,166.833 259.333,179.167 260,191.5C 261.648,192.717 263.481,193.55 265.5,194C 258.5,194.667 251.5,194.667 244.5,194C 246.329,193.727 247.829,192.893 249,191.5C 249.667,178.833 249.667,166.167 249,153.5C 247.89,151.963 246.39,151.297 244.5,151.5 Z"/></g>
<g><path style="opacity:0.901" fill="#c78f2b" d="M 267.5,150.5 C 279.167,150.5 290.833,150.5 302.5,150.5C 302.823,154.226 302.489,157.893 301.5,161.5C 299.767,155.43 295.767,152.43 289.5,152.5C 289.333,165.171 289.5,177.838 290,190.5C 291.236,192.538 293.069,193.705 295.5,194C 288.5,194.667 281.5,194.667 274.5,194C 276.329,193.727 277.829,192.893 279,191.5C 279.5,178.504 279.667,165.504 279.5,152.5C 273.147,152.184 269.481,155.184 268.5,161.5C 267.511,157.893 267.177,154.226 267.5,150.5 Z"/></g>
<g><path style="opacity:0.874" fill="#c78f2b" d="M 305.5,151.5 C 312.321,150.345 319.321,150.179 326.5,151C 324.324,151.163 322.491,151.996 321,153.5C 320.333,164.833 320.333,176.167 321,187.5C 324.763,194.533 329.429,195.199 335,189.5C 337.422,178.298 338.089,166.964 337,155.5C 336.065,152.898 334.232,151.398 331.5,151C 336.167,150.333 340.833,150.333 345.5,151C 343.919,151.707 342.419,152.54 341,153.5C 340.667,163.5 340.333,173.5 340,183.5C 337.203,194.155 330.37,197.989 319.5,195C 314.929,193.427 312.096,190.26 311,185.5C 310.667,174.833 310.333,164.167 310,153.5C 308.89,151.963 307.39,151.297 305.5,151.5 Z"/></g>
<g><path style="opacity:0.874" fill="#c78f2b" d="M 412.5,151.5 C 419.321,150.345 426.321,150.179 433.5,151C 431.324,151.163 429.491,151.996 428,153.5C 427.333,164.833 427.333,176.167 428,187.5C 431.763,194.533 436.429,195.199 442,189.5C 444.422,178.298 445.089,166.964 444,155.5C 443.065,152.898 441.232,151.398 438.5,151C 443.167,150.333 447.833,150.333 452.5,151C 450.919,151.707 449.419,152.54 448,153.5C 447.667,163.5 447.333,173.5 447,183.5C 444.203,194.155 437.37,197.989 426.5,195C 421.929,193.427 419.096,190.26 418,185.5C 417.667,174.833 417.333,164.167 417,153.5C 415.89,151.963 414.39,151.297 412.5,151.5 Z"/></g>
<g><path style="opacity:0.832" fill="#c78f2b" d="M 453.5,151.5 C 458.316,150.35 463.316,150.184 468.5,151C 474.456,159.079 480.289,167.245 486,175.5C 486.667,168.5 486.667,161.5 486,154.5C 484.992,152.741 483.492,151.574 481.5,151C 485.833,150.333 490.167,150.333 494.5,151C 492.919,151.707 491.419,152.54 490,153.5C 489.833,167.512 489.333,181.512 488.5,195.5C 479.454,184.615 470.954,173.281 463,161.5C 462.333,171.167 462.333,180.833 463,190.5C 464.236,192.538 466.069,193.705 468.5,194C 463.5,194.667 458.5,194.667 453.5,194C 455.931,193.705 457.764,192.538 459,190.5C 459.667,178.833 459.667,167.167 459,155.5C 457.982,153.072 456.148,151.738 453.5,151.5 Z"/></g>
<g><path style="opacity:0.114" fill="#f8e7cd" d="M 668.5,149.5 C 668.167,150.167 667.833,150.833 667.5,151.5C 666.243,150.377 666.576,149.711 668.5,149.5 Z"/></g>
<g><path style="opacity:0.075" fill="#f7e1c2" d="M 130.5,149.5 C 132.552,150.053 132.885,151.053 131.5,152.5C 131.443,151.391 131.11,150.391 130.5,149.5 Z"/></g>
<g><path style="opacity:0.686" fill="#ebc07e" d="M 726.5,157.5 C 727.268,158.263 727.768,159.263 728,160.5C 728.464,159.906 728.631,159.239 728.5,158.5C 729.622,160.288 729.789,162.288 729,164.5C 727.097,162.559 726.264,160.226 726.5,157.5 Z"/></g>
<g><path style="opacity:0.773" fill="#e9c183" d="M 774.5,154.5 C 774.56,153.957 774.893,153.624 775.5,153.5C 776.817,159.988 776.817,166.322 775.5,172.5C 775.823,166.31 775.49,160.31 774.5,154.5 Z"/></g>
<g><path style="opacity:0.996" fill="#eaba71" d="M 89.5,157.5 C 88.4154,159.587 86.7488,160.92 84.5,161.5C 85.5846,159.413 87.2512,158.08 89.5,157.5 Z"/></g>
<g><path style="opacity:0.075" fill="#f6e3c5" d="M 70.5,161.5 C 70.8333,161.5 71.1667,161.5 71.5,161.5C 69.804,165.364 69.4707,165.364 70.5,161.5 Z"/></g>
<g><path style="opacity:0.114" fill="#edd6b3" d="M 24.5,154.5 C 23.5119,159.64 23.1786,164.974 23.5,170.5C 22.1843,164.987 22.1843,159.32 23.5,153.5C 24.1067,153.624 24.44,153.957 24.5,154.5 Z"/></g>
<g><path style="opacity:0.929" fill="#f1c98e" d="M 678.5,166.5 C 680.027,166.427 681.027,167.094 681.5,168.5C 679.973,168.573 678.973,167.906 678.5,166.5 Z"/></g>
<g><path style="opacity:0.529" fill="#f2cf9b" d="M 753.5,167.5 C 753.573,169.027 752.906,170.027 751.5,170.5C 751.427,168.973 752.094,167.973 753.5,167.5 Z"/></g>
<g><path style="opacity:0.2" fill="#f3d5a9" d="M 74.5,169.5 C 74.8333,170.833 75.1667,170.833 75.5,169.5C 75.8333,169.5 76.1667,169.5 76.5,169.5C 75.9181,170.931 75.0848,172.264 74,173.5C 73.235,171.934 73.4017,170.601 74.5,169.5 Z"/></g>
<g><path style="opacity:0.792" fill="#ebca9a" d="M 56.5,171.5 C 58.4044,171.738 59.7377,172.738 60.5,174.5C 58.5956,174.262 57.2623,173.262 56.5,171.5 Z"/></g>
<g><path style="opacity:0.263" fill="#f1cf9c" d="M 722.5,169.5 C 723.167,169.833 723.833,170.167 724.5,170.5C 725.167,170.5 725.5,170.833 725.5,171.5C 726.573,172.251 726.74,173.251 726,174.5C 724.198,173.211 723.031,171.544 722.5,169.5 Z"/></g>
<g><path style="opacity:0.384" fill="#f3d2a1" d="M 751.5,170.5 C 751.573,172.027 750.906,173.027 749.5,173.5C 749.427,171.973 750.094,170.973 751.5,170.5 Z"/></g>
<g><path style="opacity:0.557" fill="#eac690" d="M 61.5,175.5 C 64.8211,176.098 65.8211,177.765 64.5,180.5C 63.925,178.589 62.925,176.922 61.5,175.5 Z"/></g>
<g><path style="opacity:1" fill="#df9c2b" d="M 81.5,219.5 C 75.9738,219.821 70.6405,219.488 65.5,218.5C 65.5,217.833 65.5,217.167 65.5,216.5C 67.4121,214.343 69.0787,212.009 70.5,209.5C 71.9063,209.027 72.573,208.027 72.5,206.5C 80.4035,190.465 93.2368,181.465 111,179.5C 114.818,179.531 118.485,180.198 122,181.5C 116.433,197.04 106.266,208.874 91.5,217C 88.2799,218.352 84.9466,219.186 81.5,219.5 Z"/></g>
<g><path style="opacity:0.992" fill="#e9c083" d="M 686.5,179.5 C 684.095,180.768 681.428,181.435 678.5,181.5C 680.838,179.96 683.505,179.294 686.5,179.5 Z"/></g>
<g><path style="opacity:1" fill="#de9c28" d="M 686.5,179.5 C 694.159,178.775 701.159,180.608 707.5,185C 712.669,189.003 717.336,193.503 721.5,198.5C 721.427,200.027 722.094,201.027 723.5,201.5C 725.9,203.296 727.567,205.63 728.5,208.5C 728.427,210.027 729.094,211.027 730.5,211.5C 731.737,212.965 732.737,214.632 733.5,216.5C 733.5,217.5 733.5,218.5 733.5,219.5C 728.355,220.691 723.355,220.691 718.5,219.5C 716.095,218.232 713.428,217.565 710.5,217.5C 700.789,213.469 692.789,207.136 686.5,198.5C 683.474,193.816 680.474,189.149 677.5,184.5C 677.557,183.391 677.89,182.391 678.5,181.5C 681.428,181.435 684.095,180.768 686.5,179.5 Z"/></g>
<g><path style="opacity:0.333" fill="#ecd5b3" d="M 678.5,181.5 C 677.89,182.391 677.557,183.391 677.5,184.5C 676.115,183.053 676.448,182.053 678.5,181.5 Z"/></g>
<g><path style="opacity:0.98" fill="#edbe78" d="M 734.5,180.5 C 735.924,182.515 736.59,184.848 736.5,187.5C 735.076,185.485 734.41,183.152 734.5,180.5 Z"/></g>
<g><path style="opacity:0.969" fill="#eec382" d="M 736.5,187.5 C 737.924,189.515 738.59,191.848 738.5,194.5C 737.076,192.485 736.41,190.152 736.5,187.5 Z"/></g>
<g><path style="opacity:0.918" fill="#efc990" d="M 721.5,198.5 C 722.906,198.973 723.573,199.973 723.5,201.5C 722.094,201.027 721.427,200.027 721.5,198.5 Z"/></g>
<g><path style="opacity:0.165" fill="#eacfa5" d="M 739.5,199.5 C 740.167,200.5 740.833,201.5 741.5,202.5C 741.657,203.873 741.49,205.207 741,206.5C 739.648,204.406 739.148,202.073 739.5,199.5 Z"/></g>
<g><path style="opacity:0.22" fill="#f1dab6" d="M 785.5,204.5 C 787.948,203.527 790.615,203.194 793.5,203.5C 793.784,205.415 793.451,207.081 792.5,208.5C 792.5,207.167 792.5,205.833 792.5,204.5C 790.167,204.5 787.833,204.5 785.5,204.5 Z"/></g>
<g><path style="opacity:0.114" fill="#ebd8b9" d="M 59.5,202.5 C 58.5146,208.041 57.848,208.375 57.5,203.5C 58.1667,203.167 58.8333,202.833 59.5,202.5 Z"/></g>
<g><path style="opacity:0.941" fill="#e8c185" d="M 782.5,204.5 C 780.485,205.924 778.152,206.59 775.5,206.5C 777.515,205.076 779.848,204.41 782.5,204.5 Z"/></g>
<g><path style="opacity:0.529" fill="#f1cc96" d="M 72.5,206.5 C 72.573,208.027 71.9063,209.027 70.5,209.5C 70.427,207.973 71.0937,206.973 72.5,206.5 Z"/></g>
<g><path style="opacity:0.439" fill="#ebc894" d="M 728.5,208.5 C 729.906,208.973 730.573,209.973 730.5,211.5C 729.094,211.027 728.427,210.027 728.5,208.5 Z"/></g>
<g><path style="opacity:0.784" fill="#955e0f" d="M 204.5,212.5 C 333.171,211.835 461.504,212.502 589.5,214.5C 460.829,215.165 332.496,214.498 204.5,212.5 Z"/></g>
<g><path style="opacity:0.18" fill="#cbb392" d="M 204.5,212.5 C 332.496,214.498 460.829,215.165 589.5,214.5C 461.001,215.5 332.334,215.833 203.5,215.5C 203.263,214.209 203.596,213.209 204.5,212.5 Z"/></g>
<g><path style="opacity:0.282" fill="#eccfa5" d="M 48.5,214.5 C 50.0269,214.427 51.0269,215.094 51.5,216.5C 49.9731,216.573 48.9731,215.906 48.5,214.5 Z"/></g>
<g><path style="opacity:0.89" fill="#f0c98d" d="M 765.5,212.5 C 763.5,215.167 761.167,217.5 758.5,219.5C 759.833,216.167 762.167,213.833 765.5,212.5 Z"/></g>
<g><path style="opacity:1" fill="#ebbc72" d="M 710.5,217.5 C 713.428,217.565 716.095,218.232 718.5,219.5C 715.505,219.706 712.838,219.04 710.5,217.5 Z"/></g>
<g><path style="opacity:0.251" fill="#edcfa1" d="M 734.5,213.5 C 735.483,217.298 735.817,221.298 735.5,225.5C 734.833,223.5 734.167,221.5 733.5,219.5C 733.5,218.5 733.5,217.5 733.5,216.5C 734.04,215.439 734.374,214.439 734.5,213.5 Z"/></g>
<g><path style="opacity:0.906" fill="#edc993" d="M 40.5,218.5 C 41.9063,218.973 42.573,219.973 42.5,221.5C 41.0937,221.027 40.427,220.027 40.5,218.5 Z"/></g>
<g><path style="opacity:0.906" fill="#efc98e" d="M 92.5,221.5 C 92.0269,222.906 91.0269,223.573 89.5,223.5C 89.9731,222.094 90.9731,221.427 92.5,221.5 Z"/></g>
<g><path style="opacity:0.557" fill="#e9c58f" d="M 44.5,224.5 C 45.9063,224.973 46.573,225.973 46.5,227.5C 45.0937,227.027 44.427,226.027 44.5,224.5 Z"/></g>
<g><path style="opacity:0.498" fill="#ebc281" d="M 64.5,217.5 C 64.5,218.167 64.8333,218.5 65.5,218.5C 70.6405,219.488 75.9738,219.821 81.5,219.5C 76.0247,220.489 70.358,220.822 64.5,220.5C 64.5,228.833 64.5,237.167 64.5,245.5C 63.1667,236.167 63.1667,226.833 64.5,217.5 Z"/></g>
<g><path style="opacity:0.773" fill="#eac896" d="M 83.5,228.5 C 83.573,230.027 82.9063,231.027 81.5,231.5C 81.427,229.973 82.0937,228.973 83.5,228.5 Z"/></g>
<g><path style="opacity:0.216" fill="#f0d8b4" d="M 56.5,224.5 C 56.6665,234.172 56.4998,243.839 56,253.5C 54.9914,251.975 54.4914,250.308 54.5,248.5C 55.1667,240.5 55.8333,232.5 56.5,224.5 Z"/></g>
<g><path style="opacity:0.498" fill="#eac997" d="M 79.5,233.5 C 79.573,235.027 78.9063,236.027 77.5,236.5C 77.427,234.973 78.0937,233.973 79.5,233.5 Z"/></g>
<g><path style="opacity:0.868" fill="#c78f2b" d="M 260.5,236.5 C 265.65,235.349 270.984,235.183 276.5,236C 281.898,239.555 282.731,244.055 279,249.5C 276.096,251.227 272.93,251.893 269.5,251.5C 269.335,254.85 269.502,258.183 270,261.5C 270.75,262.126 271.584,262.626 272.5,263C 268.5,263.667 264.5,263.667 260.5,263C 261.416,262.626 262.25,262.126 263,261.5C 263.667,253.5 263.667,245.5 263,237.5C 262.329,236.748 261.496,236.414 260.5,236.5 Z M 269.5,237.5 C 274.368,239.218 275.702,242.551 273.5,247.5C 272.672,248.415 271.672,249.081 270.5,249.5C 269.509,245.555 269.176,241.555 269.5,237.5 Z"/></g>
<g><path style="opacity:0.855" fill="#c78f2b" d="M 280.5,236.5 C 283.482,235.835 286.648,235.502 290,235.5C 299.835,233.203 304.169,236.87 303,246.5C 301.649,248.019 300.149,249.352 298.5,250.5C 300.794,255.114 303.794,259.114 307.5,262.5C 308.478,262.023 309.311,261.357 310,260.5C 310.667,253.167 310.667,245.833 310,238.5C 309.097,237.299 307.931,236.465 306.5,236C 314.5,235.333 322.5,235.333 330.5,236C 332.734,241.534 335.067,247.034 337.5,252.5C 340.297,247.11 342.297,241.443 343.5,235.5C 353.833,235.5 364.167,235.5 374.5,235.5C 374.813,238.247 374.48,240.914 373.5,243.5C 371.744,238.953 368.411,236.953 363.5,237.5C 363.177,241.226 363.511,244.893 364.5,248.5C 366.691,247.119 368.024,245.119 368.5,242.5C 369.833,247.167 369.833,251.833 368.5,256.5C 368.124,253.611 366.624,251.611 364,250.5C 363.333,253.833 363.333,257.167 364,260.5C 369.568,262.132 373.401,260.132 375.5,254.5C 375.876,257.373 375.876,260.373 375.5,263.5C 364.162,263.667 352.828,263.5 341.5,263C 342.416,262.626 343.25,262.126 344,261.5C 344.667,255.167 344.667,248.833 344,242.5C 341.647,249.734 338.813,256.734 335.5,263.5C 332.17,257.498 329.337,251.164 327,244.5C 326.333,250.167 326.333,255.833 327,261.5C 327.75,262.126 328.584,262.626 329.5,263C 319.167,263.667 308.833,263.667 298.5,263C 295.874,258.916 293.374,254.75 291,250.5C 290.333,254.167 290.333,257.833 291,261.5C 291.75,262.126 292.584,262.626 293.5,263C 289.167,263.667 284.833,263.667 280.5,263C 282.333,262.5 283.5,261.333 284,259.5C 284.667,252.833 284.667,246.167 284,239.5C 283.578,237.574 282.411,236.574 280.5,236.5 Z M 318.5,236.5 C 321.238,235.965 323.072,236.965 324,239.5C 324.667,246.5 324.667,253.5 324,260.5C 321.667,263.167 319.333,263.167 317,260.5C 316.333,253.167 316.333,245.833 317,238.5C 317.717,237.956 318.217,237.289 318.5,236.5 Z M 352.5,236.5 C 354.39,236.297 355.89,236.963 357,238.5C 357.667,245.833 357.667,253.167 357,260.5C 355.604,262.527 353.938,262.86 352,261.5C 351.199,253.088 351.366,244.755 352.5,236.5 Z M 290.5,237.5 C 296.377,238.242 298.044,241.409 295.5,247C 293.975,248.009 292.308,248.509 290.5,248.5C 290.5,244.833 290.5,241.167 290.5,237.5 Z"/></g>
<g><path style="opacity:0.874" fill="#c78f2b" d="M 377.5,236.5 C 380.482,235.835 383.648,235.502 387,235.5C 396.835,233.203 401.169,236.87 400,246.5C 398.649,248.019 397.149,249.352 395.5,250.5C 397.951,255.109 400.951,259.276 404.5,263C 401.5,263.667 398.5,263.667 395.5,263C 392.874,258.916 390.374,254.75 388,250.5C 387.333,254.167 387.333,257.833 388,261.5C 388.75,262.126 389.584,262.626 390.5,263C 386.167,263.667 381.833,263.667 377.5,263C 379.333,262.5 380.5,261.333 381,259.5C 381.667,252.833 381.667,246.167 381,239.5C 380.578,237.574 379.411,236.574 377.5,236.5 Z M 387.5,237.5 C 393.377,238.242 395.044,241.409 392.5,247C 390.975,248.009 389.308,248.509 387.5,248.5C 387.5,244.833 387.5,241.167 387.5,237.5 Z"/></g>
<g><path style="opacity:0.905" fill="#c78f2b" d="M 410.5,236.5 C 414.981,235.352 419.648,235.185 424.5,236C 422.939,236.318 421.772,237.151 421,238.5C 420.333,245.833 420.333,253.167 421,260.5C 427.084,262.198 430.918,259.865 432.5,253.5C 433.553,256.815 433.553,260.148 432.5,263.5C 425.159,263.666 417.826,263.5 410.5,263C 412.333,262.5 413.5,261.333 414,259.5C 414.667,252.833 414.667,246.167 414,239.5C 413.578,237.574 412.411,236.574 410.5,236.5 Z"/></g>
<g><path style="opacity:0.815" fill="#c78f2b" d="M 434.5,236.5 C 438.981,235.352 443.648,235.185 448.5,236C 447.234,236.309 446.067,236.809 445,237.5C 444.333,244.167 444.333,250.833 445,257.5C 447.895,262.66 450.895,262.66 454,257.5C 454.831,250.808 454.664,244.142 453.5,237.5C 452.692,237.192 452.025,236.692 451.5,236C 454.5,235.333 457.5,235.333 460.5,236C 458.667,236.5 457.5,237.667 457,239.5C 456.667,246.167 456.333,252.833 456,259.5C 451.178,263.962 445.845,264.629 440,261.5C 439.027,259.608 438.36,257.608 438,255.5C 437.667,249.5 437.333,243.5 437,237.5C 436.329,236.748 435.496,236.414 434.5,236.5 Z"/></g>
<g><path style="opacity:0.842" fill="#c78f2b" d="M 470.5,235.5 C 474.911,235.021 479.078,235.688 483,237.5C 483.667,236.833 484.333,236.167 485,235.5C 485.667,238.5 485.667,241.5 485,244.5C 483.147,240.735 480.147,238.402 476,237.5C 471.908,238.594 469.574,241.261 469,245.5C 468.342,249.572 468.675,253.572 470,257.5C 472.189,260.691 475.022,261.691 478.5,260.5C 480.13,257.104 479.463,254.271 476.5,252C 480.5,251.333 484.5,251.333 488.5,252C 486.127,254.64 484.793,257.807 484.5,261.5C 467.095,266.591 459.928,260.258 463,242.5C 464.742,239.254 467.242,236.921 470.5,235.5 Z"/></g>
<g><path style="opacity:0.853" fill="#c78f2b" d="M 499.5,235.5 C 500.496,235.414 501.329,235.748 502,236.5C 504.667,243.833 507.333,251.167 510,258.5C 512.001,263.189 514.334,263.522 517,259.5C 517.667,252.833 517.667,246.167 517,239.5C 516.5,237.667 515.333,236.5 513.5,236C 520.608,235.076 527.608,235.409 534.5,237C 537.88,242.527 536.88,247.027 531.5,250.5C 533.951,255.109 536.951,259.276 540.5,263C 537.5,263.667 534.5,263.667 531.5,263C 528.874,258.916 526.374,254.75 524,250.5C 523.333,254.167 523.333,257.833 524,261.5C 524.75,262.126 525.584,262.626 526.5,263C 518.167,263.667 509.833,263.667 501.5,263C 502.516,262.481 503.182,261.647 503.5,260.5C 502.954,258.865 502.62,257.199 502.5,255.5C 499.753,255.187 497.086,255.52 494.5,256.5C 492.782,259.473 493.449,261.64 496.5,263C 493.5,263.667 490.5,263.667 487.5,263C 489.049,261.786 490.215,260.286 491,258.5C 493.847,250.812 496.68,243.146 499.5,235.5 Z M 523.5,237.5 C 529.377,238.242 531.044,241.409 528.5,247C 526.975,248.009 525.308,248.509 523.5,248.5C 523.5,244.833 523.5,241.167 523.5,237.5 Z M 497.5,246.5 C 499.098,248.395 500.432,250.562 501.5,253C 499.421,253.808 497.421,253.641 495.5,252.5C 496.747,250.677 497.414,248.677 497.5,246.5 Z"/></g>
<g><path style="opacity:0.498" fill="#eac996" d="M 721.5,235.5 C 722.906,235.973 723.573,236.973 723.5,238.5C 722.094,238.027 721.427,237.027 721.5,235.5 Z"/></g>
<g><path style="opacity:0.875" fill="#e7ba70" d="M 742.5,221.5 C 743.167,230.167 743.833,238.833 744.5,247.5C 744.509,249.308 744.009,250.975 743,252.5C 742.5,242.172 742.334,231.839 742.5,221.5 Z"/></g>
<g><path style="opacity:0.2" fill="#f3d8af" d="M 723.5,238.5 C 724.906,238.973 725.573,239.973 725.5,241.5C 724.094,241.027 723.427,240.027 723.5,238.5 Z"/></g>
<g><path style="opacity:0.306" fill="#f4d5a7" d="M 75.5,239.5 C 75.573,241.027 74.9063,242.027 73.5,242.5C 73.427,240.973 74.0937,239.973 75.5,239.5 Z"/></g>
<g><path style="opacity:0.598" fill="#f1d1a0" d="M 686.5,245.5 C 682.988,244.945 679.988,245.612 677.5,247.5C 676.596,246.791 676.263,245.791 676.5,244.5C 680.042,244.187 683.375,244.521 686.5,245.5 Z"/></g>
<g><path style="opacity:0.957" fill="#ecc68f" d="M 735.5,236.5 C 735.815,240.371 735.482,244.038 734.5,247.5C 734.062,247.565 733.728,247.399 733.5,247C 734.135,243.397 734.802,239.897 735.5,236.5 Z"/></g>
<g><path style="opacity:0.612" fill="#f0ce9b" d="M 28.5,247.5 C 30.0269,247.427 31.0269,248.094 31.5,249.5C 29.9731,249.573 28.9731,248.906 28.5,247.5 Z"/></g>
<g><path style="opacity:0.557" fill="#f0cc94" d="M 34.5,251.5 C 36.0269,251.427 37.0269,252.094 37.5,253.5C 35.9731,253.573 34.9731,252.906 34.5,251.5 Z"/></g>
<g><path style="opacity:0.306" fill="#f2d3a5" d="M 708.5,252.5 C 710.027,252.427 711.027,253.094 711.5,254.5C 709.973,254.573 708.973,253.906 708.5,252.5 Z"/></g>
<g><path style="opacity:0.075" fill="#ecd8b9" d="M 731.5,253.5 C 732.167,253.5 732.833,253.5 733.5,253.5C 733.263,257.289 732.596,257.289 731.5,253.5 Z"/></g>
<g><path style="opacity:0.988" fill="#e7b973" d="M 777.5,254.5 C 775.485,255.924 773.152,256.59 770.5,256.5C 772.515,255.076 774.848,254.41 777.5,254.5 Z"/></g>
<g><path style="opacity:0.875" fill="#e7bb75" d="M 47.5,257.5 C 50.1522,257.41 52.4855,258.076 54.5,259.5C 51.8478,259.59 49.5145,258.924 47.5,257.5 Z"/></g>
<g><path style="opacity:0.875" fill="#ecbe78" d="M 719.5,257.5 C 722.152,257.41 724.485,258.076 726.5,259.5C 723.848,259.59 721.515,258.924 719.5,257.5 Z"/></g>
<g><path style="opacity:0.043" fill="#f6e5cb" d="M 70.5,259.5 C 69.791,260.404 68.791,260.737 67.5,260.5C 67.5,261.5 67.5,262.5 67.5,263.5C 66.5655,262.432 66.2322,261.099 66.5,259.5C 67.8333,259.5 69.1667,259.5 70.5,259.5 Z"/></g>
<g><path style="opacity:0.753" fill="#eecd9e" d="M 709.5,258.5 C 710.906,258.973 711.573,259.973 711.5,261.5C 710.094,261.027 709.427,260.027 709.5,258.5 Z"/></g>
<g><path style="opacity:0.055" fill="#f8e6cb" d="M 54.5,259.5 C 55.5,259.5 56.5,259.5 57.5,259.5C 57.5,260.5 57.5,261.5 57.5,262.5C 56.5,261.5 55.5,260.5 54.5,259.5 Z"/></g>
<g><path style="opacity:0.89" fill="#e9c48b" d="M 89.5,259.5 C 89.573,261.027 88.9063,262.027 87.5,262.5C 87.427,260.973 88.0937,259.973 89.5,259.5 Z"/></g>
<g><path style="opacity:0.698" fill="#edc484" d="M 732.5,262.5 C 732.59,265.152 731.924,267.485 730.5,269.5C 730.41,266.848 731.076,264.515 732.5,262.5 Z"/></g>
<g><path style="opacity:0.108" fill="#eddcc3" d="M 120.5,272.5 C 122.265,271.539 124.265,271.205 126.5,271.5C 126.737,272.791 126.404,273.791 125.5,274.5C 124.448,272.744 122.781,272.077 120.5,272.5 Z"/></g>
<g><path style="opacity:1" fill="#df9d2d" d="M 120.5,272.5 C 122.781,272.077 124.448,272.744 125.5,274.5C 123.149,285.051 119.316,295.051 114,304.5C 108.412,312.879 100.579,317.546 90.5,318.5C 90.5,317.833 90.5,317.167 90.5,316.5C 90.366,314.708 90.6993,313.042 91.5,311.5C 93.0395,309.162 93.7062,306.495 93.5,303.5C 94.8787,294.076 98.8787,286.076 105.5,279.5C 107.027,279.573 108.027,278.906 108.5,277.5C 111.768,274.293 115.768,272.627 120.5,272.5 Z"/></g>
<g><path style="opacity:0.949" fill="#e8be7d" d="M 682.5,273.5 C 679.833,273.5 677.167,273.5 674.5,273.5C 674.5,274.5 674.5,275.5 674.5,276.5C 673.609,275.739 672.942,274.739 672.5,273.5C 675.98,272.194 679.313,272.194 682.5,273.5 Z"/></g>
<g><path style="opacity:1" fill="#df9c2a" d="M 682.5,273.5 C 685.425,273.46 688.091,274.293 690.5,276C 696.975,281.13 701.308,287.63 703.5,295.5C 703.41,298.152 704.076,300.485 705.5,302.5C 705.41,305.152 706.076,307.485 707.5,309.5C 708.301,311.042 708.634,312.708 708.5,314.5C 708.5,315.5 708.5,316.5 708.5,317.5C 707.5,317.5 706.5,317.5 705.5,317.5C 701.525,317.514 698.192,316.181 695.5,313.5C 695.027,312.094 694.027,311.427 692.5,311.5C 686.291,306.11 681.791,299.443 679,291.5C 677.19,286.571 675.69,281.571 674.5,276.5C 674.5,275.5 674.5,274.5 674.5,273.5C 677.167,273.5 679.833,273.5 682.5,273.5 Z"/></g>
<g><path style="opacity:1" fill="#eabb75" d="M 730.5,270.5 C 730.706,273.495 730.04,276.162 728.5,278.5C 728.565,275.572 729.232,272.905 730.5,270.5 Z"/></g>
<g><path style="opacity:0.89" fill="#f2ce98" d="M 14.5,275.5 C 16.0269,275.427 17.0269,276.094 17.5,277.5C 15.9731,277.573 14.9731,276.906 14.5,275.5 Z"/></g>
<g><path style="opacity:0.812" fill="#eac284" d="M 68.5,269.5 C 69.9238,271.515 70.5905,273.848 70.5,276.5C 69.0762,274.485 68.4095,272.152 68.5,269.5 Z"/></g>
<g><path style="opacity:0.798" fill="#c78f2b" d="M 153.5,276.5 C 156.64,275.359 159.973,275.192 163.5,276C 165.734,281.534 168.067,287.034 170.5,292.5C 173.297,287.11 175.297,281.443 176.5,275.5C 180.182,275.335 183.848,275.501 187.5,276C 186.584,276.374 185.75,276.874 185,277.5C 184.333,285.5 184.333,293.5 185,301.5C 185.75,302.126 186.584,302.626 187.5,303C 183.167,303.667 178.833,303.667 174.5,303C 175.416,302.626 176.25,302.126 177,301.5C 177.667,295.167 177.667,288.833 177,282.5C 174.647,289.734 171.813,296.734 168.5,303.5C 165.17,297.498 162.337,291.164 160,284.5C 159.333,290.167 159.333,295.833 160,301.5C 160.75,302.126 161.584,302.626 162.5,303C 159.5,303.667 156.5,303.667 153.5,303C 154.931,302.535 156.097,301.701 157,300.5C 157.667,293.5 157.667,286.5 157,279.5C 156.578,277.574 155.411,276.574 153.5,276.5 Z"/></g>
<g><path style="opacity:0.849" fill="#c78f2b" d="M 196.5,275.5 C 210.523,274.186 216.356,280.519 214,294.5C 210.757,302.538 204.923,305.371 196.5,303C 188.127,297.199 186.293,289.699 191,280.5C 192.73,278.598 194.563,276.931 196.5,275.5 Z M 200.5,277.5 C 202.17,277.751 203.67,278.418 205,279.5C 207.852,285.355 208.185,291.355 206,297.5C 204.057,301.486 201.39,302.153 198,299.5C 195.185,293.642 194.851,287.642 197,281.5C 197.69,279.65 198.856,278.316 200.5,277.5 Z"/></g>
<g><path style="opacity:0.859" fill="#c78f2b" d="M 215.5,276.5 C 218.64,275.359 221.973,275.192 225.5,276C 228.667,280.5 231.833,285 235,289.5C 235.667,285.5 235.667,281.5 235,277.5C 234.25,276.874 233.416,276.374 232.5,276C 242.828,275.5 253.161,275.334 263.5,275.5C 263.813,278.247 263.48,280.914 262.5,283.5C 261.672,279.668 259.339,277.668 255.5,277.5C 255.334,285.174 255.5,292.841 256,300.5C 256.903,301.701 258.069,302.535 259.5,303C 254.833,303.667 250.167,303.667 245.5,303C 246.931,302.535 248.097,301.701 249,300.5C 249.5,292.841 249.666,285.174 249.5,277.5C 248.07,277.421 246.736,277.754 245.5,278.5C 244.333,280.167 243.167,281.833 242,283.5C 241.814,281.1 241.314,278.766 240.5,276.5C 239.914,276.709 239.414,277.043 239,277.5C 237.889,286.085 237.056,294.752 236.5,303.5C 231.473,296.973 226.64,290.307 222,283.5C 221.17,289.528 221.336,295.528 222.5,301.5C 223.308,301.808 223.975,302.308 224.5,303C 221.5,303.667 218.5,303.667 215.5,303C 217.333,302.5 218.5,301.333 219,299.5C 219.667,292.833 219.667,286.167 219,279.5C 218.28,277.944 217.113,276.944 215.5,276.5 Z"/></g>
<g><path style="opacity:0.82" fill="#c78f2b" d="M 273.5,275.5 C 274.496,275.414 275.329,275.748 276,276.5C 278.667,283.833 281.333,291.167 284,298.5C 284.785,300.286 285.951,301.786 287.5,303C 283.5,303.667 279.5,303.667 275.5,303C 276.516,302.481 277.182,301.647 277.5,300.5C 276.954,298.865 276.62,297.199 276.5,295.5C 273.753,295.187 271.086,295.52 268.5,296.5C 266.782,299.473 267.449,301.64 270.5,303C 267.5,303.667 264.5,303.667 261.5,303C 263.049,301.786 264.215,300.286 265,298.5C 267.847,290.812 270.68,283.146 273.5,275.5 Z M 271.5,286.5 C 273.098,288.395 274.432,290.562 275.5,293C 273.421,293.808 271.421,293.641 269.5,292.5C 270.747,290.677 271.414,288.677 271.5,286.5 Z"/></g>
<g><path style="opacity:0.853" fill="#c78f2b" d="M 292.5,276.5 C 303.654,275.505 314.988,275.172 326.5,275.5C 326.813,278.247 326.48,280.914 325.5,283.5C 323.744,278.953 320.411,276.953 315.5,277.5C 315.177,281.226 315.511,284.893 316.5,288.5C 318.691,287.119 320.024,285.119 320.5,282.5C 321.833,287.167 321.833,291.833 320.5,296.5C 320.124,293.611 318.624,291.611 316,290.5C 315.333,293.833 315.333,297.167 316,300.5C 321.568,302.132 325.401,300.132 327.5,294.5C 327.876,297.373 327.876,300.373 327.5,303.5C 320.159,303.666 312.826,303.5 305.5,303C 306.931,302.535 308.097,301.701 309,300.5C 309.667,293.167 309.667,285.833 309,278.5C 307.267,276.398 305.267,276.065 303,277.5C 302.667,284.5 302.333,291.5 302,298.5C 299.612,303.226 295.778,304.726 290.5,303C 287.773,300.759 287.106,298.093 288.5,295C 292.89,293.888 294.224,295.388 292.5,299.5C 293.035,301.271 293.869,301.604 295,300.5C 295.667,292.833 295.667,285.167 295,277.5C 294.329,276.748 293.496,276.414 292.5,276.5 Z"/></g>
<g><path style="opacity:0.876" fill="#c78f2b" d="M 336.5,276.5 C 344.323,275.344 352.323,275.177 360.5,276C 363.667,280.5 366.833,285 370,289.5C 370.667,285.5 370.667,281.5 370,277.5C 369.25,276.874 368.416,276.374 367.5,276C 377.828,275.5 388.161,275.334 398.5,275.5C 398.813,278.247 398.48,280.914 397.5,283.5C 396.672,279.668 394.339,277.668 390.5,277.5C 390.334,285.174 390.5,292.841 391,300.5C 391.903,301.701 393.069,302.535 394.5,303C 389.833,303.667 385.167,303.667 380.5,303C 381.931,302.535 383.097,301.701 384,300.5C 384.5,292.841 384.666,285.174 384.5,277.5C 383.07,277.421 381.736,277.754 380.5,278.5C 379.333,280.167 378.167,281.833 377,283.5C 376.814,281.1 376.314,278.766 375.5,276.5C 374.914,276.709 374.414,277.043 374,277.5C 372.889,286.085 372.056,294.752 371.5,303.5C 366.473,296.973 361.64,290.307 357,283.5C 356.17,289.528 356.336,295.528 357.5,301.5C 358.308,301.808 358.975,302.308 359.5,303C 351.833,303.667 344.167,303.667 336.5,303C 337.931,302.535 339.097,301.701 340,300.5C 340.667,293.167 340.667,285.833 340,278.5C 339.184,277.177 338.017,276.511 336.5,276.5 Z M 348.5,276.5 C 350.993,276.329 352.826,277.329 354,279.5C 354.667,286.167 354.667,292.833 354,299.5C 352.174,303.037 349.84,303.371 347,300.5C 346.333,293.167 346.333,285.833 347,278.5C 347.717,277.956 348.217,277.289 348.5,276.5 Z"/></g>
<g><path style="opacity:0.869" fill="#c78f2b" d="M 399.5,276.5 C 406.313,275.509 413.313,275.175 420.5,275.5C 420.813,278.247 420.48,280.914 419.5,283.5C 417.744,278.953 414.411,276.953 409.5,277.5C 409.177,281.226 409.511,284.893 410.5,288.5C 412.691,287.119 414.024,285.119 414.5,282.5C 415.833,287.167 415.833,291.833 414.5,296.5C 414.124,293.611 412.624,291.611 410,290.5C 409.333,293.833 409.333,297.167 410,300.5C 415.568,302.132 419.401,300.132 421.5,294.5C 421.876,297.373 421.876,300.373 421.5,303.5C 414.159,303.666 406.826,303.5 399.5,303C 400.931,302.535 402.097,301.701 403,300.5C 403.667,293.167 403.667,285.833 403,278.5C 402.184,277.177 401.017,276.511 399.5,276.5 Z"/></g>
<g><path style="opacity:0.857" fill="#c78f2b" d="M 423.5,276.5 C 426.482,275.835 429.648,275.502 433,275.5C 442.835,273.203 447.169,276.87 446,286.5C 444.649,288.019 443.149,289.352 441.5,290.5C 443.783,294.94 446.616,298.94 450,302.5C 450.915,301.672 451.581,300.672 452,299.5C 452.667,292.833 452.667,286.167 452,279.5C 451.167,278 450,276.833 448.5,276C 451.833,275.333 455.167,275.333 458.5,276C 461.667,280.5 464.833,285 468,289.5C 468.667,285.5 468.667,281.5 468,277.5C 467.25,276.874 466.416,276.374 465.5,276C 468.5,275.333 471.5,275.333 474.5,276C 472.667,276.5 471.5,277.667 471,279.5C 470.832,287.521 470.332,295.521 469.5,303.5C 464.473,296.973 459.64,290.307 455,283.5C 454.17,289.528 454.336,295.528 455.5,301.5C 456.308,301.808 456.975,302.308 457.5,303C 452.167,303.667 446.833,303.667 441.5,303C 438.874,298.916 436.374,294.75 434,290.5C 433.333,294.167 433.333,297.833 434,301.5C 434.75,302.126 435.584,302.626 436.5,303C 432.167,303.667 427.833,303.667 423.5,303C 425.333,302.5 426.5,301.333 427,299.5C 427.667,292.833 427.667,286.167 427,279.5C 426.578,277.574 425.411,276.574 423.5,276.5 Z M 433.5,277.5 C 439.377,278.242 441.044,281.409 438.5,287C 436.975,288.009 435.308,288.509 433.5,288.5C 433.5,284.833 433.5,281.167 433.5,277.5 Z"/></g>
<g><path style="opacity:0.82" fill="#c78f2b" d="M 486.5,275.5 C 487.496,275.414 488.329,275.748 489,276.5C 491.667,283.833 494.333,291.167 497,298.5C 497.785,300.286 498.951,301.786 500.5,303C 496.5,303.667 492.5,303.667 488.5,303C 489.516,302.481 490.182,301.647 490.5,300.5C 489.954,298.865 489.62,297.199 489.5,295.5C 486.753,295.187 484.086,295.52 481.5,296.5C 479.782,299.473 480.449,301.64 483.5,303C 480.5,303.667 477.5,303.667 474.5,303C 476.049,301.786 477.215,300.286 478,298.5C 480.847,290.812 483.68,283.146 486.5,275.5 Z M 484.5,286.5 C 486.098,288.395 487.432,290.562 488.5,293C 486.421,293.808 484.421,293.641 482.5,292.5C 483.747,290.677 484.414,288.677 484.5,286.5 Z"/></g>
<g><path style="opacity:0.811" fill="#c78f2b" d="M 510.5,275.5 C 514.584,275.043 518.417,275.71 522,277.5C 522.667,276.833 523.333,276.167 524,275.5C 524.667,278.5 524.667,281.5 524,284.5C 518.23,274.877 513.23,275.21 509,285.5C 507.781,290.945 508.948,295.778 512.5,300C 517.02,301.683 520.853,300.516 524,296.5C 524.203,299.661 522.703,301.828 519.5,303C 506.386,304.552 500.552,298.719 502,285.5C 503.289,280.721 506.123,277.388 510.5,275.5 Z"/></g>
<g><path style="opacity:0.924" fill="#c78f2b" d="M 525.5,276.5 C 529.981,275.352 534.648,275.185 539.5,276C 538.069,276.465 536.903,277.299 536,278.5C 535.333,285.833 535.333,293.167 536,300.5C 536.903,301.701 538.069,302.535 539.5,303C 534.833,303.667 530.167,303.667 525.5,303C 526.931,302.535 528.097,301.701 529,300.5C 529.667,293.167 529.667,285.833 529,278.5C 528.184,277.177 527.017,276.511 525.5,276.5 Z"/></g>
<g><path style="opacity:0.849" fill="#c78f2b" d="M 548.5,275.5 C 562.523,274.186 568.356,280.519 566,294.5C 562.757,302.538 556.923,305.371 548.5,303C 540.127,297.199 538.293,289.699 543,280.5C 544.73,278.598 546.563,276.931 548.5,275.5 Z M 552.5,277.5 C 554.17,277.751 555.67,278.418 557,279.5C 559.852,285.355 560.185,291.355 558,297.5C 556.057,301.486 553.39,302.153 550,299.5C 547.185,293.642 546.851,287.642 549,281.5C 549.69,279.65 550.856,278.316 552.5,277.5 Z"/></g>
<g><path style="opacity:0.831" fill="#c78f2b" d="M 567.5,276.5 C 570.64,275.359 573.973,275.192 577.5,276C 580.667,280.5 583.833,285 587,289.5C 587.667,285.5 587.667,281.5 587,277.5C 586.25,276.874 585.416,276.374 584.5,276C 587.5,275.333 590.5,275.333 593.5,276C 591.667,276.5 590.5,277.667 590,279.5C 589.832,287.521 589.332,295.521 588.5,303.5C 583.473,296.973 578.64,290.307 574,283.5C 573.17,289.528 573.336,295.528 574.5,301.5C 575.308,301.808 575.975,302.308 576.5,303C 573.5,303.667 570.5,303.667 567.5,303C 569.333,302.5 570.5,301.333 571,299.5C 571.667,292.833 571.667,286.167 571,279.5C 570.28,277.944 569.113,276.944 567.5,276.5 Z"/></g>
<g><path style="opacity:0.863" fill="#c78f2b" d="M 605.5,275.5 C 606.496,275.414 607.329,275.748 608,276.5C 610.667,283.833 613.333,291.167 616,298.5C 617.699,303.062 619.699,303.395 622,299.5C 622.667,292.833 622.667,286.167 622,279.5C 621.5,277.667 620.333,276.5 618.5,276C 623.167,275.333 627.833,275.333 632.5,276C 630.939,276.318 629.772,277.151 629,278.5C 628.333,285.833 628.333,293.167 629,300.5C 635.084,302.198 638.918,299.865 640.5,293.5C 641.553,296.815 641.553,300.148 640.5,303.5C 629.495,303.667 618.495,303.5 607.5,303C 608.516,302.481 609.182,301.647 609.5,300.5C 608.954,298.865 608.62,297.199 608.5,295.5C 605.753,295.187 603.086,295.52 600.5,296.5C 598.782,299.473 599.449,301.64 602.5,303C 599.5,303.667 596.5,303.667 593.5,303C 595.049,301.786 596.215,300.286 597,298.5C 599.847,290.812 602.68,283.146 605.5,275.5 Z M 603.5,286.5 C 605.098,288.395 606.432,290.562 607.5,293C 605.421,293.808 603.421,293.641 601.5,292.5C 602.747,290.677 603.414,288.677 603.5,286.5 Z"/></g>
<g><path style="opacity:0.875" fill="#f0ca90" d="M 108.5,277.5 C 108.027,278.906 107.027,279.573 105.5,279.5C 105.973,278.094 106.973,277.427 108.5,277.5 Z"/></g>
<g><path style="opacity:0.792" fill="#ebca9b" d="M 58.5,279.5 C 59.1667,279.833 59.8333,280.167 60.5,280.5C 60.5,281.167 60.5,281.833 60.5,282.5C 59.0937,282.027 58.427,281.027 58.5,279.5 Z"/></g>
<g><path style="opacity:0.035" fill="#edd6b4" d="M 738.5,278.5 C 738.328,279.492 738.662,280.158 739.5,280.5C 739.154,282.363 738.154,283.196 736.5,283C 737.099,281.378 737.766,279.878 738.5,278.5 Z"/></g>
<g><path style="opacity:0.239" fill="#e9cda3" d="M 61.5,281.5 C 62.5735,282.251 62.7401,283.251 62,284.5C 61.2828,283.956 60.7828,283.289 60.5,282.5C 61.1667,282.5 61.5,282.167 61.5,281.5 Z"/></g>
<g><path style="opacity:0.333" fill="#ebcea2" d="M 24.5,282.5 C 26.0269,282.427 27.0269,283.094 27.5,284.5C 25.9731,284.573 24.9731,283.906 24.5,282.5 Z"/></g>
<g><path style="opacity:0.263" fill="#f4d8af" d="M 81.5,288.5 C 79.4687,288.972 77.8021,289.972 76.5,291.5C 75.596,290.791 75.2627,289.791 75.5,288.5C 77.5,288.5 79.5,288.5 81.5,288.5 Z"/></g>
<g><path style="opacity:1" fill="#e09f32" d="M 108.5,343.5 C 107.608,332.487 109.108,321.82 113,311.5C 117.862,302.969 124.862,296.969 134,293.5C 136.975,310.245 132.475,324.745 120.5,337C 116.92,339.956 112.92,342.123 108.5,343.5 Z"/></g>
<g><path style="opacity:1" fill="#df9c2a" d="M 74.5,313.5 C 74.5,313.833 74.5,314.167 74.5,314.5C 75.9418,315.82 76.6085,317.486 76.5,319.5C 66.4767,325.949 55.81,327.616 44.5,324.5C 42.1617,322.96 39.4951,322.294 36.5,322.5C 25.4368,319.238 16.1034,313.405 8.5,305C 8.97777,303.358 9.97777,302.191 11.5,301.5C 13.0269,301.573 14.0269,300.906 14.5,299.5C 16.0269,299.573 17.0269,298.906 17.5,297.5C 32.5646,292.605 46.8979,294.438 60.5,303C 65.7332,305.779 70.3999,309.279 74.5,313.5 Z"/></g>
<g><path style="opacity:1" fill="#eabd7a" d="M 668.5,295.5 C 667.5,295.5 666.5,295.5 665.5,295.5C 665.5,299.833 665.5,304.167 665.5,308.5C 664.317,304.014 663.817,299.348 664,294.5C 664.333,294.167 664.667,293.833 665,293.5C 666.302,294.085 667.469,294.751 668.5,295.5 Z"/></g>
<g><path style="opacity:1" fill="#df9d2b" d="M 668.5,295.5 C 681.453,300.69 688.62,310.356 690,324.5C 690.499,330.491 690.666,336.491 690.5,342.5C 674.886,336.634 666.553,325.301 665.5,308.5C 665.5,304.167 665.5,299.833 665.5,295.5C 666.5,295.5 667.5,295.5 668.5,295.5 Z"/></g>
<g><path style="opacity:1" fill="#df9b28" d="M 734.5,324.5 C 732.485,323.076 730.152,322.41 727.5,322.5C 725.847,322.34 724.514,321.674 723.5,320.5C 722.89,319.609 722.557,318.609 722.5,317.5C 722.5,317.167 722.5,316.833 722.5,316.5C 723.167,316.167 723.833,315.833 724.5,315.5C 726.833,313.833 728.833,311.833 730.5,309.5C 730.833,308.5 731.5,307.833 732.5,307.5C 734.027,307.573 735.027,306.906 735.5,305.5C 736.659,303.75 738.326,302.75 740.5,302.5C 742.027,302.573 743.027,301.906 743.5,300.5C 745.05,299.559 746.716,298.893 748.5,298.5C 751.152,298.59 753.485,297.924 755.5,296.5C 767.991,292.41 779.491,294.41 790,302.5C 790.667,303.5 790.667,304.5 790,305.5C 774.569,321.147 756.069,327.481 734.5,324.5 Z"/></g>
<g><path style="opacity:0.988" fill="#ecbe79" d="M 755.5,296.5 C 753.485,297.924 751.152,298.59 748.5,298.5C 750.515,297.076 752.848,296.41 755.5,296.5 Z"/></g>
<g><path style="opacity:0.929" fill="#eac48b" d="M 17.5,297.5 C 17.0269,298.906 16.0269,299.573 14.5,299.5C 14.9731,298.094 15.9731,297.427 17.5,297.5 Z"/></g>
<g><path style="opacity:0.988" fill="#eabf7e" d="M 703.5,295.5 C 704.924,297.515 705.59,299.848 705.5,302.5C 704.076,300.485 703.41,298.152 703.5,295.5 Z"/></g>
<g><path style="opacity:0.929" fill="#f0c88c" d="M 14.5,299.5 C 14.0269,300.906 13.0269,301.573 11.5,301.5C 11.9731,300.094 12.9731,299.427 14.5,299.5 Z"/></g>
<g><path style="opacity:0.875" fill="#f1cd96" d="M 743.5,300.5 C 743.027,301.906 742.027,302.573 740.5,302.5C 740.973,301.094 741.973,300.427 743.5,300.5 Z"/></g>
<g><path style="opacity:0.918" fill="#f0c98e" d="M 735.5,305.5 C 735.027,306.906 734.027,307.573 732.5,307.5C 732.973,306.094 733.973,305.427 735.5,305.5 Z"/></g>
<g><path style="opacity:0.988" fill="#ecc48c" d="M 72.5,308.5 C 74.0481,308.821 74.7148,309.821 74.5,311.5C 73.5987,310.71 72.9321,309.71 72.5,308.5 Z"/></g>
<g><path style="opacity:0.792" fill="#edc382" d="M 705.5,302.5 C 706.924,304.515 707.59,306.848 707.5,309.5C 706.076,307.485 705.41,305.152 705.5,302.5 Z"/></g>
<g><path style="opacity:0.792" fill="#eec484" d="M 93.5,303.5 C 93.7062,306.495 93.0395,309.162 91.5,311.5C 91.5651,308.572 92.2318,305.905 93.5,303.5 Z"/></g>
<g><path style="opacity:0.333" fill="#eacb9d" d="M 715.5,308.5 C 715.573,310.027 714.906,311.027 713.5,311.5C 713.427,309.973 714.094,308.973 715.5,308.5 Z"/></g>
<g><path style="opacity:0.635" fill="#f1cb93" d="M 692.5,311.5 C 694.027,311.427 695.027,312.094 695.5,313.5C 693.973,313.573 692.973,312.906 692.5,311.5 Z"/></g>
<g><path style="opacity:0.812" fill="#eac68f" d="M 730.5,309.5 C 728.833,311.833 726.833,313.833 724.5,315.5C 724.5,314.833 724.5,314.167 724.5,313.5C 726.246,311.748 728.246,310.415 730.5,309.5 Z"/></g>
<g><path style="opacity:0.557" fill="#e9c58e" d="M 86.5,313.5 C 87.9063,313.973 88.573,314.973 88.5,316.5C 87.0937,316.027 86.427,315.027 86.5,313.5 Z"/></g>
<g><path style="opacity:0.635" fill="#eacda1" d="M 75.5,313.5 C 76.8897,314.899 77.8897,316.566 78.5,318.5C 77.8333,318.833 77.1667,319.167 76.5,319.5C 76.6085,317.486 75.9418,315.82 74.5,314.5C 75.1667,314.5 75.5,314.167 75.5,313.5 Z"/></g>
<g><path style="opacity:0.467" fill="#f3d8ae" d="M 655.5,317.5 C 654.041,317.433 652.708,317.766 651.5,318.5C 651.62,317.414 652.287,316.747 653.5,316.5C 654.416,316.543 655.083,316.876 655.5,317.5 Z"/></g>
<g><path style="opacity:1" fill="#df9d2c" d="M 149.5,322.5 C 149.294,325.495 149.96,328.162 151.5,330.5C 154.112,343.231 152.279,355.231 146,366.5C 144.242,368.765 142.075,370.432 139.5,371.5C 137.486,371.608 135.82,370.942 134.5,369.5C 134.5,368.833 134.167,368.5 133.5,368.5C 128.912,355.673 128.412,342.673 132,329.5C 134.651,321.471 139.984,317.471 148,317.5C 148.608,319.154 149.108,320.821 149.5,322.5 Z"/></g>
<g><path style="opacity:1" fill="#df9c2a" d="M 655.5,317.5 C 659.02,318.353 661.687,320.353 663.5,323.5C 663.427,325.027 664.094,326.027 665.5,326.5C 667.253,329.146 668.253,332.146 668.5,335.5C 668.5,342.5 668.5,349.5 668.5,356.5C 667.97,361.09 666.636,365.424 664.5,369.5C 663.833,369.5 663.5,369.833 663.5,370.5C 662.833,370.5 662.5,370.833 662.5,371.5C 661.833,371.5 661.5,371.833 661.5,372.5C 655.013,369.577 650.846,364.577 649,357.5C 645.97,347.397 645.804,337.397 648.5,327.5C 649.924,325.485 650.59,323.152 650.5,320.5C 650.328,319.508 650.662,318.842 651.5,318.5C 652.708,317.766 654.041,317.433 655.5,317.5 Z"/></g>
<g><path style="opacity:0.498" fill="#efcd99" d="M 708.5,314.5 C 709.222,314.918 709.722,315.584 710,316.5C 710.383,315.944 710.883,315.611 711.5,315.5C 710.89,317.434 709.89,319.101 708.5,320.5C 707.9,319.1 706.9,318.1 705.5,317.5C 706.5,317.5 707.5,317.5 708.5,317.5C 708.5,316.5 708.5,315.5 708.5,314.5 Z"/></g>
<g><path style="opacity:0.02" fill="#f0ddc1" d="M 720.5,318.5 C 720.5,317.833 720.833,317.5 721.5,317.5C 721.833,317.5 722.167,317.5 722.5,317.5C 722.557,318.609 722.89,319.609 723.5,320.5C 722.222,320.218 721.222,319.551 720.5,318.5 Z"/></g>
<g><path style="opacity:0.165" fill="#f5e1c3" d="M 88.5,316.5 C 89.1667,316.5 89.8333,316.5 90.5,316.5C 90.5,317.167 90.5,317.833 90.5,318.5C 90.5,318.833 90.5,319.167 90.5,319.5C 89.5987,318.71 88.9321,317.71 88.5,316.5 Z"/></g>
<g><path style="opacity:1" fill="#ecbb72" d="M 36.5,322.5 C 39.4951,322.294 42.1617,322.96 44.5,324.5C 41.5718,324.435 38.9052,323.768 36.5,322.5 Z"/></g>
<g><path style="opacity:0.988" fill="#eabe7d" d="M 727.5,322.5 C 730.152,322.41 732.485,323.076 734.5,324.5C 731.848,324.59 729.515,323.924 727.5,322.5 Z"/></g>
<g><path style="opacity:0.439" fill="#eac999" d="M 91.5,321.5 C 92.9063,321.973 93.573,322.973 93.5,324.5C 92.0937,324.027 91.427,323.027 91.5,321.5 Z"/></g>
<g><path style="opacity:0.757" fill="#c78f2b" d="M 483.5,324.5 C 485.857,324.337 488.19,324.503 490.5,325C 488.126,327.039 486.126,329.372 484.5,332C 483.552,332.483 482.552,332.649 481.5,332.5C 481.858,329.733 482.525,327.067 483.5,324.5 Z"/></g>
<g><path style="opacity:0.333" fill="#ebcea3" d="M 663.5,323.5 C 664.906,323.973 665.573,324.973 665.5,326.5C 664.094,326.027 663.427,325.027 663.5,323.5 Z"/></g>
<g><path style="opacity:0.557" fill="#e9c48d" d="M 706.5,323.5 C 706.573,325.027 705.906,326.027 704.5,326.5C 704.427,324.973 705.094,323.973 706.5,323.5 Z"/></g>
<g><path style="opacity:0.439" fill="#eaca9a" d="M 93.5,324.5 C 94.9063,324.973 95.573,325.973 95.5,327.5C 94.0937,327.027 93.427,326.027 93.5,324.5 Z"/></g>
<g><path style="opacity:0.792" fill="#edc386" d="M 650.5,320.5 C 650.59,323.152 649.924,325.485 648.5,327.5C 648.41,324.848 649.076,322.515 650.5,320.5 Z"/></g>
<g><path style="opacity:0.439" fill="#eaca9a" d="M 95.5,327.5 C 96.9063,327.973 97.573,328.973 97.5,330.5C 96.0937,330.027 95.427,329.027 95.5,327.5 Z"/></g>
<g><path style="opacity:0.635" fill="#f1ca90" d="M 149.5,322.5 C 150.768,324.905 151.435,327.572 151.5,330.5C 149.96,328.162 149.294,325.495 149.5,322.5 Z"/></g>
<g><path style="opacity:0.812" fill="#c78f2b" d="M 215.5,334.5 C 220.206,334.085 224.706,334.752 229,336.5C 229.308,335.692 229.808,335.025 230.5,334.5C 231.833,338.167 231.833,341.833 230.5,345.5C 224.851,333.547 219.351,333.547 214,345.5C 212.664,352.174 213.831,358.341 217.5,364C 222.954,365.947 227.288,364.447 230.5,359.5C 230.907,363 229.241,365.5 225.5,367C 209.228,368.048 203.061,360.548 207,344.5C 208.978,340.362 211.811,337.029 215.5,334.5 Z"/></g>
<g><path style="opacity:0.861" fill="#c78f2b" d="M 317.5,334.5 C 319.124,334.36 320.29,335.027 321,336.5C 324.064,346.371 327.898,355.871 332.5,365C 333.899,365.595 335.232,365.428 336.5,364.5C 337.833,355.5 337.833,346.5 336.5,337.5C 335.5,337 334.5,336.5 333.5,336C 340.608,335.076 347.608,335.409 354.5,337C 361.471,343.727 362.971,351.561 359,360.5C 357.039,363.135 354.539,364.969 351.5,366C 340.833,366.667 330.167,366.667 319.5,366C 322.974,364.266 323.474,361.766 321,358.5C 318.263,357.39 315.429,357.223 312.5,358C 309.216,361.765 309.883,364.432 314.5,366C 311.167,366.667 307.833,366.667 304.5,366C 306.617,364.269 308.117,362.102 309,359.5C 312.141,351.243 314.974,342.91 317.5,334.5 Z M 344.5,337.5 C 346.582,337.472 348.416,338.139 350,339.5C 354.088,346.681 354.421,354.014 351,361.5C 349.316,363.701 347.316,364.367 345,363.5C 344.5,354.84 344.334,346.173 344.5,337.5 Z M 315.5,347.5 C 317.837,349.507 319.171,352.173 319.5,355.5C 317.5,355.5 315.5,355.5 313.5,355.5C 314.167,352.833 314.833,350.167 315.5,347.5 Z"/></g>
<g><path style="opacity:0.812" fill="#c78f2b" d="M 551.5,334.5 C 556.206,334.085 560.706,334.752 565,336.5C 565.308,335.692 565.808,335.025 566.5,334.5C 567.833,338.167 567.833,341.833 566.5,345.5C 560.851,333.547 555.351,333.547 550,345.5C 548.664,352.174 549.831,358.341 553.5,364C 558.954,365.947 563.288,364.447 566.5,359.5C 566.907,363 565.241,365.5 561.5,367C 545.228,368.048 539.061,360.548 543,344.5C 544.978,340.362 547.811,337.029 551.5,334.5 Z"/></g>
<g><path style="opacity:0.848" fill="#c78f2b" d="M 578.5,334.5 C 593.938,333.641 600.438,340.975 598,356.5C 594.242,367.126 587.075,370.293 576.5,366C 569.119,358.599 567.619,350.099 572,340.5C 574.063,338.266 576.229,336.266 578.5,334.5 Z M 582.5,336.5 C 584.582,336.472 586.416,337.139 588,338.5C 590.902,346.033 591.235,353.7 589,361.5C 585.232,367.036 581.899,366.703 579,360.5C 576.195,351.786 577.361,343.786 582.5,336.5 Z"/></g>
<g><path style="opacity:0.869" fill="#c78f2b" d="M 232.5,336.5 C 242.325,335.342 252.325,335.175 262.5,336C 260.939,336.318 259.772,337.151 259,338.5C 258.095,346.911 258.428,355.245 260,363.5C 263.671,366.396 266.671,365.729 269,361.5C 269.667,353.5 269.667,345.5 269,337.5C 268.25,336.874 267.416,336.374 266.5,336C 276.933,335.05 287.266,335.383 297.5,337C 304.471,343.727 305.971,351.561 302,360.5C 300.039,363.135 297.539,364.969 294.5,366C 288.5,366.667 282.5,366.667 276.5,366C 277.5,365.5 278.5,365 279.5,364.5C 280.833,355.5 280.833,346.5 279.5,337.5C 277.5,336.167 275.5,336.167 273.5,337.5C 272.669,344.811 272.169,352.144 272,359.5C 269.517,367.079 264.35,369.579 256.5,367C 254.274,365.773 252.774,363.939 252,361.5C 251.667,353.5 251.333,345.5 251,337.5C 248.408,336.018 246.075,336.352 244,338.5C 243.333,346.833 243.333,355.167 244,363.5C 244.903,364.701 246.069,365.535 247.5,366C 242.5,366.667 237.5,366.667 232.5,366C 233.766,365.691 234.933,365.191 236,364.5C 236.667,355.5 236.667,346.5 236,337.5C 234.989,336.663 233.822,336.33 232.5,336.5 Z M 287.5,337.5 C 289.582,337.472 291.416,338.139 293,339.5C 297.088,346.681 297.421,354.014 294,361.5C 292.316,363.701 290.316,364.367 288,363.5C 287.5,354.84 287.334,346.173 287.5,337.5 Z"/></g>
<g><path style="opacity:0.889" fill="#c78f2b" d="M 369.5,336.5 C 375.653,335.347 381.986,335.18 388.5,336C 394.453,339.158 397.453,344.158 397.5,351C 397.252,356.765 394.919,361.431 390.5,365C 383.582,366.551 376.582,366.884 369.5,366C 370.5,365.5 371.5,365 372.5,364.5C 373.833,355.5 373.833,346.5 372.5,337.5C 371.583,336.873 370.583,336.539 369.5,336.5 Z M 380.5,337.5 C 382.582,337.472 384.416,338.139 386,339.5C 390.088,346.681 390.421,354.014 387,361.5C 385.316,363.701 383.316,364.367 381,363.5C 380.5,354.84 380.334,346.173 380.5,337.5 Z"/></g>
<g><path style="opacity:0.863" fill="#c78f2b" d="M 398.5,336.5 C 405.982,335.508 413.648,335.175 421.5,335.5C 421.665,338.518 421.498,341.518 421,344.5C 419.179,339.001 415.345,336.668 409.5,337.5C 409.176,341.555 409.509,345.555 410.5,349.5C 412.893,347.723 414.56,345.39 415.5,342.5C 416.833,347.833 416.833,353.167 415.5,358.5C 414.56,355.61 412.893,353.277 410.5,351.5C 409.341,355.122 409.175,358.789 410,362.5C 416.207,365.464 420.374,363.464 422.5,356.5C 423.553,359.815 423.553,363.148 422.5,366.5C 414.493,366.666 406.493,366.5 398.5,366C 399.766,365.691 400.933,365.191 402,364.5C 402.667,355.5 402.667,346.5 402,337.5C 400.989,336.663 399.822,336.33 398.5,336.5 Z"/></g>
<g><path style="opacity:0.821" fill="#c78f2b" d="M 433.5,336.5 C 437.311,335.355 441.311,335.188 445.5,336C 447.538,341.946 449.871,347.779 452.5,353.5C 455.101,347.696 457.101,341.696 458.5,335.5C 470.167,335.5 481.833,335.5 493.5,335.5C 493.665,338.518 493.498,341.518 493,344.5C 491.419,339.293 487.919,336.959 482.5,337.5C 482.334,341.514 482.501,345.514 483,349.5C 485.002,347.497 486.502,345.164 487.5,342.5C 488.833,347.833 488.833,353.167 487.5,358.5C 486.502,355.836 485.002,353.503 483,351.5C 482.333,355.5 482.333,359.5 483,363.5C 485.498,364.598 487.998,364.432 490.5,363C 492.123,360.92 493.623,358.754 495,356.5C 495.741,359.562 495.575,362.562 494.5,365.5C 481.846,366.666 469.18,366.833 456.5,366C 457.416,365.626 458.25,365.126 459,364.5C 459.667,357.5 459.667,350.5 459,343.5C 456.389,351.165 453.889,358.832 451.5,366.5C 450.5,366.5 449.5,366.5 448.5,366.5C 445.966,358.424 443.133,350.424 440,342.5C 439.333,349.5 439.333,356.5 440,363.5C 440.903,364.701 442.069,365.535 443.5,366C 440.167,366.667 436.833,366.667 433.5,366C 434.5,365.5 435.5,365 436.5,364.5C 437.665,355.518 437.832,346.518 437,337.5C 435.989,336.663 434.822,336.33 433.5,336.5 Z M 468.5,336.5 C 470.467,336.261 472.301,336.594 474,337.5C 474.667,346.5 474.667,355.5 474,364.5C 472,365.833 470,365.833 468,364.5C 467.195,355.089 467.362,345.756 468.5,336.5 Z"/></g>
<g><path style="opacity:0.862" fill="#c78f2b" d="M 496.5,336.5 C 501.316,335.35 506.316,335.184 511.5,336C 510.09,336.368 509.09,337.201 508.5,338.5C 510,340.833 511.5,343.167 513,345.5C 514.555,343.557 515.722,341.39 516.5,339C 516.241,337.739 515.574,336.739 514.5,336C 522.833,335.333 531.167,335.333 539.5,336C 538.069,336.465 536.903,337.299 536,338.5C 535.333,346.833 535.333,355.167 536,363.5C 536.903,364.701 538.069,365.535 539.5,366C 530.167,366.667 520.833,366.667 511.5,366C 512.672,365.581 513.672,364.915 514.5,364C 513.04,360.911 511.207,358.078 509,355.5C 507.167,358 505.333,360.5 503.5,363C 504.551,364.385 505.884,365.385 507.5,366C 503.833,366.667 500.167,366.667 496.5,366C 501.053,362.275 504.719,357.775 507.5,352.5C 505.132,348.626 502.966,344.626 501,340.5C 499.951,338.616 498.451,337.282 496.5,336.5 Z M 522.5,336.5 C 524.467,336.261 526.301,336.594 528,337.5C 528.667,346.5 528.667,355.5 528,364.5C 527.439,365.022 526.772,365.355 526,365.5C 523.679,364.513 522.013,362.846 521,360.5C 518.816,356.323 516.65,352.157 514.5,348C 516.982,344.021 519.649,340.188 522.5,336.5 Z"/></g>
<g><path style="opacity:0.792" fill="#ebcc9e" d="M 101.5,335.5 C 102.906,335.973 103.573,336.973 103.5,338.5C 102.094,338.027 101.427,337.027 101.5,335.5 Z"/></g>
<g><path style="opacity:1" fill="#e6b05c" d="M 668.5,335.5 C 669.198,338.897 669.865,342.397 670.5,346C 669.865,349.603 669.198,353.103 668.5,356.5C 668.5,349.5 668.5,342.5 668.5,335.5 Z"/></g>
<g><path style="opacity:0.996" fill="#e7b770" d="M 168.5,341.5 C 167.415,343.587 165.749,344.92 163.5,345.5C 164.585,343.413 166.251,342.08 168.5,341.5 Z"/></g>
<g><path style="opacity:0.004" fill="#f5d9b1" d="M 96.5,346.5 C 96.5,346.167 96.5,345.833 96.5,345.5C 98.2572,346.292 99.5905,347.625 100.5,349.5C 100.333,349.833 100.167,350.167 100,350.5C 98.8549,349.364 97.6883,348.364 96.5,347.5C 97.8333,347.167 97.8333,346.833 96.5,346.5 Z"/></g>
<g><path style="opacity:0.827" fill="#eac690" d="M 110.5,346.5 C 111.906,346.973 112.573,347.973 112.5,349.5C 111.094,349.027 110.427,348.027 110.5,346.5 Z"/></g>
<g><path style="opacity:0.004" fill="#f8e7ce" d="M 701.5,347.5 C 702.167,347.5 702.833,347.5 703.5,347.5C 702.086,349.054 700.419,350.388 698.5,351.5C 698.016,350.219 698.683,349.219 700.5,348.5C 701.167,348.5 701.5,348.167 701.5,347.5 Z"/></g>
<g><path style="opacity:0.584" fill="#e9c895" d="M 42.5,349.5 C 44.0269,349.427 45.0269,350.094 45.5,351.5C 43.9731,351.573 42.9731,350.906 42.5,349.5 Z"/></g>
<g><path style="opacity:0.98" fill="#eec383" d="M 175.5,347.5 C 176.924,349.515 177.59,351.848 177.5,354.5C 176.076,352.485 175.41,350.152 175.5,347.5 Z"/></g>
<g><path style="opacity:0.773" fill="#edc27f" d="M 623.5,348.5 C 623.59,351.152 622.924,353.485 621.5,355.5C 621.41,352.848 622.076,350.515 623.5,348.5 Z"/></g>
<g><path style="opacity:0.357" fill="#f3d2a2" d="M 51.5,355.5 C 53.0269,355.427 54.0269,356.094 54.5,357.5C 52.9731,357.573 51.9731,356.906 51.5,355.5 Z"/></g>
<g><path style="opacity:0.949" fill="#e8bb77" d="M 682.5,353.5 C 681.833,356.167 680.167,357.833 677.5,358.5C 678.833,356.5 680.5,354.833 682.5,353.5 Z"/></g>
<g><path style="opacity:0.949" fill="#edbd76" d="M 677.5,358.5 C 676.5,361.5 674.5,363.5 671.5,364.5C 673.167,362.167 675.167,360.167 677.5,358.5 Z"/></g>
<g><path style="opacity:0.612" fill="#e9ca9a" d="M 133.5,369.5 C 133.833,369.5 134.167,369.5 134.5,369.5C 135.82,370.942 137.486,371.608 139.5,371.5C 138.833,372.167 138.167,372.833 137.5,373.5C 135.833,372.5 134.5,371.167 133.5,369.5 Z"/></g>
<g><path style="opacity:1" fill="#df9d2c" d="M 127.5,378.5 C 127.5,378.833 127.5,379.167 127.5,379.5C 128.806,380.467 129.473,381.801 129.5,383.5C 125.181,390.34 118.847,394.173 110.5,395C 97.1728,396.571 84.1728,395.238 71.5,391C 67.147,389.712 66.3137,387.212 69,383.5C 74.3897,377.222 81.223,373.722 89.5,373C 102.574,372.1 115.241,373.934 127.5,378.5 Z"/></g>
<g><path style="opacity:1" fill="#df9c2b" d="M 731.5,387.5 C 731.167,388.167 730.833,388.833 730.5,389.5C 714.602,395.996 698.269,397.163 681.5,393C 679.273,392.059 677.273,390.892 675.5,389.5C 674.738,387.738 673.404,386.738 671.5,386.5C 669.75,385.341 668.75,383.674 668.5,381.5C 672.24,379.299 676.24,377.632 680.5,376.5C 683.152,376.59 685.485,375.924 687.5,374.5C 696.985,372.052 706.651,371.886 716.5,374C 723.706,376.236 728.706,380.736 731.5,387.5 Z"/></g>
<g><path style="opacity:0.996" fill="#ebbc73" d="M 687.5,374.5 C 685.485,375.924 683.152,376.59 680.5,376.5C 682.515,375.076 684.848,374.41 687.5,374.5 Z"/></g>
<g><path style="opacity:0.612" fill="#f2d5a9" d="M 128.5,378.5 C 130.389,379.604 132.055,380.937 133.5,382.5C 132.504,382.586 131.671,382.252 131,381.5C 130.722,382.416 130.222,383.082 129.5,383.5C 129.473,381.801 128.806,380.467 127.5,379.5C 128.167,379.5 128.5,379.167 128.5,378.5 Z"/></g>
<g><path style="opacity:0.861" fill="#c78f2b" d="M 353.5,383.5 C 364.797,383.311 368.63,388.644 365,399.5C 362.274,404.893 358.774,409.726 354.5,414C 359.144,415.193 363.311,414.36 367,411.5C 367.5,411.667 368,411.833 368.5,412C 367.39,415.049 366.723,418.216 366.5,421.5C 359.8,421.83 353.134,421.497 346.5,420.5C 350.849,414.467 354.682,408.133 358,401.5C 359.023,397.683 358.523,394.183 356.5,391C 352.627,389.176 349.794,390.342 348,394.5C 347.5,394 347,393.5 346.5,393C 347.543,388.803 349.876,385.636 353.5,383.5 Z"/></g>
<g><path style="opacity:0.859" fill="#c78f2b" d="M 377.5,383.5 C 385.843,383.003 390.343,387.003 391,395.5C 391.988,402.668 391.322,409.668 389,416.5C 384.097,422.769 378.764,423.102 373,417.5C 368.851,408.308 368.518,398.975 372,389.5C 373.36,386.977 375.193,384.977 377.5,383.5 Z M 379.5,385.5 C 381.776,385.756 382.943,387.09 383,389.5C 383.667,398.5 383.667,407.5 383,416.5C 382.131,419.763 380.797,420.096 379,417.5C 377.094,406.79 377.26,396.123 379.5,385.5 Z"/></g>
<g><path style="opacity:0.861" fill="#c78f2b" d="M 398.5,383.5 C 409.797,383.311 413.63,388.644 410,399.5C 407.274,404.893 403.774,409.726 399.5,414C 404.144,415.193 408.311,414.36 412,411.5C 412.5,411.667 413,411.833 413.5,412C 412.39,415.049 411.723,418.216 411.5,421.5C 404.8,421.83 398.134,421.497 391.5,420.5C 395.849,414.467 399.682,408.133 403,401.5C 404.023,397.683 403.523,394.183 401.5,391C 397.627,389.176 394.794,390.342 393,394.5C 392.5,394 392,393.5 391.5,393C 392.543,388.803 394.876,385.636 398.5,383.5 Z"/></g>
<g><path style="opacity:0.846" fill="#c78f2b" d="M 421.5,383.5 C 427.845,382.005 432.178,384.172 434.5,390C 433.686,392.627 432.353,394.96 430.5,397C 434.15,399.469 435.816,402.969 435.5,407.5C 434.361,419.123 428.028,423.623 416.5,421C 412.439,417.642 412.605,414.808 417,412.5C 419.925,413.906 422.758,415.573 425.5,417.5C 429.633,414.631 430.467,410.964 428,406.5C 425.651,403.983 423.151,401.65 420.5,399.5C 427.753,396.108 428.253,392.108 422,387.5C 419.501,388.083 417.501,389.416 416,391.5C 415.833,391 415.667,390.5 415.5,390C 417.014,387.322 419.014,385.155 421.5,383.5 Z"/></g>
<g><path style="opacity:0.941" fill="#eac48c" d="M 671.5,386.5 C 673.404,386.738 674.738,387.738 675.5,389.5C 673.596,389.262 672.262,388.262 671.5,386.5 Z"/></g>
<g><path style="opacity:0.71" fill="#f0c98f" d="M 139.5,387.5 C 141.027,387.427 142.027,388.094 142.5,389.5C 140.973,389.573 139.973,388.906 139.5,387.5 Z"/></g>
<g><path style="opacity:0.004" fill="#fae9d3" d="M 731.5,387.5 C 732.757,388.623 732.424,389.289 730.5,389.5C 730.833,388.833 731.167,388.167 731.5,387.5 Z"/></g>
<g><path style="opacity:0.02" fill="#ebd7b6" d="M 162.5,390.5 C 163.267,391.172 163.934,392.005 164.5,393C 163.002,393.585 162.002,393.085 161.5,391.5C 162.167,391.5 162.5,391.167 162.5,390.5 Z"/></g>
<g><path style="opacity:0.929" fill="#edc68d" d="M 627.5,398.5 C 627.027,399.906 626.027,400.573 624.5,400.5C 624.973,399.094 625.973,398.427 627.5,398.5 Z"/></g>
<g><path style="opacity:0.996" fill="#ebbb71" d="M 126.5,399.5 C 124.095,400.768 121.428,401.435 118.5,401.5C 120.838,399.96 123.505,399.294 126.5,399.5 Z"/></g>
<g><path style="opacity:0.012" fill="#f7e4c8" d="M 155.5,399.5 C 156.973,400.072 158.307,400.905 159.5,402C 157.609,402.203 155.943,401.703 154.5,400.5C 155.167,400.5 155.5,400.167 155.5,399.5 Z"/></g>
<g><path style="opacity:0.075" fill="#f6e1c2" d="M 165.5,405.5 C 164.833,405.833 164.167,406.167 163.5,406.5C 163.711,404.576 164.377,404.243 165.5,405.5 Z"/></g>
<g><path style="opacity:1" fill="#e8bc7b" d="M 103.5,413.5 C 103.325,415.621 103.659,417.621 104.5,419.5C 103.005,419.585 102.005,418.919 101.5,417.5C 101.994,415.974 102.661,414.641 103.5,413.5 Z"/></g>
<g><path style="opacity:0.498" fill="#f1ce99" d="M 645.5,415.5 C 647.027,415.427 648.027,416.094 648.5,417.5C 646.973,417.573 645.973,416.906 645.5,415.5 Z"/></g>
<g><path style="opacity:0.812" fill="#e8bc79" d="M 105.5,419.5 C 108.781,419.42 111.781,420.087 114.5,421.5C 111.219,421.58 108.219,420.913 105.5,419.5 Z"/></g>
</svg>
